# 3ds Max Wavefront OBJ Exporter v0.99 - (c)2007 guruware
# File Created: 09.05.2020 04:26:16

mtllib ventana.mtl

#
# object Ventana
#

v  -819.0270 71.5215 2710.2395
v  -819.0270 138.1882 2710.2395
v  -819.0270 138.1882 2610.2395
v  -819.0270 71.5215 2610.2395
v  -819.0270 204.8549 2710.2395
v  -819.0270 204.8549 2610.2395
v  -819.0270 271.5215 2710.2395
v  -819.0270 271.5215 2610.2395
v  -744.0270 71.5215 2780.2395
v  -744.0270 138.1882 2780.2395
v  -669.0270 71.5215 2780.2395
v  -669.0270 138.1882 2780.2395
v  -594.0270 71.5215 2780.2395
v  -594.0270 138.1882 2780.2395
v  -519.0270 71.5215 2710.2395
v  -519.0270 138.1882 2710.2395
v  -744.0270 204.8549 2780.2395
v  -669.0270 204.8549 2780.2395
v  -594.0270 204.8549 2780.2395
v  -519.0270 204.8548 2710.2395
v  -744.0270 271.5215 2780.2395
v  -669.0270 271.5215 2780.2395
v  -594.0270 271.5215 2780.2395
v  -519.0270 271.5215 2710.2395
v  -519.0269 71.5215 2610.2395
v  -519.0269 138.1882 2610.2395
v  -519.0270 204.8548 2610.2395
v  -519.0270 271.5215 2610.2395
v  -594.0270 71.5215 2610.2395
v  -594.0270 138.1882 2610.2395
v  -669.0270 71.5215 2610.2395
v  -669.0270 138.1882 2610.2395
v  -744.0270 71.5215 2610.2395
v  -744.0270 138.1882 2610.2395
v  -594.0270 204.8549 2610.2395
v  -669.0269 204.8549 2610.2395
v  -744.0270 204.8549 2610.2395
v  -594.0270 271.5215 2610.2395
v  -669.0270 271.5215 2610.2395
v  -744.0270 271.5215 2610.2395
v  -744.0270 271.5215 2710.2395
v  -669.0270 271.5215 2710.2395
v  -594.0270 271.5215 2710.2395
v  -594.0270 71.5215 2710.2395
v  -669.0270 71.5215 2710.2395
v  -744.0270 71.5215 2710.2395
v  -518.5270 136.6882 2710.4568
v  -519.5270 136.6882 2710.0222
v  -519.5269 136.6882 2610.2395
v  -518.5269 136.6882 2610.2395
v  -519.5270 139.6882 2710.0222
v  -519.5269 139.6882 2610.2395
v  -518.5270 139.6882 2710.4568
v  -518.5269 139.6882 2610.2395
v  -593.8298 136.6882 2780.7395
v  -594.2240 136.6882 2779.7395
v  -594.2240 139.6882 2779.7395
v  -593.8298 139.6882 2780.7395
v  -669.0270 136.6882 2780.7395
v  -669.0270 136.6882 2779.7395
v  -669.0270 139.6882 2779.7395
v  -669.0270 139.6882 2780.7395
v  -744.2240 136.6882 2780.7395
v  -743.8298 136.6882 2779.7395
v  -743.8298 139.6882 2779.7395
v  -744.2240 139.6882 2780.7395
v  -819.5270 136.6882 2710.4568
v  -818.5270 136.6882 2710.0222
v  -818.5270 139.6882 2710.0222
v  -819.5270 139.6882 2710.4568
v  -819.5270 136.6882 2610.2395
v  -818.5270 136.6882 2610.2395
v  -818.5270 139.6882 2610.2395
v  -819.5270 139.6882 2610.2395
v  -518.5270 203.3549 2710.4568
v  -519.5270 203.3549 2710.0222
v  -519.5270 203.3549 2610.2395
v  -518.5270 203.3549 2610.2395
v  -519.5270 206.3549 2710.0222
v  -519.5270 206.3549 2610.2395
v  -518.5270 206.3549 2710.4568
v  -518.5270 206.3549 2610.2395
v  -593.8298 203.3549 2780.7395
v  -594.2240 203.3549 2779.7395
v  -594.2240 206.3549 2779.7395
v  -593.8298 206.3549 2780.7395
v  -669.0270 203.3549 2780.7395
v  -669.0270 203.3549 2779.7395
v  -669.0270 206.3549 2779.7395
v  -669.0270 206.3549 2780.7395
v  -744.2240 203.3549 2780.7395
v  -743.8298 203.3549 2779.7395
v  -743.8298 206.3549 2779.7395
v  -744.2240 206.3549 2780.7395
v  -819.5270 203.3549 2710.4568
v  -818.5270 203.3549 2710.0222
v  -818.5270 206.3549 2710.0222
v  -819.5270 206.3549 2710.4568
v  -819.5270 203.3549 2610.2395
v  -818.5270 203.3549 2610.2395
v  -818.5270 206.3549 2610.2395
v  -819.5270 206.3549 2610.2395
v  -517.9678 68.0750 2710.6997
v  -521.8010 69.2183 2709.0339
v  -521.8567 69.2871 2610.2395
v  -518.0527 68.0501 2610.2395
v  -520.0861 74.9680 2709.7793
v  -520.0011 74.9930 2610.2395
v  -516.2529 73.8247 2711.4448
v  -516.1972 73.7559 2610.2395
v  -593.4996 68.1734 2781.5774
v  -595.0423 68.9988 2777.6633
v  -594.5543 74.8697 2778.9016
v  -593.0116 74.0442 2782.8154
v  -669.0270 68.1926 2781.6245
v  -669.0270 68.9627 2777.6992
v  -669.0270 74.8505 2778.8545
v  -669.0270 74.0803 2782.7798
v  -744.5901 68.2111 2781.6682
v  -743.0391 68.9294 2777.7332
v  -743.4637 74.8319 2778.8108
v  -745.0148 74.1136 2782.7456
v  -822.3694 68.1555 2708.8877
v  -819.0646 69.0339 2706.6340
v  -815.6844 74.8875 2711.5913
v  -818.9893 74.0091 2713.8447
v  -822.2397 138.1882 2708.6030
v  -818.7520 138.1882 2706.6445
v  -815.8142 138.1882 2711.8760
v  -819.3019 138.1882 2713.8345
v  -822.2397 204.8549 2708.6030
v  -818.7520 204.8549 2706.6445
v  -815.8142 204.8549 2711.8760
v  -819.3019 204.8549 2713.8345
v  -822.2397 271.5215 2708.6030
v  -818.7520 271.5215 2706.6445
v  -815.8142 271.5215 2711.8760
v  -819.3019 271.5215 2713.8345
v  -818.0527 68.0501 2710.2395
v  -821.8567 69.2871 2710.2395
v  -821.8567 69.2871 2610.2395
v  -818.0527 68.0501 2610.2395
v  -820.0011 74.9930 2710.2395
v  -820.0011 74.9930 2610.2395
v  -816.1972 73.7559 2710.2395
v  -816.1971 73.7559 2610.2395
v  -746.8730 138.1882 2778.0259
v  -743.0782 138.1882 2776.7610
v  -743.0782 71.5215 2776.7610
v  -746.8730 71.5215 2778.0259
v  -741.1809 138.1882 2782.4531
v  -741.1809 71.5215 2782.4531
v  -744.9756 138.1882 2783.7180
v  -744.9756 71.5215 2783.7180
v  -746.8730 204.8549 2778.0259
v  -743.0782 204.8549 2776.7610
v  -741.1809 204.8549 2782.4531
v  -744.9756 204.8549 2783.7180
v  -746.8730 271.5215 2778.0259
v  -743.0783 271.5215 2776.7610
v  -741.1809 271.5215 2782.4531
v  -744.9757 271.5215 2783.7180
v  -671.8730 138.1882 2778.0259
v  -668.0782 138.1882 2776.7610
v  -668.0782 71.5215 2776.7610
v  -671.8730 71.5215 2778.0259
v  -666.1809 138.1882 2782.4531
v  -666.1809 71.5215 2782.4531
v  -669.9756 138.1882 2783.7180
v  -669.9756 71.5215 2783.7180
v  -671.8730 204.8549 2778.0259
v  -668.0782 204.8549 2776.7610
v  -666.1809 204.8549 2782.4531
v  -669.9756 204.8549 2783.7180
v  -671.8730 271.5215 2778.0259
v  -668.0783 271.5215 2776.7610
v  -666.1809 271.5215 2782.4531
v  -669.9757 271.5215 2783.7180
v  -596.8730 138.1882 2778.0259
v  -593.0782 138.1882 2776.7610
v  -593.0782 71.5215 2776.7610
v  -596.8730 71.5215 2778.0259
v  -591.1809 138.1882 2782.4531
v  -591.1809 71.5215 2782.4531
v  -594.9756 138.1882 2783.7180
v  -594.9756 71.5215 2783.7180
v  -596.8730 204.8549 2778.0259
v  -593.0782 204.8549 2776.7610
v  -591.1809 204.8549 2782.4531
v  -594.9756 204.8549 2783.7180
v  -596.8730 271.5215 2778.0259
v  -593.0783 271.5215 2776.7610
v  -591.1809 271.5215 2782.4531
v  -594.9757 271.5215 2783.7180
v  -518.8857 71.3804 2706.6367
v  -515.6470 68.1416 2708.9841
v  -594.0270 67.9775 2709.5762
v  -594.0270 70.7708 2706.7129
v  -519.1681 71.6627 2713.8423
v  -594.0270 72.2722 2713.7661
v  -522.4069 74.9015 2711.4949
v  -594.0270 75.0655 2710.9028
v  -519.4385 138.1882 2706.6575
v  -515.8788 138.1882 2708.4819
v  -518.6154 138.1882 2713.8215
v  -522.1751 138.1882 2711.9971
v  -519.4386 204.8549 2706.6575
v  -515.8788 204.8549 2708.4819
v  -518.6154 204.8549 2713.8215
v  -522.1751 204.8549 2711.9971
v  -519.4386 271.5215 2706.6575
v  -515.8788 271.5215 2708.4819
v  -518.6154 271.5215 2713.8215
v  -522.1751 271.5215 2711.9971
v  -594.0270 271.5216 2780.2395
v  -611.3922 348.8051 2735.3464
v  -676.3441 348.8050 2752.7502
v  -519.0269 271.5216 2710.2395
v  -563.8440 348.8051 2687.7983
v  -519.0269 271.5216 2610.2395
v  -546.4402 348.8051 2622.8464
v  -788.8441 348.8050 2687.7983
v  -741.2960 403.7088 2660.3464
v  -751.3441 403.7088 2622.8464
v  -806.2478 348.8050 2622.8464
v  -741.2960 348.8050 2735.3464
v  -713.8441 403.7088 2687.7983
v  -676.3441 403.7088 2697.8464
v  -676.3441 423.8050 2622.8464
v  -638.8441 403.7089 2687.7983
v  -611.3922 403.7089 2660.3464
v  -601.3441 403.7089 2622.8464
v  -819.0269 271.5215 2710.2395
v  -819.0269 271.5215 2610.2395
# 234 vertices

vn -0.9171 -0.0000 0.3985
vn -1.0000 -0.0000 -0.0000
vn -0.3667 -0.0000 0.9303
vn -0.0000 0.0000 1.0000
vn 0.3667 0.0000 0.9303
vn 0.9171 0.0000 0.3985
vn 1.0000 0.0000 0.0000
vn 0.0000 0.0000 -1.0000
vn -0.0000 1.0000 -0.0000
vn 0.0000 -1.0000 0.0000
vn -0.9171 -0.0000 -0.3985
vn -0.3667 -0.0000 -0.9303
vn 0.3667 0.0000 -0.9303
vn 0.9171 0.0000 -0.3985
vn -0.2345 -0.9679 -0.0908
vn -0.2977 -0.9547 -0.0000
vn -0.8752 0.2944 -0.3838
vn -0.9547 0.2975 0.0000
vn 0.2340 0.9680 0.0904
vn 0.2975 0.9547 0.0000
vn 0.8752 -0.2947 0.3837
vn 0.9547 -0.2976 -0.0000
vn -0.0845 -0.9780 -0.1907
vn -0.3542 0.2386 -0.9042
vn 0.0841 0.9781 0.1902
vn 0.3541 -0.2388 0.9042
vn 0.0000 -0.9812 -0.1928
vn -0.0000 0.1927 -0.9812
vn -0.0000 0.9813 0.1927
vn 0.0000 -0.1928 0.9812
vn 0.0682 -0.9837 -0.1664
vn 0.3583 0.2064 -0.9105
vn -0.0684 0.9837 0.1665
vn -0.3582 -0.2070 0.9104
vn 0.1360 -0.9799 -0.1458
vn 0.7691 0.1010 -0.6311
vn -0.1364 0.9798 0.1461
vn -0.7703 -0.1016 0.6295
vn -0.5086 0.0000 -0.8610
vn -0.5272 0.0000 -0.8497
vn 0.8606 0.0001 -0.5093
vn 0.5083 -0.0000 0.8612
vn 0.5267 -0.0000 0.8500
vn -0.8616 -0.0001 0.5076
vn -0.4896 -0.0000 -0.8719
vn 0.8719 0.0000 -0.4896
vn 0.4896 0.0000 0.8719
vn -0.8719 -0.0000 0.4896
vn -0.3093 -0.9510 -0.0000
vn -0.9510 0.3093 -0.0000
vn 0.3093 0.9510 0.0000
vn 0.9510 -0.3093 0.0000
vn -0.3162 -0.0000 -0.9487
vn 0.9487 0.0000 -0.3162
vn 0.3162 0.0000 0.9487
vn -0.9487 -0.0000 0.3162
vn 0.2875 -0.3595 -0.8877
vn 0.0001 -0.6525 -0.7578
vn 0.5192 -0.4610 0.7196
vn -0.0001 -0.7556 0.6551
vn -0.2893 0.3612 0.8865
vn -0.0001 0.6549 0.7557
vn -0.5212 0.4631 -0.7169
vn 0.0001 0.7580 -0.6522
vn 0.4892 0.0000 -0.8722
vn 0.8713 -0.0001 0.4907
vn -0.4907 -0.0000 0.8714
vn -0.8722 0.0001 -0.4891
vn 0.4561 0.0000 -0.8899
vn 0.8899 0.0000 0.4561
vn -0.4561 -0.0000 0.8899
vn -0.8899 -0.0000 -0.4561
vn 0.3756 0.4871 0.7885
vn 0.3681 0.6044 0.7065
vn 0.0023 0.5749 0.8182
vn 0.0046 0.4271 0.9042
vn 0.7795 0.4963 0.3822
vn 0.7012 0.6088 0.3711
vn 0.8906 0.4411 0.1107
vn 0.8036 0.5758 0.1505
vn -0.7411 0.5452 0.3919
vn -0.4315 0.8670 0.2491
vn -0.4938 0.8594 0.1323
vn -0.8581 0.4866 0.1642
vn -0.3759 0.5831 0.7202
vn -0.2491 0.8670 0.4315
vn -0.0000 0.8670 0.4982
vn -0.0000 0.9844 0.1758
vn 0.2491 0.8670 0.4315
vn 0.4315 0.8670 0.2491
vn 0.4938 0.8594 0.1323
vn -0.8400 0.3516 0.4133
vn -0.9609 0.2442 0.1306
vn -0.3881 0.4392 0.8103
# 94 vertex normals

vt 1.0000 0.0000 0.0000
vt 1.0000 0.3333 0.0000
vt 0.0000 0.3333 0.0000
vt 0.0000 0.0000 0.0000
vt 1.0000 0.6667 0.0000
vt 0.0000 0.6667 0.0000
vt 1.0000 1.0000 0.0000
vt 0.0000 1.0000 0.0000
vt 0.2500 0.0000 0.0000
vt 0.2500 0.3333 0.0000
vt 0.5000 0.0000 0.0000
vt 0.5000 0.3333 0.0000
vt 0.7500 0.0000 0.0000
vt 0.7500 0.3333 0.0000
vt 0.2500 0.6667 0.0000
vt 0.5000 0.6667 0.0000
vt 0.7500 0.6667 0.0000
vt 0.2500 1.0000 0.0000
vt 0.5000 1.0000 0.0000
vt 0.7500 1.0000 0.0000
vt 1.0000 0.2500 0.0000
vt 0.0000 0.2500 0.0000
vt 1.0000 0.5000 0.0000
vt 0.0000 0.5000 0.0000
vt 1.0000 0.7500 0.0000
vt 0.0000 0.7500 0.0000
vt 0.0000 0.8199 0.0000
vt 0.2500 0.8199 0.0000
vt 0.5000 0.8199 0.0000
vt 0.7500 0.8199 0.0000
vt 1.0000 0.8199 0.0000
vt 0.0000 0.6351 0.0000
vt 0.2500 0.6351 0.0000
vt 0.5000 0.6351 0.0000
vt 0.7500 0.6351 0.0000
vt 1.0000 0.6351 0.0000
vt 0.2500 0.5000 0.0000
vt 0.5000 0.5000 0.0000
vt 0.7500 0.5000 0.0000
vt 0.0000 0.3649 0.0000
vt 0.2500 0.3649 0.0000
vt 0.5000 0.3649 0.0000
vt 0.7500 0.3649 0.0000
vt 1.0000 0.3649 0.0000
vt 0.0000 0.1801 0.0000
vt 0.2500 0.1801 0.0000
vt 0.5000 0.1801 0.0000
vt 0.7500 0.1801 0.0000
vt 1.0000 0.1801 0.0000
vt 0.0000 0.8474 0.0000
vt 0.2500 0.8474 0.0000
vt 0.5000 0.8474 0.0000
vt 0.7500 0.8474 0.0000
vt 1.0000 0.8474 0.0000
vt 0.0000 0.6908 0.0000
vt 0.2500 0.6908 0.0000
vt 0.5000 0.6908 0.0000
vt 0.7500 0.6908 0.0000
vt 1.0000 0.6908 0.0000
vt 0.0000 0.5763 0.0000
vt 0.2500 0.5763 0.0000
vt 0.5000 0.5763 0.0000
vt 0.7500 0.5763 0.0000
vt 1.0000 0.5763 0.0000
vt 0.0000 0.4618 0.0000
vt 0.2500 0.4618 0.0000
vt 0.5000 0.4618 0.0000
vt 0.7500 0.4618 0.0000
vt 1.0000 0.4618 0.0000
vt 0.0000 0.3053 0.0000
vt 0.2500 0.3053 0.0000
vt 0.5000 0.3053 0.0000
vt 0.7500 0.3053 0.0000
vt 1.0000 0.3053 0.0000
vt 0.0000 0.2035 0.0000
vt 0.2500 0.2035 0.0000
vt 0.5000 0.2035 0.0000
vt 0.7500 0.2035 0.0000
vt 1.0000 0.2035 0.0000
vt 0.0000 0.1018 0.0000
vt 0.2500 0.1018 0.0000
vt 0.5000 0.1018 0.0000
vt 0.7500 0.1018 0.0000
vt 1.0000 0.1018 0.0000
vt 0.0000 0.7273 0.0000
vt 0.2500 0.7273 0.0000
vt 0.5000 0.7273 0.0000
vt 0.7500 0.7273 0.0000
vt 1.0000 0.7273 0.0000
vt 0.0000 0.4848 0.0000
vt 0.2500 0.4848 0.0000
vt 0.5000 0.4848 0.0000
vt 0.7500 0.4848 0.0000
vt 1.0000 0.4848 0.0000
vt 0.0000 0.2424 0.0000
vt 0.2500 0.2424 0.0000
vt 0.5000 0.2424 0.0000
vt 0.7500 0.2424 0.0000
vt 1.0000 0.2424 0.0000
vt 0.0833 0.5000 0.0000
vt 0.0833 0.6667 0.0000
vt 0.1667 0.5000 0.0000
vt 0.1667 0.6667 0.0000
vt 0.8333 0.6667 0.0000
vt 0.8333 0.8333 0.0000
vt 0.7500 0.8333 0.0000
vt 0.9167 0.6667 0.0000
vt 0.9167 0.8333 0.0000
vt 1.0000 0.8333 0.0000
vt 0.0000 0.8333 0.0000
vt 0.0833 0.8333 0.0000
vt 0.0833 1.0000 0.0000
vt 0.1667 0.8333 0.0000
vt 0.1667 1.0000 0.0000
vt 0.2500 0.8333 0.0000
vt 0.8333 0.5000 0.0000
vt 0.9167 0.5000 0.0000
vt 0.8333 1.0000 0.0000
vt 0.9167 1.0000 0.0000
# 119 texture coords

o Ventana
g Ventana
usemtl wire_204204204
s off
f 1/1/1 2/2/1 3/3/2 
f 3/3/2 4/4/2 1/1/1 
f 2/2/1 5/5/1 6/6/2 
f 6/6/2 3/3/2 2/2/1 
f 5/5/1 7/7/1 8/8/2 
f 8/8/2 6/6/2 5/5/1 
f 9/9/3 10/10/3 2/3/1 
f 2/3/1 1/4/1 9/9/3 
f 11/11/4 12/12/4 10/10/3 
f 10/10/3 9/9/3 11/11/4 
f 13/13/5 14/14/5 12/12/4 
f 12/12/4 11/11/4 13/13/5 
f 15/1/6 16/2/6 14/14/5 
f 14/14/5 13/13/5 15/1/6 
f 10/10/3 17/15/3 5/6/1 
f 5/6/1 2/3/1 10/10/3 
f 12/12/4 18/16/4 17/15/3 
f 17/15/3 10/10/3 12/12/4 
f 14/14/5 19/17/5 18/16/4 
f 18/16/4 12/12/4 14/14/5 
f 16/2/6 20/5/6 19/17/5 
f 19/17/5 14/14/5 16/2/6 
f 17/15/3 21/18/3 7/8/1 
f 7/8/1 5/6/1 17/15/3 
f 18/16/4 22/19/4 21/18/3 
f 21/18/3 17/15/3 18/16/4 
f 19/17/5 23/20/5 22/19/4 
f 22/19/4 18/16/4 19/17/5 
f 20/5/6 24/7/6 23/20/5 
f 23/20/5 19/17/5 20/5/6 
f 25/1/7 26/2/7 16/3/6 
f 16/3/6 15/4/6 25/1/7 
f 26/2/7 27/5/7 20/6/6 
f 20/6/6 16/3/6 26/2/7 
f 27/5/7 28/7/7 24/8/6 
f 24/8/6 20/6/6 27/5/7 
f 29/9/8 30/10/8 26/3/8 
f 26/3/8 25/4/8 29/9/8 
f 31/11/8 32/12/8 30/10/8 
f 30/10/8 29/9/8 31/11/8 
f 33/13/8 34/14/8 32/12/8 
f 32/12/8 31/11/8 33/13/8 
f 4/1/8 3/2/8 34/14/8 
f 34/14/8 33/13/8 4/1/8 
f 30/10/8 35/15/8 27/6/8 
f 27/6/8 26/3/8 30/10/8 
f 32/12/8 36/16/8 35/15/8 
f 35/15/8 30/10/8 32/12/8 
f 34/14/8 37/17/8 36/16/8 
f 36/16/8 32/12/8 34/14/8 
f 3/2/8 6/5/8 37/17/8 
f 37/17/8 34/14/8 3/2/8 
f 35/15/8 38/18/8 28/8/8 
f 28/8/8 27/6/8 35/15/8 
f 36/16/8 39/19/8 38/18/8 
f 38/18/8 35/15/8 36/16/8 
f 37/17/8 40/20/8 39/19/8 
f 39/19/8 36/16/8 37/17/8 
f 6/5/8 8/7/8 40/20/8 
f 40/20/8 37/17/8 6/5/8 
f 7/1/9 41/21/9 40/22/9 
f 40/22/9 8/4/9 7/1/9 
f 41/21/9 42/23/9 39/24/9 
f 39/24/9 40/22/9 41/21/9 
f 42/23/9 43/25/9 38/26/9 
f 38/26/9 39/24/9 42/23/9 
f 43/25/9 24/7/9 28/8/9 
f 28/8/9 38/26/9 43/25/9 
f 15/1/10 44/21/10 29/22/10 
f 29/22/10 25/4/10 15/1/10 
f 44/21/10 45/23/10 31/24/10 
f 31/24/10 29/22/10 44/21/10 
f 45/23/10 46/25/10 33/26/10 
f 33/26/10 31/24/10 45/23/10 
f 46/25/10 1/7/10 4/8/10 
f 4/8/10 33/26/10 46/25/10 
f 46/9/10 9/9/10 1/4/10 
f 42/19/9 22/19/9 23/20/9 
f 23/20/9 43/20/9 42/19/9 
f 45/11/10 11/11/10 9/9/10 
f 9/9/10 46/9/10 45/11/10 
f 44/13/10 13/13/10 11/11/10 
f 11/11/10 45/11/10 44/13/10 
f 15/1/10 13/13/10 44/13/10 
f 7/8/9 21/18/9 41/18/9 
f 41/18/9 21/18/9 22/19/9 
f 22/19/9 42/19/9 41/18/9 
f 43/20/9 23/20/9 24/7/9 
f 47/27/10 48/28/10 49/18/10 
f 49/18/10 50/8/10 47/27/10 
f 48/28/11 51/29/11 52/19/2 
f 52/19/2 49/18/2 48/28/11 
f 51/29/9 53/30/9 54/20/9 
f 54/20/9 52/19/9 51/29/9 
f 53/30/6 47/31/6 50/7/7 
f 50/7/7 54/20/7 53/30/6 
f 55/32/10 56/33/10 48/28/10 
f 48/28/10 47/27/10 55/32/10 
f 56/33/12 57/34/12 51/29/11 
f 51/29/11 48/28/11 56/33/12 
f 57/34/9 58/35/9 53/30/9 
f 53/30/9 51/29/9 57/34/9 
f 58/35/5 55/36/5 47/31/6 
f 47/31/6 53/30/6 58/35/5 
f 59/24/10 60/37/10 56/33/10 
f 56/33/10 55/32/10 59/24/10 
f 60/37/8 61/38/8 57/34/12 
f 57/34/12 56/33/12 60/37/8 
f 61/38/9 62/39/9 58/35/9 
f 58/35/9 57/34/9 61/38/9 
f 62/39/4 59/23/4 55/36/5 
f 55/36/5 58/35/5 62/39/4 
f 63/40/10 64/41/10 60/37/10 
f 60/37/10 59/24/10 63/40/10 
f 64/41/13 65/42/13 61/38/8 
f 61/38/8 60/37/8 64/41/13 
f 65/42/9 66/43/9 62/39/9 
f 62/39/9 61/38/9 65/42/9 
f 66/43/3 63/44/3 59/23/4 
f 59/23/4 62/39/4 66/43/3 
f 67/45/10 68/46/10 64/41/10 
f 64/41/10 63/40/10 67/45/10 
f 68/46/14 69/47/14 65/42/13 
f 65/42/13 64/41/13 68/46/14 
f 69/47/9 70/48/9 66/43/9 
f 66/43/9 65/42/9 69/47/9 
f 70/48/1 67/49/1 63/44/3 
f 63/44/3 66/43/3 70/48/1 
f 71/4/10 72/9/10 68/46/10 
f 68/46/10 67/45/10 71/4/10 
f 72/9/7 73/11/7 69/47/14 
f 69/47/14 68/46/14 72/9/7 
f 73/11/9 74/13/9 70/48/9 
f 70/48/9 69/47/9 73/11/9 
f 74/13/2 71/1/2 67/49/1 
f 67/49/1 70/48/1 74/13/2 
f 75/27/10 76/28/10 77/18/10 
f 77/18/10 78/8/10 75/27/10 
f 76/28/11 79/29/11 80/19/2 
f 80/19/2 77/18/2 76/28/11 
f 79/29/9 81/30/9 82/20/9 
f 82/20/9 80/19/9 79/29/9 
f 81/30/6 75/31/6 78/7/7 
f 78/7/7 82/20/7 81/30/6 
f 83/32/10 84/33/10 76/28/10 
f 76/28/10 75/27/10 83/32/10 
f 84/33/12 85/34/12 79/29/11 
f 79/29/11 76/28/11 84/33/12 
f 85/34/9 86/35/9 81/30/9 
f 81/30/9 79/29/9 85/34/9 
f 86/35/5 83/36/5 75/31/6 
f 75/31/6 81/30/6 86/35/5 
f 87/24/10 88/37/10 84/33/10 
f 84/33/10 83/32/10 87/24/10 
f 88/37/8 89/38/8 85/34/12 
f 85/34/12 84/33/12 88/37/8 
f 89/38/9 90/39/9 86/35/9 
f 86/35/9 85/34/9 89/38/9 
f 90/39/4 87/23/4 83/36/5 
f 83/36/5 86/35/5 90/39/4 
f 91/40/10 92/41/10 88/37/10 
f 88/37/10 87/24/10 91/40/10 
f 92/41/13 93/42/13 89/38/8 
f 89/38/8 88/37/8 92/41/13 
f 93/42/9 94/43/9 90/39/9 
f 90/39/9 89/38/9 93/42/9 
f 94/43/3 91/44/3 87/23/4 
f 87/23/4 90/39/4 94/43/3 
f 95/45/10 96/46/10 92/41/10 
f 92/41/10 91/40/10 95/45/10 
f 96/46/14 97/47/14 93/42/13 
f 93/42/13 92/41/13 96/46/14 
f 97/47/9 98/48/9 94/43/9 
f 94/43/9 93/42/9 97/47/9 
f 98/48/1 95/49/1 91/44/3 
f 91/44/3 94/43/3 98/48/1 
f 99/4/10 100/9/10 96/46/10 
f 96/46/10 95/45/10 99/4/10 
f 100/9/7 101/11/7 97/47/14 
f 97/47/14 96/46/14 100/9/7 
f 101/11/9 102/13/9 98/48/9 
f 98/48/9 97/47/9 101/11/9 
f 102/13/2 99/1/2 95/49/1 
f 95/49/1 98/48/1 102/13/2 
f 103/50/15 104/51/15 105/18/16 
f 105/18/16 106/8/16 103/50/15 
f 104/51/17 107/52/17 108/19/18 
f 108/19/18 105/18/18 104/51/17 
f 107/52/19 109/53/19 110/20/20 
f 110/20/20 108/19/20 107/52/19 
f 109/53/21 103/54/21 106/7/22 
f 106/7/22 110/20/22 109/53/21 
f 111/55/23 112/56/23 104/51/15 
f 104/51/15 103/50/15 111/55/23 
f 112/56/24 113/57/24 107/52/17 
f 107/52/17 104/51/17 112/56/24 
f 113/57/25 114/58/25 109/53/19 
f 109/53/19 107/52/19 113/57/25 
f 114/58/26 111/59/26 103/54/21 
f 103/54/21 109/53/21 114/58/26 
f 115/60/27 116/61/27 112/56/23 
f 112/56/23 111/55/23 115/60/27 
f 116/61/28 117/62/28 113/57/24 
f 113/57/24 112/56/24 116/61/28 
f 117/62/29 118/63/29 114/58/25 
f 114/58/25 113/57/25 117/62/29 
f 118/63/30 115/64/30 111/59/26 
f 111/59/26 114/58/26 118/63/30 
f 119/65/31 120/66/31 116/61/27 
f 116/61/27 115/60/27 119/65/31 
f 120/66/32 121/67/32 117/62/28 
f 117/62/28 116/61/28 120/66/32 
f 121/67/33 122/68/33 118/63/29 
f 118/63/29 117/62/29 121/67/33 
f 122/68/34 119/69/34 115/64/30 
f 115/64/30 118/63/30 122/68/34 
f 123/70/35 124/71/35 120/66/31 
f 120/66/31 119/65/31 123/70/35 
f 124/71/36 125/72/36 121/67/32 
f 121/67/32 120/66/32 124/71/36 
f 125/72/37 126/73/37 122/68/33 
f 122/68/33 121/67/33 125/72/37 
f 126/73/38 123/74/38 119/69/34 
f 119/69/34 122/68/34 126/73/38 
f 127/75/39 128/76/39 124/71/40 
f 124/71/40 123/70/40 127/75/39 
f 128/76/41 129/77/41 125/72/36 
f 125/72/36 124/71/36 128/76/41 
f 129/77/42 130/78/42 126/73/43 
f 126/73/43 125/72/43 129/77/42 
f 130/78/44 127/79/44 123/74/38 
f 123/74/38 126/73/38 130/78/44 
f 131/80/45 132/81/45 128/76/39 
f 128/76/39 127/75/39 131/80/45 
f 132/81/46 133/82/46 129/77/41 
f 129/77/41 128/76/41 132/81/46 
f 133/82/47 134/83/47 130/78/42 
f 130/78/42 129/77/42 133/82/47 
f 134/83/48 131/84/48 127/79/44 
f 127/79/44 130/78/44 134/83/48 
f 135/4/45 136/9/45 132/81/45 
f 132/81/45 131/80/45 135/4/45 
f 136/9/46 137/11/46 133/82/46 
f 133/82/46 132/81/46 136/9/46 
f 137/11/47 138/13/47 134/83/47 
f 134/83/47 133/82/47 137/11/47 
f 138/13/48 135/1/48 131/84/48 
f 131/84/48 134/83/48 138/13/48 
f 139/4/49 140/9/49 141/18/49 
f 141/18/49 142/8/49 139/4/49 
f 140/9/50 143/11/50 144/19/50 
f 144/19/50 141/18/50 140/9/50 
f 143/11/51 145/13/51 146/20/51 
f 146/20/51 144/19/51 143/11/51 
f 145/13/52 139/1/52 142/7/52 
f 142/7/52 146/20/52 145/13/52 
f 147/6/53 148/15/53 149/18/53 
f 149/18/53 150/8/53 147/6/53 
f 148/15/54 151/16/54 152/19/54 
f 152/19/54 149/18/54 148/15/54 
f 151/16/55 153/17/55 154/20/55 
f 154/20/55 152/19/55 151/16/55 
f 153/17/56 147/5/56 150/7/56 
f 150/7/56 154/20/56 153/17/56 
f 155/3/53 156/10/53 148/15/53 
f 148/15/53 147/6/53 155/3/53 
f 156/10/54 157/12/54 151/16/54 
f 151/16/54 148/15/54 156/10/54 
f 157/12/55 158/14/55 153/17/55 
f 153/17/55 151/16/55 157/12/55 
f 158/14/56 155/2/56 147/5/56 
f 147/5/56 153/17/56 158/14/56 
f 159/4/53 160/9/53 156/10/53 
f 156/10/53 155/3/53 159/4/53 
f 160/9/54 161/11/54 157/12/54 
f 157/12/54 156/10/54 160/9/54 
f 161/11/55 162/13/55 158/14/55 
f 158/14/55 157/12/55 161/11/55 
f 162/13/56 159/1/56 155/2/56 
f 155/2/56 158/14/56 162/13/56 
f 163/6/53 164/15/53 165/18/53 
f 165/18/53 166/8/53 163/6/53 
f 164/15/54 167/16/54 168/19/54 
f 168/19/54 165/18/54 164/15/54 
f 167/16/55 169/17/55 170/20/55 
f 170/20/55 168/19/55 167/16/55 
f 169/17/56 163/5/56 166/7/56 
f 166/7/56 170/20/56 169/17/56 
f 171/3/53 172/10/53 164/15/53 
f 164/15/53 163/6/53 171/3/53 
f 172/10/54 173/12/54 167/16/54 
f 167/16/54 164/15/54 172/10/54 
f 173/12/55 174/14/55 169/17/55 
f 169/17/55 167/16/55 173/12/55 
f 174/14/56 171/2/56 163/5/56 
f 163/5/56 169/17/56 174/14/56 
f 175/4/53 176/9/53 172/10/53 
f 172/10/53 171/3/53 175/4/53 
f 176/9/54 177/11/54 173/12/54 
f 173/12/54 172/10/54 176/9/54 
f 177/11/55 178/13/55 174/14/55 
f 174/14/55 173/12/55 177/11/55 
f 178/13/56 175/1/56 171/2/56 
f 171/2/56 174/14/56 178/13/56 
f 179/6/53 180/15/53 181/18/53 
f 181/18/53 182/8/53 179/6/53 
f 180/15/54 183/16/54 184/19/54 
f 184/19/54 181/18/54 180/15/54 
f 183/16/55 185/17/55 186/20/55 
f 186/20/55 184/19/55 183/16/55 
f 185/17/56 179/5/56 182/7/56 
f 182/7/56 186/20/56 185/17/56 
f 187/3/53 188/10/53 180/15/53 
f 180/15/53 179/6/53 187/3/53 
f 188/10/54 189/12/54 183/16/54 
f 183/16/54 180/15/54 188/10/54 
f 189/12/55 190/14/55 185/17/55 
f 185/17/55 183/16/55 189/12/55 
f 190/14/56 187/2/56 179/5/56 
f 179/5/56 185/17/56 190/14/56 
f 191/4/53 192/9/53 188/10/53 
f 188/10/53 187/3/53 191/4/53 
f 192/9/54 193/11/54 189/12/54 
f 189/12/54 188/10/54 192/9/54 
f 193/11/55 194/13/55 190/14/55 
f 190/14/55 189/12/55 193/11/55 
f 194/13/56 191/1/56 187/2/56 
f 187/2/56 190/14/56 194/13/56 
f 195/85/57 196/86/57 197/18/58 
f 197/18/58 198/8/58 195/85/57 
f 196/86/59 199/87/59 200/19/60 
f 200/19/60 197/18/60 196/86/59 
f 199/87/61 201/88/61 202/20/62 
f 202/20/62 200/19/62 199/87/61 
f 201/88/63 195/89/63 198/7/64 
f 198/7/64 202/20/64 201/88/63 
f 203/90/65 204/91/65 196/86/57 
f 196/86/57 195/85/57 203/90/65 
f 204/91/66 205/92/66 199/87/59 
f 199/87/59 196/86/59 204/91/66 
f 205/92/67 206/93/67 201/88/61 
f 201/88/61 199/87/61 205/92/67 
f 206/93/68 203/94/68 195/89/63 
f 195/89/63 201/88/63 206/93/68 
f 207/95/69 208/96/69 204/91/65 
f 204/91/65 203/90/65 207/95/69 
f 208/96/70 209/97/70 205/92/66 
f 205/92/66 204/91/66 208/96/70 
f 209/97/71 210/98/71 206/93/67 
f 206/93/67 205/92/67 209/97/71 
f 210/98/72 207/99/72 203/94/68 
f 203/94/68 206/93/68 210/98/72 
f 211/4/69 212/9/69 208/96/69 
f 208/96/69 207/95/69 211/4/69 
f 212/9/70 213/11/70 209/97/70 
f 209/97/70 208/96/70 212/9/70 
f 213/11/71 214/13/71 210/98/71 
f 210/98/71 209/97/71 213/11/71 
f 214/13/72 211/1/72 207/99/72 
f 207/99/72 210/98/72 214/13/72 
f 215/100/73 216/101/74 217/6/75 
f 217/6/75 22/24/76 215/100/73 
f 218/102/77 219/103/78 216/101/74 
f 216/101/74 215/100/73 218/102/77 
f 220/37/79 221/15/80 219/103/78 
f 219/103/78 218/102/77 220/37/79 
f 222/104/81 223/105/82 224/106/83 
f 224/106/83 225/17/84 222/104/81 
f 226/107/85 227/108/86 223/105/82 
f 223/105/82 222/104/81 226/107/85 
f 217/5/75 228/109/87 227/108/86 
f 227/108/86 226/107/85 217/5/75 
f 229/8/88 228/110/87 230/111/89 
f 229/112/88 230/111/89 231/113/90 
f 229/114/88 231/113/90 232/115/91 
f 233/116/92 222/104/81 225/17/84 
f 225/17/84 234/39/93 233/116/92 
f 21/117/94 226/107/85 222/104/81 
f 222/104/81 233/116/92 21/117/94 
f 22/23/76 217/5/75 226/107/85 
f 226/107/85 21/117/94 22/23/76 
f 216/101/74 230/111/89 228/110/87 
f 228/110/87 217/6/75 216/101/74 
f 219/103/78 231/113/90 230/111/89 
f 230/111/89 216/101/74 219/103/78 
f 221/15/80 232/115/91 231/113/90 
f 231/113/90 219/103/78 221/15/80 
f 229/20/88 224/106/83 223/105/82 
f 229/118/88 223/105/82 227/108/86 
f 229/119/88 227/108/86 228/109/87 
# 390 faces

