# 3ds Max Wavefront OBJ Exporter v0.99 - (c)2007 guruware
# File Created: 11.05.2020 07:34:33

mtllib piernaIzq.mtl

#
# object piernaIzqHomero
#

v  -0.4056 -1.1142 -0.6474
v  -0.4111 -1.1187 -0.3893
v  -0.3816 -1.2669 -0.3912
v  -0.3761 -1.2624 -0.6493
v  -0.2977 -1.3925 -0.3916
v  -0.2922 -1.3881 -0.6496
v  -0.1721 -1.4765 -0.3903
v  -0.1665 -1.4721 -0.6485
v  -0.0239 -1.5061 -0.3876
v  -0.0184 -1.5016 -0.6457
v  0.1243 -1.4766 -0.3839
v  0.1298 -1.4722 -0.6420
v  0.2499 -1.3927 -0.3799
v  0.2555 -1.3883 -0.6380
v  0.3339 -1.2671 -0.3758
v  0.3394 -1.2627 -0.6339
v  0.3633 -1.1190 -0.3726
v  0.3689 -1.1145 -0.6309
v  0.3339 -0.9707 -0.3708
v  0.3394 -0.9663 -0.6289
v  0.2499 -0.8451 -0.3704
v  0.2555 -0.8406 -0.6285
v  0.1243 -0.7611 -0.3717
v  0.1298 -0.7566 -0.6298
v  -0.0239 -0.7316 -0.3744
v  -0.0184 -0.7271 -0.6324
v  -0.1721 -0.7610 -0.3780
v  -0.1665 -0.7565 -0.6362
v  -0.2977 -0.8449 -0.3821
v  -0.2921 -0.8404 -0.6403
v  -0.3816 -0.9705 -0.3862
v  -0.3761 -0.9660 -0.6442
v  -0.4111 -1.5059 -0.3959
v  0.3633 -1.5062 -0.3794
v  0.3633 -0.7317 -0.3661
v  -0.4111 -0.7314 -0.3826
v  -0.4111 -1.7641 -0.4004
v  0.3633 -1.7644 -0.3837
v  0.3633 -0.4735 -0.3616
v  -0.4111 -0.4732 -0.3783
v  -0.4222 -0.4821 0.1380
v  0.3523 -0.4824 0.1546
v  0.3523 -1.5151 0.1368
v  -0.4222 -1.5148 0.1203
v  0.3467 -1.7776 0.3905
v  0.3467 -1.5195 0.3949
v  -0.4277 -1.7774 0.3740
v  -0.4277 -1.5192 0.3783
v  0.5947 -1.7600 -0.6370
v  0.5671 -1.7822 0.6535
v  -0.5669 -1.7596 -0.6619
v  -0.5946 -1.7817 0.6285
v  -0.5946 -1.2654 0.6374
v  -0.5877 -1.2598 0.3149
v  -0.5877 -0.4660 0.3284
v  -0.5846 -0.5604 0.1849
v  -0.5794 -0.6078 -0.0612
v  -0.5741 -0.5520 -0.3055
v  -0.5697 -0.4064 -0.5096
v  -0.5669 -0.2170 -0.6355
v  -0.5554 -0.4660 0.3291
v  -0.5524 -0.5604 0.1856
v  -0.5471 -0.6078 -0.0605
v  -0.5418 -0.5520 -0.3048
v  -0.5374 -0.4064 -0.5089
v  -0.5346 -0.2171 -0.6348
v  -0.5471 -0.1560 -0.0528
v  -0.1779 -0.1562 -0.0449
v  -0.1763 -0.1402 -0.1187
v  -0.5455 -0.1400 -0.1267
v  -0.1750 -0.0971 -0.1808
v  -0.5441 -0.0970 -0.1887
v  -0.1741 -0.0336 -0.2217
v  -0.5432 -0.0334 -0.2296
v  -0.1738 0.0408 -0.2351
v  -0.5429 0.0409 -0.2430
v  -0.1741 0.1146 -0.2192
v  -0.5432 0.1148 -0.2271
v  -0.1750 0.1767 -0.1761
v  -0.5441 0.1769 -0.1840
v  -0.1763 0.2176 -0.1126
v  -0.5455 0.2178 -0.1205
v  -0.1779 0.2311 -0.0382
v  -0.5471 0.2312 -0.0461
v  -0.1795 0.2151 0.0355
v  -0.5487 0.2152 0.0276
v  -0.1809 0.1720 0.0977
v  -0.5500 0.1722 0.0897
v  -0.1818 0.1085 0.1385
v  -0.5509 0.1086 0.1306
v  -0.1821 0.0341 0.1520
v  -0.5512 0.0343 0.1441
v  -0.1818 -0.0397 0.1359
v  -0.5509 -0.0396 0.1280
v  -0.1809 -0.1018 0.0930
v  -0.5500 -0.1017 0.0851
v  -0.1795 -0.1427 0.0294
v  -0.5487 -0.1426 0.0214
v  -0.5346 0.0476 -0.6302
v  -0.5356 0.2675 -0.5800
v  -0.5384 0.4512 -0.4491
v  -0.5423 0.5758 -0.2610
v  -0.5471 0.6185 -0.0395
v  -0.5518 0.5682 0.1804
v  -0.5558 0.4372 0.3640
v  -0.5585 0.2492 0.4886
v  -0.5595 0.0276 0.5313
v  -0.5585 -0.1923 0.4809
v  -0.5554 -0.4041 0.3302
v  0.2461 0.3925 0.1218
v  0.2493 0.4246 -0.0258
v  0.2493 0.0373 -0.0324
v  0.2434 0.3064 0.2461
v  0.2416 0.1794 0.3277
v  0.2410 0.0307 0.3548
v  -0.1779 0.4247 -0.0349
v  -0.1811 0.3927 0.1127
v  -0.1838 0.3066 0.2368
v  -0.1856 0.1795 0.3187
v  -0.1862 0.0308 0.3456
v  -0.1710 0.4302 -0.3577
v  0.2562 0.4301 -0.3485
v  -0.1856 -0.1171 0.3133
v  0.2416 -0.1044 0.3252
v  0.2352 -0.1134 0.3230
v  0.1111 -0.1963 0.2648
v  -0.0369 -0.2256 0.2411
v  -0.1845 -0.1969 0.2584
v  0.2562 -0.0927 -0.3575
v  -0.1821 -0.1595 0.1486
v  -0.1738 -0.1528 -0.2385
v  -0.1738 0.2344 -0.2318
v  -0.1710 -0.1861 -0.3681
v  0.3633 0.1719 -0.3505
v  0.3339 0.0237 -0.3537
v  0.2499 0.4457 -0.3483
v  0.3339 0.3201 -0.3486
v  -0.0239 0.5593 -0.3522
v  0.1243 0.5298 -0.3496
v  0.1581 0.5072 -0.3493
v  -0.1721 0.5299 -0.3559
v  -0.3816 0.3204 -0.3639
v  -0.2058 0.5073 -0.3571
v  -0.3816 0.0240 -0.3690
v  -0.4111 0.1722 -0.3672
v  -0.2977 -0.1017 -0.3695
v  0.1298 -0.1814 -0.6199
v  -0.0184 -0.2108 -0.6237
v  0.2555 -0.0975 -0.6158
v  0.3394 0.0281 -0.6119
v  0.3432 0.0472 -0.6115
v  0.3683 0.1758 -0.5816
v  0.3496 0.2672 -0.5610
v  0.3376 0.3231 -0.5214
v  0.2518 0.4472 -0.4347
v  0.2462 0.4509 -0.4322
v  0.1236 0.5292 -0.3167
v  -0.0255 0.5580 -0.2765
v  -0.1728 0.5293 -0.3230
v  -0.2977 0.4459 -0.3600
v  -0.2958 0.4474 -0.4464
v  -0.2903 0.4511 -0.4437
v  -0.3779 0.3233 -0.5367
v  -0.3883 0.2674 -0.5768
v  -0.4061 0.1761 -0.5982
v  -0.3799 0.0475 -0.6270
v  -0.3761 0.0284 -0.6271
v  -0.2921 -0.0973 -0.6276
v  -0.1665 -0.1813 -0.6263
v  0.4922 0.5754 -0.2388
v  0.5013 0.4508 -0.4268
v  0.4855 0.6181 -0.0174
v  0.4827 0.5678 0.2025
v  0.4839 0.4369 0.3862
v  0.5118 0.2671 -0.5575
v  0.5212 0.0472 -0.6076
v  -0.4056 -1.5015 -0.6540
v  0.3689 -1.5018 -0.6374
v  0.3689 -0.7273 -0.6241
v  -0.4056 -0.7270 -0.6407
v  0.5534 -1.2603 0.3392
v  0.5464 -1.2658 0.6619
v  0.5185 -0.4044 0.3532
v  0.5087 0.0372 -0.0269
v  0.4889 0.2488 0.5110
v  0.4963 0.0272 0.5538
v  0.5063 -0.1927 0.5038
v  0.5211 -0.4664 0.3521
# 188 vertices

vn 0.5305 0.0505 -0.8462
vn 0.8147 -0.0627 0.5765
vn 0.7724 0.2532 0.5825
vn 0.7581 0.3790 -0.5307
vn 0.6059 0.5301 0.5932
vn 0.5550 0.6307 -0.5424
vn 0.3538 0.7328 0.5812
vn 0.2771 0.7936 -0.5417
vn 0.0251 0.5775 0.8160
vn -0.0127 0.5219 -0.8529
vn -0.2787 0.7728 0.5701
vn -0.3522 0.7547 -0.5535
vn -0.5559 0.6064 0.5685
vn -0.6064 0.5559 -0.5685
vn -0.7600 0.3547 0.5447
vn -0.7673 0.2767 -0.5786
vn -0.8373 0.0381 0.5455
vn -0.4919 -0.0252 -0.8703
vn -0.7936 -0.2771 0.5417
vn -0.7328 -0.3538 -0.5812
vn -0.6350 -0.5588 0.5334
vn -0.5341 -0.6104 -0.5850
vn -0.3765 -0.7530 0.5397
vn -0.2532 -0.7724 -0.5825
vn -0.0509 -0.5213 0.8519
vn 0.0504 -0.4914 -0.8695
vn 0.2519 -0.7934 0.5541
vn 0.3783 -0.7314 -0.5674
vn 0.5334 -0.6350 0.5588
vn 0.6350 -0.5334 -0.5588
vn 0.7314 -0.3783 0.5674
vn 0.7989 -0.2536 -0.5453
vn 0.4920 -0.0126 0.8705
vn -0.4673 -0.0126 0.8840
vn -0.0253 -0.0127 0.9996
vn 0.2135 -0.7032 0.6781
vn -0.5415 -0.8059 0.2393
vn -0.3527 -0.6803 0.6425
vn 0.6526 -0.3389 0.6777
vn 0.3529 -0.6553 -0.6679
vn -0.8075 -0.3911 -0.4416
vn -0.8684 -0.2014 -0.4531
vn 0.8740 -0.4370 -0.2123
vn -0.5255 -0.8007 -0.2877
vn -0.3164 -0.6580 -0.6833
vn 0.6447 -0.6321 -0.4298
vn 0.5898 -0.5647 -0.5773
vn 0.3898 -0.5281 -0.7544
vn 0.4777 -0.7291 0.4902
vn -0.8083 -0.3410 -0.4799
vn -0.3037 -0.9112 0.2784
vn -0.6833 0.3164 0.6580
vn -0.7437 0.4664 0.4790
vn -0.7369 0.5995 0.3123
vn -0.7077 0.6319 -0.3159
vn -0.5594 0.8264 -0.0636
vn -0.5646 0.7779 0.2760
vn -0.5685 0.6064 0.5559
vn -0.4796 0.5679 -0.6689
vn -0.8531 0.4642 0.2384
vn -0.7111 0.6603 -0.2413
vn -0.7187 0.6935 0.0504
vn -0.7140 0.6263 0.3131
vn -0.7224 0.4562 0.5196
vn -0.4022 0.1383 -0.9050
vn -0.7128 0.7003 0.0375
vn 0.8059 0.5919 -0.0126
vn 0.5540 0.7806 0.2896
vn -0.7167 0.6287 0.3018
vn 0.5559 0.6064 0.5685
vn -0.8157 0.3765 0.4392
vn 0.5447 0.3547 0.7600
vn -0.7334 0.2150 0.6449
vn 0.7952 0.0252 0.6059
vn -0.7304 -0.0630 0.6801
vn 0.5417 -0.2771 0.7936
vn -0.7227 -0.3240 0.6105
vn 0.5467 -0.5594 0.6230
vn -0.7208 -0.5437 0.4299
vn 0.5510 -0.7514 0.3632
vn -0.7173 -0.6670 0.2014
vn 0.7062 -0.7062 0.0504
vn -0.7051 -0.7051 -0.0755
vn 0.7135 -0.6634 -0.2253
vn -0.7019 -0.6267 -0.3384
vn 0.7224 -0.5196 -0.4562
vn -0.7018 -0.4511 -0.5514
vn 0.7284 -0.3014 -0.6153
vn -0.6968 -0.2154 -0.6841
vn 0.8160 -0.0251 -0.5775
vn -0.6930 0.0630 -0.7182
vn 0.5786 0.2767 -0.7673
vn -0.6993 0.3247 -0.6369
vn 0.5813 0.5561 -0.5940
vn -0.7025 0.5394 -0.4642
vn 0.5699 0.7472 -0.3419
vn -0.7073 0.6694 -0.2273
vn -0.1764 0.0504 -0.9830
vn -0.5031 0.3144 -0.8050
vn -0.5036 0.5917 -0.6295
vn -0.4394 0.8035 -0.4017
vn -0.3266 0.9421 0.0754
vn -0.8517 0.2034 0.4830
vn -0.2663 -0.0127 0.9638
vn -0.7282 -0.3264 0.6026
vn -0.8539 -0.1758 0.4898
vn -0.5540 -0.7806 -0.2896
vn -0.5531 -0.8297 -0.0754
vn -0.9997 0.0000 -0.0253
vn -0.5559 -0.6064 -0.5685
vn -0.5447 -0.3547 -0.7600
vn -0.4421 0.0126 -0.8969
vn 0.8037 -0.5902 -0.0753
vn 0.7167 -0.6287 -0.3018
vn 0.7176 -0.4532 -0.5288
vn 0.7334 -0.2150 -0.6449
vn 0.8472 0.0126 -0.5311
vn 0.4581 -0.2036 -0.8653
vn -0.2142 -0.1134 -0.9702
vn 0.3918 0.3286 -0.8594
vn -0.8103 0.3615 -0.4612
vn -0.4247 0.6996 -0.5746
vn -0.2395 0.8445 -0.4790
vn 0.0000 0.9864 -0.1644
vn 0.6426 0.6174 -0.4536
vn -0.9117 0.3419 -0.2279
vn 0.9997 0.0000 0.0253
vn 0.7756 0.6230 -0.1017
vn -0.8157 -0.0376 -0.5773
vn -0.8442 0.2646 -0.4662
vn -0.8209 -0.3284 -0.4673
vn -0.0252 0.7069 -0.7069
vn 0.0126 0.5692 -0.8221
vn -0.2532 0.6583 -0.7089
vn 0.6841 -0.2154 -0.6968
vn 0.0254 0.4823 -0.8757
vn 0.8621 0.2662 -0.4311
vn 0.8373 -0.0381 -0.5455
vn 0.6350 0.5588 -0.5334
vn -0.2519 0.7934 -0.5541
vn 0.0504 0.6053 -0.7944
vn -0.6099 0.5972 -0.5210
vn -0.7314 0.3783 -0.5674
vn -0.6694 0.2273 -0.7073
vn -0.6799 0.2015 -0.7051
vn -0.8399 0.0627 -0.5391
vn -0.7162 0.1633 -0.6785
vn -0.6536 -0.0628 -0.7542
vn -0.6062 -0.1389 -0.7831
vn 0.2143 0.9328 -0.2899
vn 0.0378 0.9564 -0.2895
vn -0.2025 0.9493 -0.2405
vn 0.6928 -0.6802 -0.2393
vn 0.6578 -0.1012 -0.7464
vn 0.6339 -0.1395 -0.7607
vn 0.7381 0.1251 -0.6630
vn 0.8602 0.0633 -0.5060
vn 0.8305 0.1762 -0.5285
vn 0.5519 0.2258 -0.8028
vn 0.2280 0.5194 -0.8235
vn 0.3765 0.8157 -0.4392
vn 0.4633 0.6512 -0.6011
vn 0.5543 0.8315 -0.0378
vn 0.5397 0.7908 0.2887
vn 0.5428 0.6186 0.5681
vn 0.3933 0.4313 -0.8119
vn 0.5144 0.0878 -0.8531
vn 0.0253 0.0127 -0.9996
vn 0.9279 0.2759 0.2508
vn 0.3933 0.8119 0.4313
vn 0.6024 -0.2259 0.7656
vn 0.9990 0.0379 0.0253
vn 0.4330 0.3566 0.8278
vn 0.6943 0.0126 0.7196
vn 0.5435 -0.2654 0.7963
# 175 vertex normals

vt 0.0000 0.0000 0.0000
# 1 texture coords

o piernaIzqHomero
g piernaIzqHomero
usemtl Material__68
s 1
f 1/1/1 2/1/2 3/1/3 
f 3/1/3 4/1/4 1/1/1 
f 4/1/4 3/1/3 5/1/5 
f 5/1/5 6/1/6 4/1/4 
f 6/1/6 5/1/5 7/1/7 
f 7/1/7 8/1/8 6/1/6 
f 8/1/8 7/1/7 9/1/9 
f 9/1/9 10/1/10 8/1/8 
f 10/1/10 9/1/9 11/1/11 
f 11/1/11 12/1/12 10/1/10 
f 12/1/12 11/1/11 13/1/13 
f 13/1/13 14/1/14 12/1/12 
f 14/1/14 13/1/13 15/1/15 
f 15/1/15 16/1/16 14/1/14 
f 16/1/16 15/1/15 17/1/17 
f 17/1/17 18/1/18 16/1/16 
f 18/1/18 17/1/17 19/1/19 
f 19/1/19 20/1/20 18/1/18 
f 20/1/20 19/1/19 21/1/21 
f 21/1/21 22/1/22 20/1/20 
f 22/1/22 21/1/21 23/1/23 
f 23/1/23 24/1/24 22/1/22 
f 24/1/24 23/1/23 25/1/25 
f 25/1/25 26/1/26 24/1/24 
f 26/1/26 25/1/25 27/1/27 
f 27/1/27 28/1/28 26/1/26 
f 28/1/28 27/1/27 29/1/29 
f 29/1/29 30/1/30 28/1/28 
f 30/1/30 29/1/29 31/1/31 
f 31/1/31 32/1/32 30/1/30 
f 32/1/32 31/1/31 2/1/2 
f 2/1/2 1/1/1 32/1/32 
f 3/1/3 2/1/2 33/1/33 
f 5/1/5 3/1/3 33/1/33 
f 7/1/7 5/1/5 33/1/33 
f 9/1/9 7/1/7 33/1/33 
f 11/1/11 9/1/9 34/1/34 
f 13/1/13 11/1/11 34/1/34 
f 15/1/15 13/1/13 34/1/34 
f 17/1/17 15/1/15 34/1/34 
f 19/1/19 17/1/17 35/1/35 
f 21/1/21 19/1/19 35/1/35 
f 23/1/23 21/1/21 35/1/35 
f 25/1/25 23/1/23 35/1/35 
f 27/1/27 25/1/25 36/1/35 
f 29/1/29 27/1/27 36/1/35 
f 31/1/31 29/1/29 36/1/35 
f 2/1/2 31/1/31 36/1/35 
f 34/1/34 9/1/9 37/1/36 
f 37/1/36 38/1/37 34/1/34 
f 37/1/36 9/1/9 33/1/33 
f 39/1/38 40/1/39 25/1/25 
f 25/1/25 35/1/35 39/1/38 
f 36/1/35 25/1/25 40/1/39 
f 41/1/40 42/1/41 43/1/42 
f 43/1/42 44/1/43 41/1/40 
f 39/1/38 42/1/41 41/1/40 
f 41/1/40 40/1/39 39/1/38 
f 40/1/39 41/1/40 44/1/43 
f 44/1/43 33/1/33 40/1/39 
f 34/1/34 43/1/42 42/1/41 
f 42/1/41 39/1/38 34/1/34 
f 38/1/37 45/1/44 43/1/42 
f 43/1/42 34/1/34 38/1/37 
f 45/1/44 46/1/45 43/1/42 
f 33/1/33 44/1/43 47/1/46 
f 47/1/46 37/1/36 33/1/33 
f 44/1/43 48/1/47 47/1/46 
f 47/1/46 48/1/47 46/1/45 
f 46/1/45 45/1/44 47/1/46 
f 44/1/43 43/1/42 46/1/45 
f 46/1/45 48/1/47 44/1/43 
f 49/1/48 50/1/49 45/1/44 
f 45/1/44 38/1/37 49/1/48 
f 51/1/50 49/1/48 38/1/37 
f 38/1/37 37/1/36 51/1/50 
f 52/1/51 51/1/50 37/1/36 
f 37/1/36 47/1/46 52/1/51 
f 50/1/49 52/1/51 47/1/46 
f 47/1/46 45/1/44 50/1/49 
f 51/1/50 52/1/51 53/1/52 
f 53/1/52 54/1/53 51/1/50 
f 55/1/54 56/1/55 54/1/53 
f 51/1/50 54/1/53 56/1/55 
f 56/1/55 57/1/56 51/1/50 
f 57/1/56 58/1/57 51/1/50 
f 58/1/57 59/1/58 51/1/50 
f 59/1/58 60/1/59 51/1/50 
f 56/1/55 55/1/54 61/1/60 
f 61/1/60 62/1/61 56/1/55 
f 57/1/56 56/1/55 62/1/61 
f 62/1/61 63/1/62 57/1/56 
f 58/1/57 57/1/56 63/1/62 
f 63/1/62 64/1/63 58/1/57 
f 59/1/58 58/1/57 64/1/63 
f 64/1/63 65/1/64 59/1/58 
f 60/1/59 59/1/58 65/1/64 
f 65/1/64 66/1/65 60/1/59 
f 67/1/66 68/1/67 69/1/68 
f 69/1/68 70/1/69 67/1/66 
f 70/1/69 69/1/68 71/1/70 
f 71/1/70 72/1/71 70/1/69 
f 72/1/71 71/1/70 73/1/72 
f 73/1/72 74/1/73 72/1/71 
f 74/1/73 73/1/72 75/1/74 
f 75/1/74 76/1/75 74/1/73 
f 76/1/75 75/1/74 77/1/76 
f 77/1/76 78/1/77 76/1/75 
f 78/1/77 77/1/76 79/1/78 
f 79/1/78 80/1/79 78/1/77 
f 80/1/79 79/1/78 81/1/80 
f 81/1/80 82/1/81 80/1/79 
f 82/1/81 81/1/80 83/1/82 
f 83/1/82 84/1/83 82/1/81 
f 84/1/83 83/1/82 85/1/84 
f 85/1/84 86/1/85 84/1/83 
f 86/1/85 85/1/84 87/1/86 
f 87/1/86 88/1/87 86/1/85 
f 88/1/87 87/1/86 89/1/88 
f 89/1/88 90/1/89 88/1/87 
f 90/1/89 89/1/88 91/1/90 
f 91/1/90 92/1/91 90/1/89 
f 92/1/91 91/1/90 93/1/92 
f 93/1/92 94/1/93 92/1/91 
f 94/1/93 93/1/92 95/1/94 
f 95/1/94 96/1/95 94/1/93 
f 96/1/95 95/1/94 97/1/96 
f 97/1/96 98/1/97 96/1/95 
f 98/1/97 97/1/96 68/1/67 
f 68/1/67 67/1/66 98/1/97 
f 72/1/71 74/1/73 99/1/98 
f 99/1/98 66/1/65 72/1/71 
f 74/1/73 76/1/75 100/1/99 
f 100/1/99 99/1/98 74/1/73 
f 76/1/75 78/1/77 101/1/100 
f 101/1/100 100/1/99 76/1/75 
f 78/1/77 80/1/79 102/1/101 
f 102/1/101 101/1/100 78/1/77 
f 80/1/79 82/1/81 103/1/102 
f 103/1/102 102/1/101 80/1/79 
f 82/1/81 84/1/83 104/1/63 
f 104/1/63 103/1/102 82/1/81 
f 84/1/83 86/1/85 105/1/64 
f 105/1/64 104/1/63 84/1/83 
f 86/1/85 88/1/87 106/1/103 
f 106/1/103 105/1/64 86/1/85 
f 88/1/87 90/1/89 107/1/104 
f 107/1/104 106/1/103 88/1/87 
f 90/1/89 92/1/91 108/1/105 
f 108/1/105 107/1/104 90/1/89 
f 92/1/91 94/1/93 109/1/106 
f 109/1/106 108/1/105 92/1/91 
f 94/1/93 96/1/95 61/1/60 
f 61/1/60 109/1/106 94/1/93 
f 96/1/95 98/1/97 62/1/61 
f 62/1/61 61/1/60 96/1/95 
f 98/1/97 67/1/66 63/1/62 
f 63/1/62 62/1/61 98/1/97 
f 67/1/66 70/1/69 64/1/63 
f 64/1/63 63/1/62 67/1/66 
f 70/1/69 72/1/71 65/1/64 
f 65/1/64 64/1/63 70/1/69 
f 65/1/64 72/1/71 66/1/65 
f 110/1/107 111/1/108 112/1/109 
f 113/1/110 110/1/107 112/1/109 
f 114/1/111 113/1/110 112/1/109 
f 115/1/112 114/1/111 112/1/109 
f 116/1/113 111/1/108 110/1/107 
f 110/1/107 117/1/114 116/1/113 
f 117/1/114 110/1/107 113/1/110 
f 113/1/110 118/1/115 117/1/114 
f 118/1/115 113/1/110 114/1/111 
f 114/1/111 119/1/116 118/1/115 
f 119/1/116 114/1/111 115/1/112 
f 115/1/112 120/1/117 119/1/116 
f 121/1/118 122/1/119 111/1/108 
f 111/1/108 116/1/113 121/1/118 
f 123/1/120 120/1/117 115/1/112 
f 115/1/112 124/1/121 123/1/120 
f 124/1/121 125/1/122 123/1/120 
f 123/1/120 125/1/122 126/1/123 
f 126/1/123 127/1/124 128/1/125 
f 128/1/125 123/1/120 126/1/123 
f 122/1/119 129/1/126 112/1/109 
f 112/1/109 111/1/108 122/1/119 
f 124/1/121 115/1/112 112/1/109 
f 112/1/109 129/1/126 124/1/121 
f 85/1/84 83/1/82 116/1/113 
f 116/1/113 117/1/114 85/1/84 
f 87/1/86 85/1/84 117/1/114 
f 117/1/114 118/1/115 87/1/86 
f 89/1/88 87/1/86 118/1/115 
f 118/1/115 119/1/116 89/1/88 
f 91/1/90 89/1/88 119/1/116 
f 119/1/116 120/1/117 91/1/90 
f 93/1/92 91/1/90 130/1/127 
f 95/1/94 93/1/92 130/1/127 
f 97/1/96 95/1/94 130/1/127 
f 68/1/67 97/1/96 130/1/127 
f 69/1/68 68/1/67 131/1/127 
f 71/1/70 69/1/68 131/1/127 
f 73/1/72 71/1/70 131/1/127 
f 75/1/74 73/1/72 131/1/127 
f 77/1/76 75/1/74 132/1/127 
f 79/1/78 77/1/76 132/1/127 
f 81/1/80 79/1/78 132/1/127 
f 83/1/82 81/1/80 132/1/127 
f 132/1/127 121/1/118 116/1/113 
f 116/1/113 83/1/82 132/1/127 
f 121/1/118 75/1/74 131/1/127 
f 131/1/127 133/1/128 121/1/118 
f 133/1/128 68/1/67 130/1/127 
f 130/1/127 128/1/125 133/1/128 
f 130/1/127 91/1/90 120/1/117 
f 120/1/117 123/1/120 130/1/127 
f 128/1/125 130/1/127 123/1/120 
f 122/1/119 134/1/129 135/1/130 
f 135/1/130 129/1/126 122/1/119 
f 122/1/119 136/1/22 137/1/131 
f 137/1/131 134/1/129 122/1/119 
f 122/1/119 138/1/132 139/1/8 
f 139/1/8 140/1/133 122/1/119 
f 121/1/118 141/1/134 138/1/132 
f 138/1/132 122/1/119 121/1/118 
f 121/1/118 142/1/135 143/1/136 
f 143/1/136 141/1/134 121/1/118 
f 121/1/118 144/1/137 145/1/138 
f 145/1/138 142/1/135 121/1/118 
f 121/1/118 133/1/128 146/1/139 
f 146/1/139 144/1/137 121/1/118 
f 127/1/124 126/1/123 147/1/140 
f 147/1/140 148/1/141 127/1/124 
f 126/1/123 125/1/122 149/1/142 
f 149/1/142 147/1/140 126/1/123 
f 124/1/121 129/1/126 149/1/142 
f 149/1/142 125/1/122 124/1/121 
f 150/1/143 149/1/142 129/1/126 
f 129/1/126 135/1/130 150/1/143 
f 151/1/144 150/1/143 135/1/130 
f 135/1/130 134/1/129 152/1/145 
f 152/1/145 151/1/144 135/1/130 
f 134/1/129 137/1/131 153/1/146 
f 153/1/146 152/1/145 134/1/129 
f 154/1/147 153/1/146 137/1/131 
f 137/1/131 136/1/22 155/1/148 
f 155/1/148 154/1/147 137/1/131 
f 136/1/22 140/1/133 156/1/149 
f 156/1/149 155/1/148 136/1/22 
f 157/1/150 140/1/133 139/1/8 
f 158/1/151 157/1/150 139/1/8 
f 139/1/8 138/1/132 158/1/151 
f 159/1/152 158/1/151 138/1/132 
f 138/1/132 141/1/134 159/1/152 
f 143/1/136 159/1/152 141/1/134 
f 160/1/153 161/1/154 162/1/155 
f 162/1/155 143/1/136 160/1/153 
f 160/1/153 142/1/135 163/1/156 
f 163/1/156 161/1/154 160/1/153 
f 142/1/135 145/1/138 164/1/157 
f 164/1/157 163/1/156 142/1/135 
f 165/1/158 164/1/157 145/1/138 
f 144/1/137 166/1/159 165/1/158 
f 165/1/158 145/1/138 144/1/137 
f 167/1/4 166/1/159 144/1/137 
f 146/1/139 168/1/6 167/1/4 
f 167/1/4 144/1/137 146/1/139 
f 133/1/128 169/1/160 168/1/6 
f 168/1/6 146/1/139 133/1/128 
f 169/1/160 133/1/128 148/1/141 
f 127/1/124 148/1/141 133/1/128 
f 133/1/128 128/1/125 127/1/124 
f 158/1/151 102/1/101 170/1/161 
f 170/1/161 157/1/150 158/1/151 
f 102/1/101 158/1/151 159/1/152 
f 102/1/101 159/1/152 143/1/136 
f 170/1/161 140/1/133 157/1/150 
f 140/1/133 170/1/161 171/1/162 
f 171/1/162 156/1/149 140/1/133 
f 101/1/100 102/1/101 143/1/136 
f 143/1/136 162/1/155 101/1/100 
f 172/1/163 170/1/161 102/1/101 
f 102/1/101 103/1/102 172/1/163 
f 173/1/164 172/1/163 103/1/102 
f 103/1/102 104/1/63 173/1/164 
f 174/1/165 173/1/164 104/1/63 
f 104/1/63 105/1/64 174/1/165 
f 152/1/145 175/1/166 176/1/167 
f 176/1/167 151/1/144 152/1/145 
f 153/1/146 175/1/166 152/1/145 
f 154/1/147 175/1/166 153/1/146 
f 155/1/148 171/1/162 175/1/166 
f 175/1/166 154/1/147 155/1/148 
f 156/1/149 171/1/162 155/1/148 
f 166/1/159 99/1/98 100/1/99 
f 100/1/99 165/1/158 166/1/159 
f 164/1/157 165/1/158 100/1/99 
f 163/1/156 164/1/157 100/1/99 
f 163/1/156 100/1/99 101/1/100 
f 101/1/100 161/1/154 163/1/156 
f 162/1/155 161/1/154 101/1/100 
f 177/1/168 1/1/1 4/1/4 
f 177/1/168 4/1/4 6/1/6 
f 177/1/168 6/1/6 8/1/8 
f 177/1/168 8/1/8 10/1/10 
f 178/1/168 10/1/10 12/1/12 
f 178/1/168 12/1/12 14/1/14 
f 178/1/168 14/1/14 16/1/16 
f 178/1/168 16/1/16 18/1/18 
f 179/1/168 18/1/18 20/1/20 
f 179/1/168 20/1/20 22/1/22 
f 179/1/168 22/1/22 24/1/24 
f 179/1/168 24/1/24 26/1/26 
f 180/1/168 26/1/26 28/1/28 
f 180/1/168 28/1/28 30/1/30 
f 180/1/168 30/1/30 32/1/32 
f 180/1/168 32/1/32 1/1/1 
f 148/1/141 26/1/26 66/1/65 
f 66/1/65 169/1/160 148/1/141 
f 169/1/160 66/1/65 99/1/98 
f 99/1/98 168/1/6 169/1/160 
f 167/1/4 168/1/6 99/1/98 
f 166/1/159 167/1/4 99/1/98 
f 176/1/167 150/1/143 151/1/144 
f 176/1/167 149/1/142 150/1/143 
f 149/1/142 176/1/167 179/1/168 
f 179/1/168 147/1/140 149/1/142 
f 179/1/168 26/1/26 148/1/141 
f 148/1/141 147/1/140 179/1/168 
f 49/1/48 51/1/50 10/1/10 
f 10/1/10 178/1/168 49/1/48 
f 10/1/10 51/1/50 177/1/168 
f 51/1/50 1/1/1 177/1/168 
f 1/1/1 51/1/50 60/1/59 
f 60/1/59 180/1/168 1/1/1 
f 180/1/168 60/1/59 66/1/65 
f 66/1/65 26/1/26 180/1/168 
f 176/1/167 49/1/48 18/1/18 
f 18/1/18 179/1/168 176/1/167 
f 18/1/18 49/1/48 178/1/168 
f 140/1/133 136/1/22 122/1/119 
f 160/1/153 143/1/136 142/1/135 
f 121/1/118 132/1/127 75/1/74 
f 133/1/128 131/1/127 68/1/67 
f 181/1/169 182/1/170 50/1/49 
f 50/1/49 49/1/48 181/1/169 
f 176/1/167 183/1/171 181/1/169 
f 181/1/169 49/1/48 176/1/167 
f 176/1/167 184/1/172 183/1/171 
f 175/1/166 171/1/162 184/1/172 
f 184/1/172 176/1/167 175/1/166 
f 170/1/161 172/1/163 184/1/172 
f 184/1/172 171/1/162 170/1/161 
f 173/1/164 174/1/165 184/1/172 
f 184/1/172 172/1/163 173/1/164 
f 185/1/173 186/1/174 184/1/172 
f 184/1/172 174/1/165 185/1/173 
f 187/1/175 183/1/171 184/1/172 
f 184/1/172 186/1/174 187/1/175 
f 182/1/170 181/1/169 54/1/53 
f 54/1/53 53/1/52 182/1/170 
f 50/1/49 182/1/170 53/1/52 
f 53/1/52 52/1/51 50/1/49 
f 54/1/53 181/1/169 188/1/35 
f 188/1/35 55/1/54 54/1/53 
f 61/1/60 188/1/35 183/1/171 
f 183/1/171 109/1/106 61/1/60 
f 183/1/171 187/1/175 108/1/105 
f 108/1/105 109/1/106 183/1/171 
f 187/1/175 186/1/174 107/1/104 
f 107/1/104 108/1/105 187/1/175 
f 107/1/104 186/1/174 185/1/173 
f 185/1/173 106/1/103 107/1/104 
f 185/1/173 174/1/165 105/1/64 
f 105/1/64 106/1/103 185/1/173 
# 374 faces

