# 3ds Max Wavefront OBJ Exporter v0.99 - (c)2007 guruware
# File Created: 11.05.2020 05:59:31

mtllib piernaDer.mtl

#
# object piernaDerHomero
#

v  4.6314 0.6592 -9.1288
v  4.6608 0.8074 -9.1282
v  4.6664 0.8074 -9.3864
v  4.6369 0.6592 -9.3870
v  4.5474 0.5336 -9.1306
v  4.5530 0.5335 -9.3888
v  4.4218 0.4496 -9.1333
v  4.4273 0.4496 -9.3914
v  4.2736 0.4201 -9.1365
v  4.2792 0.4201 -9.3946
v  4.1254 0.4496 -9.1396
v  4.1310 0.4496 -9.3978
v  3.9998 0.5336 -9.1424
v  4.0054 0.5335 -9.4005
v  3.9159 0.6592 -9.1442
v  3.9214 0.6592 -9.4023
v  3.8864 0.8074 -9.1448
v  3.8920 0.8074 -9.4030
v  3.9159 0.9557 -9.1442
v  3.9214 0.9556 -9.4024
v  3.9998 1.0813 -9.1425
v  4.0054 1.0813 -9.4006
v  4.1254 1.1653 -9.1398
v  4.1310 1.1652 -9.3979
v  4.2736 1.1947 -9.1366
v  4.2792 1.1947 -9.3948
v  4.4218 1.1653 -9.1334
v  4.4273 1.1652 -9.3916
v  4.5474 1.0813 -9.1307
v  4.5530 1.0813 -9.3889
v  4.6314 0.9557 -9.1289
v  4.6369 0.9556 -9.3870
v  4.6608 0.4201 -9.1282
v  3.8864 0.4201 -9.1448
v  3.8864 1.1947 -9.1449
v  4.6608 1.1947 -9.1283
v  4.6608 0.1619 -9.1281
v  3.8864 0.1619 -9.1447
v  4.6608 1.4529 -9.1283
v  3.8864 1.4529 -9.1450
v  3.8753 0.4202 -8.6285
v  3.8753 1.4530 -8.6287
v  4.6498 1.4530 -8.6121
v  4.6498 0.4202 -8.6119
v  3.8698 0.1621 -8.3703
v  3.8698 0.4203 -8.3703
v  4.6442 0.1621 -8.3537
v  4.6442 0.4203 -8.3537
v  3.6384 0.1621 -8.1170
v  3.6661 0.1619 -9.4077
v  4.8277 0.1619 -9.3828
v  4.8000 0.1621 -8.0921
v  4.8000 0.6785 -8.0922
v  4.8070 0.6785 -8.4149
v  4.8100 1.3756 -8.5570
v  4.8070 1.4725 -8.4150
v  4.8153 1.3239 -8.8022
v  4.8205 1.3755 -9.0474
v  4.8250 1.5175 -9.2540
v  4.8277 1.7047 -9.3831
v  4.4154 1.7905 -8.8850
v  4.4139 1.7758 -8.8109
v  4.7830 1.7758 -8.8030
v  4.7846 1.7905 -8.8771
v  4.4168 1.8325 -8.9478
v  4.7859 1.8325 -8.9399
v  4.4177 1.8953 -8.9898
v  4.7868 1.8953 -8.9819
v  4.4180 1.9694 -9.0045
v  4.7872 1.9694 -8.9966
v  4.4177 2.0435 -8.9898
v  4.7868 2.0435 -8.9819
v  4.4168 2.1063 -8.9479
v  4.7859 2.1063 -8.9399
v  4.4154 2.1483 -8.8851
v  4.7846 2.1483 -8.8771
v  4.4139 2.1631 -8.8110
v  4.7830 2.1631 -8.8031
v  4.4123 2.1484 -8.7369
v  4.7814 2.1484 -8.7289
v  4.4109 2.1064 -8.6741
v  4.7801 2.1064 -8.6661
v  4.4100 2.0436 -8.6321
v  4.7792 2.0436 -8.6242
v  4.4097 1.9695 -8.6173
v  4.7788 1.9695 -8.6094
v  4.4100 1.8953 -8.6320
v  4.7792 1.8953 -8.6241
v  4.4109 1.8325 -8.6740
v  4.7801 1.8325 -8.6661
v  4.4123 1.7905 -8.7368
v  4.7814 1.7905 -8.7289
v  3.9866 1.9694 -8.8201
v  3.9866 2.3567 -8.8202
v  3.9835 2.3273 -8.6720
v  3.9807 2.2433 -8.5463
v  3.9789 2.1177 -8.4624
v  3.9783 1.9695 -8.4329
v  4.4139 2.3567 -8.8110
v  4.4107 2.3273 -8.6628
v  4.4080 2.2433 -8.5372
v  4.4062 2.1177 -8.4532
v  4.4055 1.9695 -8.4237
v  3.9935 2.3567 -9.1428
v  4.4208 2.3567 -9.1337
v  4.4062 1.8210 -8.4534
v  3.9789 1.8339 -8.4599
v  3.9854 1.8249 -8.4617
v  4.1118 1.7410 -8.5132
v  4.4073 1.7403 -8.5069
v  4.2606 1.7113 -8.5301
v  3.9935 1.8338 -9.1427
v  4.4097 1.7758 -8.6173
v  4.4180 1.7757 -9.0045
v  4.4180 2.1630 -9.0046
v  4.4208 1.7402 -9.1336
v  3.9159 1.9502 -9.1444
v  3.8864 2.0985 -9.1451
v  3.9159 2.2467 -9.1445
v  3.9998 2.3723 -9.1427
v  4.1254 2.4563 -9.1400
v  4.2736 2.4858 -9.1369
v  4.0917 2.4337 -9.1407
v  4.4218 2.4563 -9.1337
v  4.4556 2.4337 -9.1330
v  4.6314 2.2467 -9.1291
v  4.6608 2.0985 -9.1285
v  4.6314 1.9502 -9.1291
v  4.5474 1.8246 -9.1309
v  4.1310 1.7406 -9.3980
v  4.2792 1.7111 -9.3948
v  4.0054 1.8245 -9.4007
v  3.9214 1.9502 -9.4026
v  3.9176 1.9693 -9.4027
v  3.8914 2.0984 -9.3761
v  3.9092 2.1901 -9.3564
v  3.9196 2.2466 -9.3173
v  4.0017 2.3723 -9.2292
v  4.0072 2.3760 -9.2265
v  4.1247 2.4563 -9.1072
v  4.2720 2.4858 -9.0612
v  4.4211 2.4563 -9.1009
v  4.5437 2.3760 -9.2150
v  4.5493 2.3723 -9.2174
v  4.5474 2.3723 -9.1310
v  4.6351 2.2466 -9.3019
v  4.6472 2.1901 -9.3406
v  4.6658 2.0984 -9.3595
v  4.6407 1.9693 -9.3872
v  4.6369 1.9502 -9.3872
v  4.5530 1.8245 -9.3890
v  4.4273 1.7406 -9.3917
v  3.7532 2.5039 -9.0460
v  4.7877 2.5039 -9.0238
v  3.7520 2.3760 -9.2319
v  4.7917 2.3760 -9.2097
v  3.7504 2.5504 -8.8253
v  4.7830 2.5504 -8.8031
v  3.7438 2.5040 -8.6046
v  4.7783 2.5040 -8.5824
v  3.7346 2.3762 -8.4188
v  4.7743 2.3762 -8.3965
v  3.7396 1.9693 -9.4065
v  3.7470 2.1901 -9.3599
v  4.7944 2.1901 -9.3374
v  4.7954 1.9693 -9.3838
v  4.6664 0.4201 -9.3863
v  3.8919 0.4201 -9.4029
v  3.8920 1.1947 -9.4031
v  4.6664 1.1947 -9.3865
v  4.7954 1.7047 -9.3838
v  3.6590 0.6785 -8.1166
v  3.6659 0.6785 -8.4393
v  3.7008 1.5344 -8.4387
v  3.7272 1.9694 -8.8257
v  3.7147 1.9695 -8.2448
v  3.7241 2.1903 -8.2912
v  3.7067 1.7488 -8.2914
v  3.6982 1.4725 -8.4388
v  4.7747 1.5344 -8.4157
v  4.7747 1.4725 -8.4157
v  4.7715 1.7488 -8.2686
v  4.7705 1.9695 -8.2222
v  4.7716 2.1903 -8.2687
# 184 vertices

vn -0.7963 0.2654 0.5435
vn -0.8368 -0.0507 0.5452
vn -0.4917 0.0378 -0.8699
vn -0.7295 0.3648 -0.5786
vn -0.6351 0.5462 0.5462
vn -0.5338 0.6228 -0.5720
vn -0.3775 0.7423 0.5536
vn -0.2526 0.7831 -0.5683
vn -0.0503 0.5912 0.8050
vn 0.0506 0.5064 -0.8608
vn 0.2526 0.7831 0.5683
vn 0.3775 0.7423 -0.5536
vn 0.5338 0.6228 0.5720
vn 0.6351 0.5462 -0.5462
vn 0.7295 0.3648 0.5786
vn 0.7963 0.2654 -0.5435
vn 0.8152 0.0502 0.5769
vn 0.5308 -0.0379 -0.8467
vn 0.7699 -0.2650 0.5806
vn 0.7565 -0.3657 -0.5422
vn 0.6062 -0.5431 0.5810
vn 0.5555 -0.6187 -0.5555
vn 0.3530 -0.7439 0.5674
vn 0.2780 -0.7834 -0.5559
vn 0.0127 -0.5070 0.8619
vn -0.0127 -0.5070 -0.8619
vn -0.2780 -0.7834 0.5559
vn -0.3530 -0.7439 -0.5674
vn -0.5555 -0.6187 0.5555
vn -0.6062 -0.5431 -0.5810
vn -0.7565 -0.3657 0.5422
vn -0.7699 -0.2650 -0.5806
vn -0.5311 0.0000 0.8473
vn 0.4270 0.0000 0.9042
vn -0.0253 0.0000 0.9997
vn -0.2393 -0.6928 0.6802
vn 0.5273 -0.8035 0.2762
vn -0.6806 -0.3277 0.6553
vn 0.3164 -0.6708 0.6708
vn 0.8835 -0.2146 -0.4165
vn 0.8248 -0.4061 -0.3934
vn -0.3164 -0.6708 -0.6708
vn -0.8661 -0.4393 -0.2385
vn 0.5398 -0.8035 -0.2511
vn 0.3529 -0.6679 -0.6553
vn -0.6286 -0.6412 -0.4401
vn -0.5647 -0.5773 -0.5898
vn -0.5523 -0.7908 0.2636
vn -0.3547 -0.5447 -0.7600
vn 0.8232 -0.3546 -0.4433
vn 0.2511 -0.8035 0.5398
vn 0.6553 0.6679 0.3529
vn 0.8987 0.3038 0.3164
vn 0.9997 0.0000 0.0253
vn 0.3387 0.0000 -0.9409
vn -0.5683 0.7831 0.2526
vn -0.8050 0.5912 -0.0503
vn 0.0000 0.9980 0.0632
vn -0.0126 0.8969 0.4421
vn -0.5720 0.6228 0.5338
vn -0.0126 0.6549 0.7556
vn -0.5786 0.3648 0.7295
vn -0.0253 0.3161 0.9484
vn -0.8157 0.0376 0.5773
vn -0.0253 -0.0631 0.9977
vn -0.5806 -0.2650 0.7699
vn -0.0253 -0.4420 0.8967
vn -0.5810 -0.5431 0.6062
vn -0.0126 -0.7556 0.6549
vn -0.5674 -0.7439 0.3530
vn -0.0126 -0.9486 0.3162
vn -0.7131 -0.7006 0.0250
vn 0.0000 -0.9980 -0.0632
vn -0.7052 -0.6674 -0.2393
vn 0.0126 -0.8969 -0.4421
vn -0.7031 -0.5273 -0.4771
vn 0.0126 -0.6549 -0.7556
vn -0.7021 -0.3134 -0.6394
vn 0.0253 -0.3161 -0.9484
vn -0.7949 -0.0379 -0.6056
vn 0.0253 0.0631 -0.9977
vn -0.5435 0.2654 -0.7963
vn 0.0253 0.4420 -0.8967
vn -0.5462 0.5462 -0.6351
vn 0.0126 0.7556 -0.6549
vn -0.5536 0.7423 -0.3775
vn 0.0126 0.9486 -0.3162
vn 0.5543 -0.8315 -0.0378
vn 0.5683 -0.7831 -0.2526
vn 0.5720 -0.6228 -0.5338
vn 0.5786 -0.3648 -0.7295
vn 0.4771 0.0000 -0.8789
vn -0.7974 -0.5949 -0.1013
vn -0.7049 -0.6293 -0.3273
vn -0.7025 -0.4642 -0.5394
vn -0.6949 -0.2274 -0.6822
vn -0.8222 0.0000 -0.5692
vn 0.2642 -0.1258 -0.9562
vn -0.4165 -0.2146 -0.8835
vn -0.3525 0.3147 -0.8813
vn 0.8318 0.3529 -0.4285
vn 0.4519 0.6904 -0.5649
vn 0.2658 0.8354 -0.4810
vn -0.6210 0.6083 -0.4943
vn 0.0000 0.9843 -0.1767
vn 0.9210 0.3406 -0.1892
vn -0.9997 0.0000 -0.0253
vn -0.7706 0.6190 -0.1516
vn 0.8650 0.2544 -0.4325
vn 0.8368 -0.0507 -0.5452
vn 0.8309 -0.3399 -0.4406
vn 0.0630 0.6930 -0.7182
vn 0.0126 0.5547 -0.8320
vn 0.2789 0.6466 -0.7100
vn 0.0253 0.4672 -0.8838
vn -0.6431 -0.2270 -0.7314
vn -0.8152 -0.0502 -0.5769
vn -0.8469 0.2528 -0.4677
vn -0.6062 0.5431 -0.5810
vn 0.2780 0.7834 -0.5559
vn -0.0252 0.5917 -0.8057
vn 0.6342 0.5834 -0.5073
vn 0.7565 0.3657 -0.5422
vn 0.7032 0.2135 -0.6781
vn 0.7068 0.1893 -0.6816
vn 0.8608 0.0506 -0.5064
vn 0.7477 0.1521 -0.6463
vn 0.6795 -0.0755 -0.7298
vn 0.6328 -0.1519 -0.7593
vn -0.2007 0.9281 -0.3136
vn -0.0251 0.9533 -0.3010
vn 0.2025 0.9493 -0.2405
vn -0.6051 -0.1513 -0.7816
vn -0.6222 -0.1143 -0.7745
vn -0.6818 -0.6818 -0.2651
vn -0.7088 0.1139 -0.6961
vn -0.8405 0.0502 -0.5394
vn -0.8070 0.1639 -0.5674
vn -0.5209 0.2160 -0.8258
vn -0.1888 0.5034 -0.8432
vn -0.3652 0.8059 -0.4659
vn 0.0126 0.8918 -0.4522
vn -0.4298 0.6447 -0.6321
vn 0.0126 0.6814 -0.7318
vn -0.5536 0.8304 -0.0629
vn 0.0000 0.9971 0.0757
vn -0.5541 0.7934 0.2519
vn -0.0126 0.8918 0.4522
vn -0.4636 0.6389 0.6139
vn -0.0126 0.7071 0.7071
vn -0.4810 0.0759 -0.8734
vn -0.3510 0.4137 -0.8400
vn 0.0253 0.3538 -0.9350
vn 0.0253 0.0379 -0.9990
vn 0.0253 0.0000 -0.9997
vn -0.4270 0.4144 0.8037
vn -0.8118 0.4371 0.3872
vn -0.8605 -0.1265 0.4935
vn -0.9990 0.0379 -0.0253
vn -0.4771 0.0126 0.8788
vn -0.7224 0.3042 0.6210
vn -0.5812 -0.3538 0.7328
vn -0.0251 -0.3010 0.9533
vn -0.0252 -0.3274 0.9445
vn -0.0252 0.3907 0.9202
# 165 vertex normals

vt 0.0000 0.0000 0.0000
# 1 texture coords

o piernaDerHomero
g piernaDerHomero
usemtl Material__68
s 1
f 1/1/1 2/1/2 3/1/3 
f 3/1/3 4/1/4 1/1/1 
f 5/1/5 1/1/1 4/1/4 
f 4/1/4 6/1/6 5/1/5 
f 7/1/7 5/1/5 6/1/6 
f 6/1/6 8/1/8 7/1/7 
f 9/1/9 7/1/7 8/1/8 
f 8/1/8 10/1/10 9/1/9 
f 11/1/11 9/1/9 10/1/10 
f 10/1/10 12/1/12 11/1/11 
f 13/1/13 11/1/11 12/1/12 
f 12/1/12 14/1/14 13/1/13 
f 15/1/15 13/1/13 14/1/14 
f 14/1/14 16/1/16 15/1/15 
f 17/1/17 15/1/15 16/1/16 
f 16/1/16 18/1/18 17/1/17 
f 19/1/19 17/1/17 18/1/18 
f 18/1/18 20/1/20 19/1/19 
f 21/1/21 19/1/19 20/1/20 
f 20/1/20 22/1/22 21/1/21 
f 23/1/23 21/1/21 22/1/22 
f 22/1/22 24/1/24 23/1/23 
f 25/1/25 23/1/23 24/1/24 
f 24/1/24 26/1/26 25/1/25 
f 27/1/27 25/1/25 26/1/26 
f 26/1/26 28/1/28 27/1/27 
f 29/1/29 27/1/27 28/1/28 
f 28/1/28 30/1/30 29/1/29 
f 31/1/31 29/1/29 30/1/30 
f 30/1/30 32/1/32 31/1/31 
f 2/1/2 31/1/31 32/1/32 
f 32/1/32 3/1/3 2/1/2 
f 33/1/33 2/1/2 1/1/1 
f 33/1/33 1/1/1 5/1/5 
f 33/1/33 5/1/5 7/1/7 
f 33/1/33 7/1/7 9/1/9 
f 34/1/34 9/1/9 11/1/11 
f 34/1/34 11/1/11 13/1/13 
f 34/1/34 13/1/13 15/1/15 
f 34/1/34 15/1/15 17/1/17 
f 35/1/35 17/1/17 19/1/19 
f 35/1/35 19/1/19 21/1/21 
f 35/1/35 21/1/21 23/1/23 
f 35/1/35 23/1/23 25/1/25 
f 36/1/35 25/1/25 27/1/27 
f 36/1/35 27/1/27 29/1/29 
f 36/1/35 29/1/29 31/1/31 
f 36/1/35 31/1/31 2/1/2 
f 37/1/36 9/1/9 34/1/34 
f 34/1/34 38/1/37 37/1/36 
f 33/1/33 9/1/9 37/1/36 
f 25/1/25 39/1/38 40/1/39 
f 40/1/39 35/1/35 25/1/25 
f 39/1/38 25/1/25 36/1/35 
f 41/1/40 42/1/41 43/1/42 
f 43/1/42 44/1/43 41/1/40 
f 43/1/42 42/1/41 40/1/39 
f 40/1/39 39/1/38 43/1/42 
f 44/1/43 43/1/42 39/1/38 
f 39/1/38 33/1/33 44/1/43 
f 42/1/41 41/1/40 34/1/34 
f 34/1/34 40/1/39 42/1/41 
f 41/1/40 45/1/44 38/1/37 
f 38/1/37 34/1/34 41/1/40 
f 41/1/40 46/1/45 45/1/44 
f 47/1/46 44/1/43 33/1/33 
f 33/1/33 37/1/36 47/1/46 
f 47/1/46 48/1/47 44/1/43 
f 46/1/45 48/1/47 47/1/46 
f 47/1/46 45/1/44 46/1/45 
f 46/1/45 41/1/40 44/1/43 
f 44/1/43 48/1/47 46/1/45 
f 45/1/44 49/1/48 50/1/49 
f 50/1/49 38/1/37 45/1/44 
f 38/1/37 50/1/49 51/1/50 
f 51/1/50 37/1/36 38/1/37 
f 37/1/36 51/1/50 52/1/51 
f 52/1/51 47/1/46 37/1/36 
f 47/1/46 52/1/51 49/1/48 
f 49/1/48 45/1/44 47/1/46 
f 53/1/52 52/1/51 51/1/50 
f 51/1/50 54/1/53 53/1/52 
f 54/1/53 55/1/54 56/1/34 
f 55/1/54 54/1/53 51/1/50 
f 51/1/50 57/1/54 55/1/54 
f 51/1/50 58/1/54 57/1/54 
f 51/1/50 59/1/54 58/1/54 
f 51/1/50 60/1/55 59/1/54 
f 61/1/56 62/1/57 63/1/58 
f 63/1/58 64/1/59 61/1/56 
f 65/1/60 61/1/56 64/1/59 
f 64/1/59 66/1/61 65/1/60 
f 67/1/62 65/1/60 66/1/61 
f 66/1/61 68/1/63 67/1/62 
f 69/1/64 67/1/62 68/1/63 
f 68/1/63 70/1/65 69/1/64 
f 71/1/66 69/1/64 70/1/65 
f 70/1/65 72/1/67 71/1/66 
f 73/1/68 71/1/66 72/1/67 
f 72/1/67 74/1/69 73/1/68 
f 75/1/70 73/1/68 74/1/69 
f 74/1/69 76/1/71 75/1/70 
f 77/1/72 75/1/70 76/1/71 
f 76/1/71 78/1/73 77/1/72 
f 79/1/74 77/1/72 78/1/73 
f 78/1/73 80/1/75 79/1/74 
f 81/1/76 79/1/74 80/1/75 
f 80/1/75 82/1/77 81/1/76 
f 83/1/78 81/1/76 82/1/77 
f 82/1/77 84/1/79 83/1/78 
f 85/1/80 83/1/78 84/1/79 
f 84/1/79 86/1/81 85/1/80 
f 87/1/82 85/1/80 86/1/81 
f 86/1/81 88/1/83 87/1/82 
f 89/1/84 87/1/82 88/1/83 
f 88/1/83 90/1/85 89/1/84 
f 91/1/86 89/1/84 90/1/85 
f 90/1/85 92/1/87 91/1/86 
f 62/1/57 91/1/86 92/1/87 
f 92/1/87 63/1/58 62/1/57 
f 93/1/54 94/1/88 95/1/89 
f 93/1/54 95/1/89 96/1/90 
f 93/1/54 96/1/90 97/1/91 
f 93/1/54 97/1/91 98/1/92 
f 95/1/89 94/1/88 99/1/93 
f 99/1/93 100/1/94 95/1/89 
f 96/1/90 95/1/89 100/1/94 
f 100/1/94 101/1/95 96/1/90 
f 97/1/91 96/1/90 101/1/95 
f 101/1/95 102/1/96 97/1/91 
f 98/1/92 97/1/91 102/1/96 
f 102/1/96 103/1/97 98/1/92 
f 94/1/88 104/1/98 105/1/99 
f 105/1/99 99/1/93 94/1/88 
f 98/1/92 103/1/97 106/1/100 
f 106/1/100 107/1/101 98/1/92 
f 106/1/100 108/1/102 107/1/101 
f 109/1/103 108/1/102 106/1/100 
f 110/1/104 111/1/105 109/1/103 
f 109/1/103 106/1/100 110/1/104 
f 93/1/54 112/1/106 104/1/98 
f 104/1/98 94/1/88 93/1/54 
f 93/1/54 98/1/92 107/1/101 
f 107/1/101 112/1/106 93/1/54 
f 99/1/93 77/1/72 79/1/74 
f 79/1/74 100/1/94 99/1/93 
f 100/1/94 79/1/74 81/1/76 
f 81/1/76 101/1/95 100/1/94 
f 101/1/95 81/1/76 83/1/78 
f 83/1/78 102/1/96 101/1/95 
f 102/1/96 83/1/78 85/1/80 
f 85/1/80 103/1/97 102/1/96 
f 113/1/107 85/1/80 87/1/82 
f 113/1/107 87/1/82 89/1/84 
f 113/1/107 89/1/84 91/1/86 
f 113/1/107 91/1/86 62/1/57 
f 114/1/107 62/1/57 61/1/56 
f 114/1/107 61/1/56 65/1/60 
f 114/1/107 65/1/60 67/1/62 
f 114/1/107 67/1/62 69/1/64 
f 115/1/107 69/1/64 71/1/66 
f 115/1/107 71/1/66 73/1/68 
f 115/1/107 73/1/68 75/1/70 
f 115/1/107 75/1/70 77/1/72 
f 99/1/93 105/1/99 115/1/107 
f 115/1/107 77/1/72 99/1/93 
f 114/1/107 69/1/64 105/1/99 
f 105/1/99 116/1/108 114/1/107 
f 113/1/107 62/1/57 116/1/108 
f 116/1/108 110/1/104 113/1/107 
f 103/1/97 85/1/80 113/1/107 
f 113/1/107 106/1/100 103/1/97 
f 106/1/100 113/1/107 110/1/104 
f 117/1/109 118/1/110 104/1/98 
f 104/1/98 112/1/106 117/1/109 
f 119/1/111 120/1/22 104/1/98 
f 104/1/98 118/1/110 119/1/111 
f 121/1/8 122/1/112 104/1/98 
f 104/1/98 123/1/113 121/1/8 
f 122/1/112 124/1/114 105/1/99 
f 105/1/99 104/1/98 122/1/112 
f 125/1/115 126/1/116 105/1/99 
f 105/1/99 124/1/114 125/1/115 
f 127/1/117 128/1/118 105/1/99 
f 105/1/99 126/1/116 127/1/117 
f 129/1/119 116/1/108 105/1/99 
f 105/1/99 128/1/118 129/1/119 
f 130/1/120 109/1/103 111/1/105 
f 111/1/105 131/1/121 130/1/120 
f 132/1/122 108/1/102 109/1/103 
f 109/1/103 130/1/120 132/1/122 
f 132/1/122 112/1/106 107/1/101 
f 107/1/101 108/1/102 132/1/122 
f 112/1/106 132/1/122 133/1/123 
f 133/1/123 117/1/109 112/1/106 
f 117/1/109 133/1/123 134/1/124 
f 135/1/125 118/1/110 117/1/109 
f 117/1/109 134/1/124 135/1/125 
f 136/1/126 119/1/111 118/1/110 
f 118/1/110 135/1/125 136/1/126 
f 119/1/111 136/1/126 137/1/127 
f 138/1/128 120/1/22 119/1/111 
f 119/1/111 137/1/127 138/1/128 
f 139/1/129 123/1/113 120/1/22 
f 120/1/22 138/1/128 139/1/129 
f 121/1/8 123/1/113 140/1/130 
f 121/1/8 140/1/130 141/1/131 
f 141/1/131 122/1/112 121/1/8 
f 122/1/112 141/1/131 142/1/132 
f 142/1/132 124/1/114 122/1/112 
f 124/1/114 142/1/132 125/1/115 
f 143/1/133 144/1/134 145/1/135 
f 145/1/135 125/1/115 143/1/133 
f 146/1/136 126/1/116 145/1/135 
f 145/1/135 144/1/134 146/1/136 
f 147/1/137 127/1/117 126/1/116 
f 126/1/116 146/1/136 147/1/137 
f 127/1/117 147/1/137 148/1/138 
f 148/1/138 149/1/139 128/1/118 
f 128/1/118 127/1/117 148/1/138 
f 128/1/118 149/1/139 150/1/4 
f 150/1/4 151/1/6 129/1/119 
f 129/1/119 128/1/118 150/1/4 
f 151/1/6 152/1/140 116/1/108 
f 116/1/108 129/1/119 151/1/6 
f 131/1/121 116/1/108 152/1/140 
f 116/1/108 131/1/121 111/1/105 
f 111/1/105 110/1/104 116/1/108 
f 153/1/141 154/1/142 141/1/131 
f 141/1/131 140/1/130 153/1/141 
f 142/1/132 141/1/131 154/1/142 
f 125/1/115 142/1/132 154/1/142 
f 140/1/130 123/1/113 153/1/141 
f 155/1/143 153/1/141 123/1/113 
f 123/1/113 139/1/129 155/1/143 
f 125/1/115 154/1/142 156/1/144 
f 156/1/144 143/1/133 125/1/115 
f 154/1/142 153/1/141 157/1/145 
f 157/1/145 158/1/146 154/1/142 
f 158/1/146 157/1/145 159/1/147 
f 159/1/147 160/1/148 158/1/146 
f 160/1/148 159/1/147 161/1/149 
f 161/1/149 162/1/150 160/1/148 
f 163/1/151 164/1/152 135/1/125 
f 135/1/125 134/1/124 163/1/151 
f 135/1/125 164/1/152 136/1/126 
f 136/1/126 164/1/152 137/1/127 
f 164/1/152 155/1/143 138/1/128 
f 138/1/128 137/1/127 164/1/152 
f 138/1/128 155/1/143 139/1/129 
f 165/1/153 166/1/154 149/1/139 
f 149/1/139 148/1/138 165/1/153 
f 165/1/153 148/1/138 147/1/137 
f 165/1/153 147/1/137 146/1/136 
f 156/1/144 165/1/153 146/1/136 
f 146/1/136 144/1/134 156/1/144 
f 156/1/144 144/1/134 143/1/133 
f 4/1/4 3/1/3 167/1/155 
f 6/1/6 4/1/4 167/1/155 
f 8/1/8 6/1/6 167/1/155 
f 10/1/10 8/1/8 167/1/155 
f 12/1/12 10/1/10 168/1/155 
f 14/1/14 12/1/12 168/1/155 
f 16/1/16 14/1/14 168/1/155 
f 18/1/18 16/1/16 168/1/155 
f 20/1/20 18/1/18 169/1/155 
f 22/1/22 20/1/20 169/1/155 
f 24/1/24 22/1/22 169/1/155 
f 26/1/26 24/1/24 169/1/155 
f 28/1/28 26/1/26 170/1/155 
f 30/1/30 28/1/28 170/1/155 
f 32/1/32 30/1/30 170/1/155 
f 3/1/3 32/1/32 170/1/155 
f 171/1/155 26/1/26 131/1/121 
f 131/1/121 152/1/140 171/1/155 
f 166/1/154 171/1/155 152/1/140 
f 152/1/140 151/1/6 166/1/154 
f 166/1/154 151/1/6 150/1/4 
f 166/1/154 150/1/4 149/1/139 
f 134/1/124 133/1/123 163/1/151 
f 133/1/123 132/1/122 163/1/151 
f 169/1/155 163/1/151 132/1/122 
f 132/1/122 130/1/120 169/1/155 
f 131/1/121 26/1/26 169/1/155 
f 169/1/155 130/1/120 131/1/121 
f 10/1/10 51/1/50 50/1/49 
f 50/1/49 168/1/155 10/1/10 
f 167/1/155 51/1/50 10/1/10 
f 167/1/155 3/1/3 51/1/50 
f 60/1/55 51/1/50 3/1/3 
f 3/1/3 170/1/155 60/1/55 
f 171/1/155 60/1/55 170/1/155 
f 170/1/155 26/1/26 171/1/155 
f 18/1/18 50/1/49 163/1/151 
f 163/1/151 169/1/155 18/1/18 
f 168/1/155 50/1/49 18/1/18 
f 104/1/98 120/1/22 123/1/113 
f 126/1/116 125/1/115 145/1/135 
f 69/1/64 115/1/107 105/1/99 
f 62/1/57 114/1/107 116/1/108 
f 49/1/48 172/1/156 173/1/157 
f 173/1/157 50/1/49 49/1/48 
f 173/1/157 174/1/158 163/1/151 
f 163/1/151 50/1/49 173/1/157 
f 174/1/158 175/1/159 163/1/151 
f 175/1/159 155/1/143 164/1/152 
f 164/1/152 163/1/151 175/1/159 
f 175/1/159 157/1/145 153/1/141 
f 153/1/141 155/1/143 175/1/159 
f 175/1/159 161/1/149 159/1/147 
f 159/1/147 157/1/145 175/1/159 
f 175/1/159 176/1/160 177/1/161 
f 177/1/161 161/1/149 175/1/159 
f 175/1/159 174/1/158 178/1/162 
f 178/1/162 176/1/160 175/1/159 
f 53/1/52 54/1/53 173/1/157 
f 173/1/157 172/1/156 53/1/52 
f 52/1/51 53/1/52 172/1/156 
f 172/1/156 49/1/48 52/1/51 
f 56/1/34 179/1/35 173/1/157 
f 173/1/157 54/1/53 56/1/34 
f 180/1/163 174/1/158 179/1/35 
f 179/1/35 181/1/35 180/1/163 
f 180/1/163 182/1/164 178/1/162 
f 178/1/162 174/1/158 180/1/163 
f 182/1/164 183/1/35 176/1/160 
f 176/1/160 178/1/162 182/1/164 
f 184/1/165 177/1/161 176/1/160 
f 176/1/160 183/1/35 184/1/165 
f 184/1/165 162/1/150 161/1/149 
f 161/1/149 177/1/161 184/1/165 
# 331 faces

