# 3ds Max Wavefront OBJ Exporter v0.99 - (c)2007 guruware
# File Created: 11.05.2020 05:59:48

mtllib piernaIzq.mtl

#
# object piernaIzqHomero
#

v  5.1573 0.8176 -9.3959
v  5.1518 0.8131 -9.1378
v  5.1813 0.6649 -9.1397
v  5.1868 0.6694 -9.3978
v  5.2652 0.5393 -9.1400
v  5.2707 0.5437 -9.3981
v  5.3908 0.4553 -9.1388
v  5.3964 0.4597 -9.3969
v  5.5390 0.4257 -9.1361
v  5.5445 0.4302 -9.3942
v  5.6872 0.4552 -9.1324
v  5.6927 0.4596 -9.3905
v  5.8128 0.5391 -9.1283
v  5.8184 0.5435 -9.3864
v  5.8968 0.6647 -9.1243
v  5.9023 0.6691 -9.3824
v  5.9262 0.8128 -9.1211
v  5.9318 0.8173 -9.3793
v  5.8968 0.9611 -9.1192
v  5.9023 0.9655 -9.3774
v  5.8128 1.0867 -9.1189
v  5.8184 1.0912 -9.3770
v  5.6872 1.1707 -9.1201
v  5.6927 1.1752 -9.3783
v  5.5390 1.2002 -9.1228
v  5.5445 1.2047 -9.3809
v  5.3908 1.1708 -9.1265
v  5.3964 1.1753 -9.3846
v  5.2652 1.0869 -9.1306
v  5.2708 1.0914 -9.3887
v  5.1813 0.9613 -9.1346
v  5.1868 0.9658 -9.3927
v  5.1518 0.4259 -9.1444
v  5.9262 0.4256 -9.1278
v  5.9262 1.2001 -9.1145
v  5.1518 1.2004 -9.1311
v  5.1518 0.1677 -9.1488
v  5.9262 0.1674 -9.1322
v  5.9262 1.4583 -9.1101
v  5.1518 1.4586 -9.1267
v  5.1407 1.4497 -8.6105
v  5.9152 1.4494 -8.5939
v  5.9152 0.4167 -8.6116
v  5.1407 0.4170 -8.6282
v  5.9096 0.1542 -8.3579
v  5.9096 0.4123 -8.3535
v  5.1352 0.1544 -8.3745
v  5.1352 0.4126 -8.3701
v  6.1576 0.1718 -9.3855
v  6.1300 0.1496 -8.0950
v  4.9960 0.1722 -9.4104
v  4.9683 0.1501 -8.1199
v  4.9683 0.6664 -8.1110
v  4.9752 0.6720 -8.4336
v  4.9752 1.4658 -8.4200
v  4.9783 1.3714 -8.5636
v  4.9835 1.3240 -8.8097
v  4.9888 1.3798 -9.0540
v  4.9932 1.5254 -9.2581
v  4.9960 1.7148 -9.3839
v  5.0075 1.4658 -8.4193
v  5.0105 1.3714 -8.5629
v  5.0158 1.3240 -8.8090
v  5.0211 1.3798 -9.0533
v  5.0255 1.5254 -9.2574
v  5.0283 1.7147 -9.3832
v  5.0158 1.7758 -8.8013
v  5.3850 1.7756 -8.7934
v  5.3866 1.7916 -8.8672
v  5.0174 1.7918 -8.8751
v  5.3879 1.8347 -8.9293
v  5.0188 1.8348 -8.9372
v  5.3888 1.8982 -8.9702
v  5.0197 1.8984 -8.9781
v  5.3891 1.9726 -8.9836
v  5.0200 1.9727 -8.9915
v  5.3888 2.0464 -8.9676
v  5.0197 2.0466 -8.9756
v  5.3879 2.1085 -8.9246
v  5.0188 2.1087 -8.9325
v  5.3866 2.1494 -8.8611
v  5.0174 2.1496 -8.8690
v  5.3850 2.1629 -8.7867
v  5.0158 2.1630 -8.7946
v  5.3834 2.1469 -8.7129
v  5.0142 2.1470 -8.7208
v  5.3820 2.1038 -8.6508
v  5.0129 2.1040 -8.6588
v  5.3811 2.0403 -8.6099
v  5.0120 2.0404 -8.6178
v  5.3808 1.9659 -8.5965
v  5.0117 1.9661 -8.6044
v  5.3811 1.8921 -8.6125
v  5.0120 1.8922 -8.6204
v  5.3820 1.8300 -8.6555
v  5.0129 1.8301 -8.6634
v  5.3834 1.7891 -8.7190
v  5.0142 1.7892 -8.7270
v  5.0283 1.9794 -9.3787
v  5.0273 2.1993 -9.3285
v  5.0245 2.3830 -9.1975
v  5.0206 2.5076 -9.0095
v  5.0158 2.5503 -8.7880
v  5.0111 2.5000 -8.5681
v  5.0071 2.3690 -8.3845
v  5.0044 2.1810 -8.2599
v  5.0034 1.9594 -8.2172
v  5.0044 1.7395 -8.2675
v  5.0075 1.5277 -8.4183
v  5.8090 2.3243 -8.6266
v  5.8122 2.3564 -8.7743
v  5.8122 1.9691 -8.7809
v  5.8063 2.2382 -8.5024
v  5.8045 2.1112 -8.4207
v  5.8039 1.9625 -8.3937
v  5.3850 2.3565 -8.7834
v  5.3818 2.3245 -8.6358
v  5.3791 2.2384 -8.5116
v  5.3773 2.1113 -8.4298
v  5.3767 1.9626 -8.4029
v  5.3919 2.3620 -9.1061
v  5.8191 2.3619 -9.0969
v  5.3773 1.8147 -8.4351
v  5.8045 1.8274 -8.4232
v  5.7981 1.8184 -8.4254
v  5.6740 1.7355 -8.4837
v  5.5260 1.7062 -8.5074
v  5.3784 1.7349 -8.4901
v  5.8191 1.8391 -9.1059
v  5.3808 1.7723 -8.5998
v  5.3891 1.7790 -8.9870
v  5.3891 2.1662 -8.9803
v  5.3919 1.7457 -9.1166
v  5.9262 2.1037 -9.0990
v  5.8968 1.9555 -9.1022
v  5.8128 2.3775 -9.0968
v  5.8968 2.2519 -9.0971
v  5.5390 2.4911 -9.1007
v  5.6872 2.4616 -9.0980
v  5.7210 2.4390 -9.0977
v  5.3908 2.4617 -9.1044
v  5.1813 2.2522 -9.1124
v  5.3571 2.4391 -9.1055
v  5.1813 1.9558 -9.1175
v  5.1518 2.1040 -9.1156
v  5.2652 1.8301 -9.1179
v  5.6927 1.7504 -9.3684
v  5.5445 1.7210 -9.3721
v  5.8184 1.8343 -9.3643
v  5.9023 1.9599 -9.3603
v  5.9061 1.9790 -9.3599
v  5.9312 2.1076 -9.3300
v  5.9125 2.1990 -9.3095
v  5.9005 2.2549 -9.2699
v  5.8147 2.3790 -9.1832
v  5.8091 2.3827 -9.1807
v  5.6865 2.4610 -9.0652
v  5.5374 2.4898 -9.0250
v  5.3901 2.4611 -9.0715
v  5.2652 2.3777 -9.1085
v  5.2671 2.3792 -9.1949
v  5.2726 2.3829 -9.1922
v  5.1850 2.2551 -9.2852
v  5.1746 2.1992 -9.3253
v  5.1568 2.1079 -9.3466
v  5.1830 1.9793 -9.3754
v  5.1868 1.9602 -9.3756
v  5.2708 1.8345 -9.3760
v  5.3964 1.7505 -9.3748
v  6.0551 2.5072 -8.9873
v  6.0642 2.3826 -9.1752
v  6.0484 2.5499 -8.7659
v  6.0456 2.4996 -8.5459
v  6.0468 2.3687 -8.3622
v  6.0747 2.1989 -9.3060
v  6.0841 1.9790 -9.3561
v  5.1573 0.4303 -9.4025
v  5.9318 0.4300 -9.3859
v  5.9318 1.2045 -9.3726
v  5.1573 1.2048 -9.3892
v  6.1163 0.6715 -8.4092
v  6.1093 0.6660 -8.0865
v  6.0814 1.5274 -8.3953
v  6.0716 1.9690 -8.7753
v  6.0518 2.1806 -8.2375
v  6.0592 1.9590 -8.1946
v  6.0692 1.7391 -8.2446
v  6.0840 1.4654 -8.3963
# 188 vertices

vn 0.5305 0.0505 -0.8462
vn 0.8147 -0.0627 0.5765
vn 0.7724 0.2532 0.5825
vn 0.7581 0.3790 -0.5307
vn 0.6059 0.5301 0.5932
vn 0.5550 0.6307 -0.5424
vn 0.3538 0.7328 0.5812
vn 0.2771 0.7936 -0.5417
vn 0.0251 0.5775 0.8160
vn -0.0127 0.5219 -0.8529
vn -0.2787 0.7728 0.5701
vn -0.3522 0.7547 -0.5535
vn -0.5559 0.6064 0.5685
vn -0.6064 0.5559 -0.5685
vn -0.7600 0.3547 0.5447
vn -0.7673 0.2767 -0.5786
vn -0.8373 0.0381 0.5455
vn -0.4919 -0.0252 -0.8703
vn -0.7936 -0.2771 0.5417
vn -0.7328 -0.3538 -0.5812
vn -0.6350 -0.5588 0.5334
vn -0.5341 -0.6104 -0.5850
vn -0.3765 -0.7530 0.5397
vn -0.2532 -0.7724 -0.5825
vn -0.0509 -0.5213 0.8519
vn 0.0504 -0.4914 -0.8695
vn 0.2519 -0.7934 0.5541
vn 0.3783 -0.7314 -0.5674
vn 0.5334 -0.6350 0.5588
vn 0.6350 -0.5334 -0.5588
vn 0.7314 -0.3783 0.5674
vn 0.7989 -0.2536 -0.5453
vn 0.4920 -0.0126 0.8705
vn -0.4673 -0.0126 0.8840
vn -0.0253 -0.0127 0.9996
vn 0.2135 -0.7032 0.6781
vn -0.5415 -0.8059 0.2393
vn -0.3527 -0.6803 0.6425
vn 0.6526 -0.3389 0.6777
vn 0.3529 -0.6553 -0.6679
vn -0.8075 -0.3911 -0.4416
vn -0.8684 -0.2014 -0.4531
vn 0.8740 -0.4370 -0.2123
vn -0.5255 -0.8007 -0.2877
vn -0.3164 -0.6580 -0.6833
vn 0.6447 -0.6321 -0.4298
vn 0.5898 -0.5647 -0.5773
vn 0.3898 -0.5281 -0.7544
vn 0.4777 -0.7291 0.4902
vn -0.8083 -0.3410 -0.4799
vn -0.3037 -0.9112 0.2784
vn -0.6833 0.3164 0.6580
vn -0.7437 0.4664 0.4790
vn -0.7369 0.5995 0.3123
vn -0.7077 0.6319 -0.3159
vn -0.5594 0.8264 -0.0636
vn -0.5646 0.7779 0.2760
vn -0.5685 0.6064 0.5559
vn -0.4796 0.5679 -0.6689
vn -0.8531 0.4642 0.2384
vn -0.7111 0.6603 -0.2413
vn -0.7187 0.6935 0.0504
vn -0.7140 0.6263 0.3131
vn -0.7224 0.4562 0.5196
vn -0.4022 0.1383 -0.9050
vn -0.7128 0.7003 0.0375
vn 0.8059 0.5919 -0.0126
vn 0.5540 0.7806 0.2896
vn -0.7167 0.6287 0.3018
vn 0.5559 0.6064 0.5685
vn -0.8157 0.3765 0.4392
vn 0.5447 0.3547 0.7600
vn -0.7334 0.2150 0.6449
vn 0.7952 0.0252 0.6059
vn -0.7304 -0.0630 0.6801
vn 0.5417 -0.2771 0.7936
vn -0.7227 -0.3240 0.6105
vn 0.5467 -0.5594 0.6230
vn -0.7208 -0.5437 0.4299
vn 0.5510 -0.7514 0.3632
vn -0.7173 -0.6670 0.2014
vn 0.7062 -0.7062 0.0504
vn -0.7051 -0.7051 -0.0755
vn 0.7135 -0.6634 -0.2253
vn -0.7019 -0.6267 -0.3384
vn 0.7224 -0.5196 -0.4562
vn -0.7018 -0.4511 -0.5514
vn 0.7284 -0.3014 -0.6153
vn -0.6968 -0.2154 -0.6841
vn 0.8160 -0.0251 -0.5775
vn -0.6930 0.0630 -0.7182
vn 0.5786 0.2767 -0.7673
vn -0.6993 0.3247 -0.6369
vn 0.5813 0.5561 -0.5940
vn -0.7025 0.5394 -0.4642
vn 0.5699 0.7472 -0.3419
vn -0.7073 0.6694 -0.2273
vn -0.1764 0.0504 -0.9830
vn -0.5031 0.3144 -0.8050
vn -0.5036 0.5917 -0.6295
vn -0.4394 0.8035 -0.4017
vn -0.3266 0.9421 0.0754
vn -0.8517 0.2034 0.4830
vn -0.2663 -0.0127 0.9638
vn -0.7282 -0.3264 0.6026
vn -0.8539 -0.1758 0.4898
vn -0.5540 -0.7806 -0.2896
vn -0.5531 -0.8297 -0.0754
vn -0.9997 0.0000 -0.0253
vn -0.5559 -0.6064 -0.5685
vn -0.5447 -0.3547 -0.7600
vn -0.4421 0.0126 -0.8969
vn 0.8037 -0.5902 -0.0753
vn 0.7167 -0.6287 -0.3018
vn 0.7176 -0.4532 -0.5288
vn 0.7334 -0.2150 -0.6449
vn 0.8472 0.0126 -0.5311
vn 0.4581 -0.2036 -0.8653
vn -0.2142 -0.1134 -0.9702
vn 0.3918 0.3286 -0.8594
vn -0.8103 0.3615 -0.4612
vn -0.4247 0.6996 -0.5746
vn -0.2395 0.8445 -0.4790
vn 0.0000 0.9864 -0.1644
vn 0.6426 0.6174 -0.4536
vn -0.9117 0.3419 -0.2279
vn 0.9997 0.0000 0.0253
vn 0.7756 0.6230 -0.1017
vn -0.8157 -0.0376 -0.5773
vn -0.8442 0.2646 -0.4662
vn -0.8209 -0.3284 -0.4673
vn -0.0252 0.7069 -0.7069
vn 0.0126 0.5692 -0.8221
vn -0.2532 0.6583 -0.7089
vn 0.6841 -0.2154 -0.6968
vn 0.0254 0.4823 -0.8757
vn 0.8621 0.2662 -0.4311
vn 0.8373 -0.0381 -0.5455
vn 0.6350 0.5588 -0.5334
vn -0.2519 0.7934 -0.5541
vn 0.0504 0.6053 -0.7944
vn -0.6099 0.5972 -0.5210
vn -0.7314 0.3783 -0.5674
vn -0.6694 0.2273 -0.7073
vn -0.6799 0.2015 -0.7051
vn -0.8399 0.0627 -0.5391
vn -0.7162 0.1633 -0.6785
vn -0.6536 -0.0628 -0.7542
vn -0.6062 -0.1389 -0.7831
vn 0.2143 0.9328 -0.2899
vn 0.0378 0.9564 -0.2895
vn -0.2025 0.9493 -0.2405
vn 0.6928 -0.6802 -0.2393
vn 0.6578 -0.1012 -0.7464
vn 0.6339 -0.1395 -0.7607
vn 0.7381 0.1251 -0.6630
vn 0.8602 0.0633 -0.5060
vn 0.8305 0.1762 -0.5285
vn 0.5519 0.2258 -0.8028
vn 0.2280 0.5194 -0.8235
vn 0.3765 0.8157 -0.4392
vn 0.4633 0.6512 -0.6011
vn 0.5543 0.8315 -0.0378
vn 0.5397 0.7908 0.2887
vn 0.5428 0.6186 0.5681
vn 0.3933 0.4313 -0.8119
vn 0.5144 0.0878 -0.8531
vn 0.0253 0.0127 -0.9996
vn 0.9279 0.2759 0.2508
vn 0.3933 0.8119 0.4313
vn 0.6024 -0.2259 0.7656
vn 0.9990 0.0379 0.0253
vn 0.4330 0.3566 0.8278
vn 0.6943 0.0126 0.7196
vn 0.5435 -0.2654 0.7963
# 175 vertex normals

vt 0.0000 0.0000 0.0000
# 1 texture coords

o piernaIzqHomero
g piernaIzqHomero
usemtl Material__68
s 1
f 1/1/1 2/1/2 3/1/3 
f 3/1/3 4/1/4 1/1/1 
f 4/1/4 3/1/3 5/1/5 
f 5/1/5 6/1/6 4/1/4 
f 6/1/6 5/1/5 7/1/7 
f 7/1/7 8/1/8 6/1/6 
f 8/1/8 7/1/7 9/1/9 
f 9/1/9 10/1/10 8/1/8 
f 10/1/10 9/1/9 11/1/11 
f 11/1/11 12/1/12 10/1/10 
f 12/1/12 11/1/11 13/1/13 
f 13/1/13 14/1/14 12/1/12 
f 14/1/14 13/1/13 15/1/15 
f 15/1/15 16/1/16 14/1/14 
f 16/1/16 15/1/15 17/1/17 
f 17/1/17 18/1/18 16/1/16 
f 18/1/18 17/1/17 19/1/19 
f 19/1/19 20/1/20 18/1/18 
f 20/1/20 19/1/19 21/1/21 
f 21/1/21 22/1/22 20/1/20 
f 22/1/22 21/1/21 23/1/23 
f 23/1/23 24/1/24 22/1/22 
f 24/1/24 23/1/23 25/1/25 
f 25/1/25 26/1/26 24/1/24 
f 26/1/26 25/1/25 27/1/27 
f 27/1/27 28/1/28 26/1/26 
f 28/1/28 27/1/27 29/1/29 
f 29/1/29 30/1/30 28/1/28 
f 30/1/30 29/1/29 31/1/31 
f 31/1/31 32/1/32 30/1/30 
f 32/1/32 31/1/31 2/1/2 
f 2/1/2 1/1/1 32/1/32 
f 3/1/3 2/1/2 33/1/33 
f 5/1/5 3/1/3 33/1/33 
f 7/1/7 5/1/5 33/1/33 
f 9/1/9 7/1/7 33/1/33 
f 11/1/11 9/1/9 34/1/34 
f 13/1/13 11/1/11 34/1/34 
f 15/1/15 13/1/13 34/1/34 
f 17/1/17 15/1/15 34/1/34 
f 19/1/19 17/1/17 35/1/35 
f 21/1/21 19/1/19 35/1/35 
f 23/1/23 21/1/21 35/1/35 
f 25/1/25 23/1/23 35/1/35 
f 27/1/27 25/1/25 36/1/35 
f 29/1/29 27/1/27 36/1/35 
f 31/1/31 29/1/29 36/1/35 
f 2/1/2 31/1/31 36/1/35 
f 34/1/34 9/1/9 37/1/36 
f 37/1/36 38/1/37 34/1/34 
f 37/1/36 9/1/9 33/1/33 
f 39/1/38 40/1/39 25/1/25 
f 25/1/25 35/1/35 39/1/38 
f 36/1/35 25/1/25 40/1/39 
f 41/1/40 42/1/41 43/1/42 
f 43/1/42 44/1/43 41/1/40 
f 39/1/38 42/1/41 41/1/40 
f 41/1/40 40/1/39 39/1/38 
f 40/1/39 41/1/40 44/1/43 
f 44/1/43 33/1/33 40/1/39 
f 34/1/34 43/1/42 42/1/41 
f 42/1/41 39/1/38 34/1/34 
f 38/1/37 45/1/44 43/1/42 
f 43/1/42 34/1/34 38/1/37 
f 45/1/44 46/1/45 43/1/42 
f 33/1/33 44/1/43 47/1/46 
f 47/1/46 37/1/36 33/1/33 
f 44/1/43 48/1/47 47/1/46 
f 47/1/46 48/1/47 46/1/45 
f 46/1/45 45/1/44 47/1/46 
f 44/1/43 43/1/42 46/1/45 
f 46/1/45 48/1/47 44/1/43 
f 49/1/48 50/1/49 45/1/44 
f 45/1/44 38/1/37 49/1/48 
f 51/1/50 49/1/48 38/1/37 
f 38/1/37 37/1/36 51/1/50 
f 52/1/51 51/1/50 37/1/36 
f 37/1/36 47/1/46 52/1/51 
f 50/1/49 52/1/51 47/1/46 
f 47/1/46 45/1/44 50/1/49 
f 51/1/50 52/1/51 53/1/52 
f 53/1/52 54/1/53 51/1/50 
f 55/1/54 56/1/55 54/1/53 
f 51/1/50 54/1/53 56/1/55 
f 56/1/55 57/1/56 51/1/50 
f 57/1/56 58/1/57 51/1/50 
f 58/1/57 59/1/58 51/1/50 
f 59/1/58 60/1/59 51/1/50 
f 56/1/55 55/1/54 61/1/60 
f 61/1/60 62/1/61 56/1/55 
f 57/1/56 56/1/55 62/1/61 
f 62/1/61 63/1/62 57/1/56 
f 58/1/57 57/1/56 63/1/62 
f 63/1/62 64/1/63 58/1/57 
f 59/1/58 58/1/57 64/1/63 
f 64/1/63 65/1/64 59/1/58 
f 60/1/59 59/1/58 65/1/64 
f 65/1/64 66/1/65 60/1/59 
f 67/1/66 68/1/67 69/1/68 
f 69/1/68 70/1/69 67/1/66 
f 70/1/69 69/1/68 71/1/70 
f 71/1/70 72/1/71 70/1/69 
f 72/1/71 71/1/70 73/1/72 
f 73/1/72 74/1/73 72/1/71 
f 74/1/73 73/1/72 75/1/74 
f 75/1/74 76/1/75 74/1/73 
f 76/1/75 75/1/74 77/1/76 
f 77/1/76 78/1/77 76/1/75 
f 78/1/77 77/1/76 79/1/78 
f 79/1/78 80/1/79 78/1/77 
f 80/1/79 79/1/78 81/1/80 
f 81/1/80 82/1/81 80/1/79 
f 82/1/81 81/1/80 83/1/82 
f 83/1/82 84/1/83 82/1/81 
f 84/1/83 83/1/82 85/1/84 
f 85/1/84 86/1/85 84/1/83 
f 86/1/85 85/1/84 87/1/86 
f 87/1/86 88/1/87 86/1/85 
f 88/1/87 87/1/86 89/1/88 
f 89/1/88 90/1/89 88/1/87 
f 90/1/89 89/1/88 91/1/90 
f 91/1/90 92/1/91 90/1/89 
f 92/1/91 91/1/90 93/1/92 
f 93/1/92 94/1/93 92/1/91 
f 94/1/93 93/1/92 95/1/94 
f 95/1/94 96/1/95 94/1/93 
f 96/1/95 95/1/94 97/1/96 
f 97/1/96 98/1/97 96/1/95 
f 98/1/97 97/1/96 68/1/67 
f 68/1/67 67/1/66 98/1/97 
f 72/1/71 74/1/73 99/1/98 
f 99/1/98 66/1/65 72/1/71 
f 74/1/73 76/1/75 100/1/99 
f 100/1/99 99/1/98 74/1/73 
f 76/1/75 78/1/77 101/1/100 
f 101/1/100 100/1/99 76/1/75 
f 78/1/77 80/1/79 102/1/101 
f 102/1/101 101/1/100 78/1/77 
f 80/1/79 82/1/81 103/1/102 
f 103/1/102 102/1/101 80/1/79 
f 82/1/81 84/1/83 104/1/63 
f 104/1/63 103/1/102 82/1/81 
f 84/1/83 86/1/85 105/1/64 
f 105/1/64 104/1/63 84/1/83 
f 86/1/85 88/1/87 106/1/103 
f 106/1/103 105/1/64 86/1/85 
f 88/1/87 90/1/89 107/1/104 
f 107/1/104 106/1/103 88/1/87 
f 90/1/89 92/1/91 108/1/105 
f 108/1/105 107/1/104 90/1/89 
f 92/1/91 94/1/93 109/1/106 
f 109/1/106 108/1/105 92/1/91 
f 94/1/93 96/1/95 61/1/60 
f 61/1/60 109/1/106 94/1/93 
f 96/1/95 98/1/97 62/1/61 
f 62/1/61 61/1/60 96/1/95 
f 98/1/97 67/1/66 63/1/62 
f 63/1/62 62/1/61 98/1/97 
f 67/1/66 70/1/69 64/1/63 
f 64/1/63 63/1/62 67/1/66 
f 70/1/69 72/1/71 65/1/64 
f 65/1/64 64/1/63 70/1/69 
f 65/1/64 72/1/71 66/1/65 
f 110/1/107 111/1/108 112/1/109 
f 113/1/110 110/1/107 112/1/109 
f 114/1/111 113/1/110 112/1/109 
f 115/1/112 114/1/111 112/1/109 
f 116/1/113 111/1/108 110/1/107 
f 110/1/107 117/1/114 116/1/113 
f 117/1/114 110/1/107 113/1/110 
f 113/1/110 118/1/115 117/1/114 
f 118/1/115 113/1/110 114/1/111 
f 114/1/111 119/1/116 118/1/115 
f 119/1/116 114/1/111 115/1/112 
f 115/1/112 120/1/117 119/1/116 
f 121/1/118 122/1/119 111/1/108 
f 111/1/108 116/1/113 121/1/118 
f 123/1/120 120/1/117 115/1/112 
f 115/1/112 124/1/121 123/1/120 
f 124/1/121 125/1/122 123/1/120 
f 123/1/120 125/1/122 126/1/123 
f 126/1/123 127/1/124 128/1/125 
f 128/1/125 123/1/120 126/1/123 
f 122/1/119 129/1/126 112/1/109 
f 112/1/109 111/1/108 122/1/119 
f 124/1/121 115/1/112 112/1/109 
f 112/1/109 129/1/126 124/1/121 
f 85/1/84 83/1/82 116/1/113 
f 116/1/113 117/1/114 85/1/84 
f 87/1/86 85/1/84 117/1/114 
f 117/1/114 118/1/115 87/1/86 
f 89/1/88 87/1/86 118/1/115 
f 118/1/115 119/1/116 89/1/88 
f 91/1/90 89/1/88 119/1/116 
f 119/1/116 120/1/117 91/1/90 
f 93/1/92 91/1/90 130/1/127 
f 95/1/94 93/1/92 130/1/127 
f 97/1/96 95/1/94 130/1/127 
f 68/1/67 97/1/96 130/1/127 
f 69/1/68 68/1/67 131/1/127 
f 71/1/70 69/1/68 131/1/127 
f 73/1/72 71/1/70 131/1/127 
f 75/1/74 73/1/72 131/1/127 
f 77/1/76 75/1/74 132/1/127 
f 79/1/78 77/1/76 132/1/127 
f 81/1/80 79/1/78 132/1/127 
f 83/1/82 81/1/80 132/1/127 
f 132/1/127 121/1/118 116/1/113 
f 116/1/113 83/1/82 132/1/127 
f 121/1/118 75/1/74 131/1/127 
f 131/1/127 133/1/128 121/1/118 
f 133/1/128 68/1/67 130/1/127 
f 130/1/127 128/1/125 133/1/128 
f 130/1/127 91/1/90 120/1/117 
f 120/1/117 123/1/120 130/1/127 
f 128/1/125 130/1/127 123/1/120 
f 122/1/119 134/1/129 135/1/130 
f 135/1/130 129/1/126 122/1/119 
f 122/1/119 136/1/22 137/1/131 
f 137/1/131 134/1/129 122/1/119 
f 122/1/119 138/1/132 139/1/8 
f 139/1/8 140/1/133 122/1/119 
f 121/1/118 141/1/134 138/1/132 
f 138/1/132 122/1/119 121/1/118 
f 121/1/118 142/1/135 143/1/136 
f 143/1/136 141/1/134 121/1/118 
f 121/1/118 144/1/137 145/1/138 
f 145/1/138 142/1/135 121/1/118 
f 121/1/118 133/1/128 146/1/139 
f 146/1/139 144/1/137 121/1/118 
f 127/1/124 126/1/123 147/1/140 
f 147/1/140 148/1/141 127/1/124 
f 126/1/123 125/1/122 149/1/142 
f 149/1/142 147/1/140 126/1/123 
f 124/1/121 129/1/126 149/1/142 
f 149/1/142 125/1/122 124/1/121 
f 150/1/143 149/1/142 129/1/126 
f 129/1/126 135/1/130 150/1/143 
f 151/1/144 150/1/143 135/1/130 
f 135/1/130 134/1/129 152/1/145 
f 152/1/145 151/1/144 135/1/130 
f 134/1/129 137/1/131 153/1/146 
f 153/1/146 152/1/145 134/1/129 
f 154/1/147 153/1/146 137/1/131 
f 137/1/131 136/1/22 155/1/148 
f 155/1/148 154/1/147 137/1/131 
f 136/1/22 140/1/133 156/1/149 
f 156/1/149 155/1/148 136/1/22 
f 157/1/150 140/1/133 139/1/8 
f 158/1/151 157/1/150 139/1/8 
f 139/1/8 138/1/132 158/1/151 
f 159/1/152 158/1/151 138/1/132 
f 138/1/132 141/1/134 159/1/152 
f 143/1/136 159/1/152 141/1/134 
f 160/1/153 161/1/154 162/1/155 
f 162/1/155 143/1/136 160/1/153 
f 160/1/153 142/1/135 163/1/156 
f 163/1/156 161/1/154 160/1/153 
f 142/1/135 145/1/138 164/1/157 
f 164/1/157 163/1/156 142/1/135 
f 165/1/158 164/1/157 145/1/138 
f 144/1/137 166/1/159 165/1/158 
f 165/1/158 145/1/138 144/1/137 
f 167/1/4 166/1/159 144/1/137 
f 146/1/139 168/1/6 167/1/4 
f 167/1/4 144/1/137 146/1/139 
f 133/1/128 169/1/160 168/1/6 
f 168/1/6 146/1/139 133/1/128 
f 169/1/160 133/1/128 148/1/141 
f 127/1/124 148/1/141 133/1/128 
f 133/1/128 128/1/125 127/1/124 
f 158/1/151 102/1/101 170/1/161 
f 170/1/161 157/1/150 158/1/151 
f 102/1/101 158/1/151 159/1/152 
f 102/1/101 159/1/152 143/1/136 
f 170/1/161 140/1/133 157/1/150 
f 140/1/133 170/1/161 171/1/162 
f 171/1/162 156/1/149 140/1/133 
f 101/1/100 102/1/101 143/1/136 
f 143/1/136 162/1/155 101/1/100 
f 172/1/163 170/1/161 102/1/101 
f 102/1/101 103/1/102 172/1/163 
f 173/1/164 172/1/163 103/1/102 
f 103/1/102 104/1/63 173/1/164 
f 174/1/165 173/1/164 104/1/63 
f 104/1/63 105/1/64 174/1/165 
f 152/1/145 175/1/166 176/1/167 
f 176/1/167 151/1/144 152/1/145 
f 153/1/146 175/1/166 152/1/145 
f 154/1/147 175/1/166 153/1/146 
f 155/1/148 171/1/162 175/1/166 
f 175/1/166 154/1/147 155/1/148 
f 156/1/149 171/1/162 155/1/148 
f 166/1/159 99/1/98 100/1/99 
f 100/1/99 165/1/158 166/1/159 
f 164/1/157 165/1/158 100/1/99 
f 163/1/156 164/1/157 100/1/99 
f 163/1/156 100/1/99 101/1/100 
f 101/1/100 161/1/154 163/1/156 
f 162/1/155 161/1/154 101/1/100 
f 177/1/168 1/1/1 4/1/4 
f 177/1/168 4/1/4 6/1/6 
f 177/1/168 6/1/6 8/1/8 
f 177/1/168 8/1/8 10/1/10 
f 178/1/168 10/1/10 12/1/12 
f 178/1/168 12/1/12 14/1/14 
f 178/1/168 14/1/14 16/1/16 
f 178/1/168 16/1/16 18/1/18 
f 179/1/168 18/1/18 20/1/20 
f 179/1/168 20/1/20 22/1/22 
f 179/1/168 22/1/22 24/1/24 
f 179/1/168 24/1/24 26/1/26 
f 180/1/168 26/1/26 28/1/28 
f 180/1/168 28/1/28 30/1/30 
f 180/1/168 30/1/30 32/1/32 
f 180/1/168 32/1/32 1/1/1 
f 148/1/141 26/1/26 66/1/65 
f 66/1/65 169/1/160 148/1/141 
f 169/1/160 66/1/65 99/1/98 
f 99/1/98 168/1/6 169/1/160 
f 167/1/4 168/1/6 99/1/98 
f 166/1/159 167/1/4 99/1/98 
f 176/1/167 150/1/143 151/1/144 
f 176/1/167 149/1/142 150/1/143 
f 149/1/142 176/1/167 179/1/168 
f 179/1/168 147/1/140 149/1/142 
f 179/1/168 26/1/26 148/1/141 
f 148/1/141 147/1/140 179/1/168 
f 49/1/48 51/1/50 10/1/10 
f 10/1/10 178/1/168 49/1/48 
f 10/1/10 51/1/50 177/1/168 
f 51/1/50 1/1/1 177/1/168 
f 1/1/1 51/1/50 60/1/59 
f 60/1/59 180/1/168 1/1/1 
f 180/1/168 60/1/59 66/1/65 
f 66/1/65 26/1/26 180/1/168 
f 176/1/167 49/1/48 18/1/18 
f 18/1/18 179/1/168 176/1/167 
f 18/1/18 49/1/48 178/1/168 
f 140/1/133 136/1/22 122/1/119 
f 160/1/153 143/1/136 142/1/135 
f 121/1/118 132/1/127 75/1/74 
f 133/1/128 131/1/127 68/1/67 
f 181/1/169 182/1/170 50/1/49 
f 50/1/49 49/1/48 181/1/169 
f 176/1/167 183/1/171 181/1/169 
f 181/1/169 49/1/48 176/1/167 
f 176/1/167 184/1/172 183/1/171 
f 175/1/166 171/1/162 184/1/172 
f 184/1/172 176/1/167 175/1/166 
f 170/1/161 172/1/163 184/1/172 
f 184/1/172 171/1/162 170/1/161 
f 173/1/164 174/1/165 184/1/172 
f 184/1/172 172/1/163 173/1/164 
f 185/1/173 186/1/174 184/1/172 
f 184/1/172 174/1/165 185/1/173 
f 187/1/175 183/1/171 184/1/172 
f 184/1/172 186/1/174 187/1/175 
f 182/1/170 181/1/169 54/1/53 
f 54/1/53 53/1/52 182/1/170 
f 50/1/49 182/1/170 53/1/52 
f 53/1/52 52/1/51 50/1/49 
f 54/1/53 181/1/169 188/1/35 
f 188/1/35 55/1/54 54/1/53 
f 61/1/60 188/1/35 183/1/171 
f 183/1/171 109/1/106 61/1/60 
f 183/1/171 187/1/175 108/1/105 
f 108/1/105 109/1/106 183/1/171 
f 187/1/175 186/1/174 107/1/104 
f 107/1/104 108/1/105 187/1/175 
f 107/1/104 186/1/174 185/1/173 
f 185/1/173 106/1/103 107/1/104 
f 185/1/173 174/1/165 105/1/64 
f 105/1/64 106/1/103 185/1/173 
# 374 faces

