# 3ds Max Wavefront OBJ Exporter v0.99 - (c)2007 guruware
# File Created: 11.05.2020 08:14:17

mtllib piernaIzq.mtl

#
# object piernaIzqMarge
#

v  -0.3765 -1.0841 -0.6010
v  -0.3816 -1.0882 -0.3613
v  -0.3543 -1.2258 -0.3632
v  -0.3491 -1.2217 -0.6027
v  -0.2764 -1.3424 -0.3634
v  -0.2712 -1.3383 -0.6030
v  -0.1598 -1.4204 -0.3623
v  -0.1546 -1.4163 -0.6019
v  -0.0222 -1.4478 -0.3598
v  -0.0171 -1.4437 -0.5993
v  0.1153 -1.4205 -0.3564
v  0.1205 -1.4164 -0.5960
v  0.2319 -1.3426 -0.3525
v  0.2369 -1.3385 -0.5921
v  0.3098 -1.2260 -0.3489
v  0.3150 -1.2219 -0.5884
v  0.3372 -1.0885 -0.3460
v  0.3423 -1.0844 -0.5855
v  0.3098 -0.9509 -0.3442
v  0.3150 -0.9468 -0.5838
v  0.2319 -0.8343 -0.3439
v  0.2369 -0.8302 -0.5834
v  0.1153 -0.7563 -0.3449
v  0.1205 -0.7522 -0.5846
v  -0.0222 -0.7289 -0.3474
v  -0.0171 -0.7248 -0.5870
v  -0.1598 -0.7562 -0.3510
v  -0.1546 -0.7521 -0.5905
v  -0.2764 -0.8341 -0.3548
v  -0.2712 -0.8300 -0.5943
v  -0.3543 -0.9507 -0.3584
v  -0.3491 -0.9466 -0.5979
v  -0.3816 -1.4477 -0.3676
v  0.3372 -1.4479 -0.3521
v  0.3372 -0.7291 -0.3397
v  -0.3816 -0.7288 -0.3552
v  -0.3816 -1.6873 -0.3717
v  0.3372 -1.6876 -0.3562
v  0.3372 -0.4895 -0.3356
v  -0.3816 -0.4892 -0.3510
v  -0.3919 -0.4974 0.1280
v  0.3269 -0.4977 0.1434
v  0.3269 -1.4561 0.1270
v  -0.3919 -1.4559 0.1116
v  0.3218 -1.6999 0.3625
v  0.3218 -1.4603 0.3665
v  -0.3970 -1.6996 0.3471
v  -0.3970 -1.4600 0.3512
v  0.5520 -1.6835 -0.5913
v  0.5263 -1.7041 0.6065
v  -0.5262 -1.6831 -0.6143
v  -0.5519 -1.7037 0.5834
v  -0.5519 -1.2244 0.5917
v  -0.5455 -1.2193 0.2921
v  -0.5455 -0.4825 0.3049
v  -0.5427 -0.5700 0.1716
v  -0.5378 -0.6141 -0.0569
v  -0.5329 -0.5622 -0.2837
v  -0.5288 -0.4272 -0.4730
v  -0.5262 -0.2514 -0.5898
v  -0.5155 -0.4825 0.3054
v  -0.5127 -0.5701 0.1721
v  -0.5078 -0.6141 -0.0563
v  -0.5030 -0.5623 -0.2831
v  -0.4988 -0.4272 -0.4724
v  -0.4963 -0.2514 -0.5891
v  -0.5078 -0.1947 -0.0491
v  -0.1652 -0.1949 -0.0417
v  -0.1637 -0.1800 -0.1102
v  -0.5064 -0.1799 -0.1176
v  -0.1625 -0.1401 -0.1679
v  -0.5051 -0.1399 -0.1752
v  -0.1617 -0.0811 -0.2057
v  -0.5043 -0.0810 -0.2131
v  -0.1614 -0.0121 -0.2183
v  -0.5040 -0.0120 -0.2257
v  -0.1617 0.0565 -0.2034
v  -0.5043 0.0566 -0.2108
v  -0.1625 0.1141 -0.1635
v  -0.5051 0.1142 -0.1709
v  -0.1637 0.1521 -0.1046
v  -0.5064 0.1522 -0.1119
v  -0.1652 0.1646 -0.0356
v  -0.5078 0.1647 -0.0429
v  -0.1667 0.1497 0.0329
v  -0.5093 0.1498 0.0256
v  -0.1679 0.1097 0.0906
v  -0.5106 0.1099 0.0833
v  -0.1688 0.0508 0.1285
v  -0.5114 0.0509 0.1212
v  -0.1691 -0.0182 0.1410
v  -0.5117 -0.0181 0.1337
v  -0.1688 -0.0868 0.1262
v  -0.5114 -0.0867 0.1189
v  -0.1679 -0.1444 0.0862
v  -0.5106 -0.1443 0.0789
v  -0.1667 -0.1824 0.0272
v  -0.5093 -0.1823 0.0199
v  -0.4963 -0.0058 -0.5849
v  -0.4972 0.1983 -0.5383
v  -0.4998 0.3688 -0.4168
v  -0.5034 0.4845 -0.2422
v  -0.5078 0.5241 -0.0368
v  -0.5122 0.4775 0.1673
v  -0.5159 0.3559 0.3379
v  -0.5185 0.1813 0.4534
v  -0.5194 -0.0243 0.4931
v  -0.5185 -0.2284 0.4464
v  -0.5155 -0.4250 0.3065
v  0.2284 0.3144 0.1130
v  0.2313 0.3441 -0.0240
v  0.2313 -0.0153 -0.0302
v  0.2259 0.2345 0.2283
v  0.2242 0.1166 0.3043
v  0.2236 -0.0215 0.3293
v  -0.1652 0.3443 -0.0325
v  -0.1682 0.3145 0.1045
v  -0.1707 0.2346 0.2199
v  -0.1723 0.1167 0.2957
v  -0.1729 -0.0213 0.3207
v  -0.1588 0.3494 -0.3320
v  0.2376 0.3493 -0.3234
v  -0.1723 -0.1586 0.2908
v  0.2242 -0.1468 0.3020
v  0.2182 -0.1552 0.2998
v  0.1031 -0.2322 0.2457
v  -0.0343 -0.2593 0.2237
v  -0.1713 -0.2327 0.2398
v  0.2376 -0.1360 -0.3318
v  -0.1691 -0.1980 0.1380
v  -0.1614 -0.1918 -0.2214
v  -0.1614 0.1676 -0.2153
v  -0.1588 -0.2227 -0.3417
v  0.3372 0.1096 -0.3254
v  0.3098 -0.0279 -0.3284
v  0.2319 0.3638 -0.3232
v  0.3098 0.2472 -0.3237
v  -0.0222 0.4692 -0.3270
v  0.1153 0.4418 -0.3245
v  0.1467 0.4208 -0.3241
v  -0.1598 0.4419 -0.3304
v  -0.3543 0.2474 -0.3379
v  -0.1911 0.4209 -0.3313
v  -0.3543 -0.0277 -0.3426
v  -0.3816 0.1099 -0.3408
v  -0.2764 -0.1443 -0.3430
v  0.1205 -0.2183 -0.5754
v  -0.0171 -0.2456 -0.5789
v  0.2369 -0.1404 -0.5716
v  0.3150 -0.0238 -0.5678
v  0.3185 -0.0061 -0.5675
v  0.3418 0.1133 -0.5397
v  0.3245 0.1980 -0.5208
v  0.3133 0.2499 -0.4840
v  0.2336 0.3652 -0.4035
v  0.2284 0.3686 -0.4011
v  0.1147 0.4412 -0.2939
v  -0.0237 0.4680 -0.2568
v  -0.1604 0.4413 -0.2999
v  -0.2764 0.3640 -0.3342
v  -0.2746 0.3654 -0.4144
v  -0.2695 0.3688 -0.4119
v  -0.3508 0.2502 -0.4983
v  -0.3605 0.1983 -0.5354
v  -0.3770 0.1135 -0.5552
v  -0.3527 -0.0058 -0.5819
v  -0.3491 -0.0236 -0.5821
v  -0.2712 -0.1402 -0.5825
v  -0.1546 -0.2182 -0.5813
v  0.4567 0.4841 -0.2217
v  0.4652 0.3685 -0.3961
v  0.4506 0.5238 -0.0162
v  0.4480 0.4771 0.1880
v  0.4491 0.3555 0.3585
v  0.4750 0.1980 -0.5175
v  0.4837 -0.0062 -0.5640
v  -0.3765 -1.4436 -0.6071
v  0.3423 -1.4438 -0.5917
v  0.3423 -0.7250 -0.5793
v  -0.3765 -0.7247 -0.5948
v  0.5135 -1.2197 0.3149
v  0.5071 -1.2248 0.6143
v  0.4812 -0.4253 0.3278
v  0.4721 -0.0154 -0.0250
v  0.4537 0.1810 0.4742
v  0.4606 -0.0246 0.5141
v  0.4699 -0.2288 0.4676
v  0.4836 -0.4828 0.3268
# 188 vertices

vn 0.5305 0.0505 -0.8462
vn 0.8147 -0.0627 0.5765
vn 0.7724 0.2532 0.5825
vn 0.7581 0.3790 -0.5307
vn 0.6059 0.5301 0.5932
vn 0.5550 0.6307 -0.5424
vn 0.3538 0.7328 0.5812
vn 0.2771 0.7936 -0.5417
vn 0.0251 0.5775 0.8160
vn -0.0127 0.5219 -0.8529
vn -0.2787 0.7728 0.5701
vn -0.3522 0.7547 -0.5535
vn -0.5559 0.6064 0.5685
vn -0.6064 0.5559 -0.5685
vn -0.7600 0.3547 0.5447
vn -0.7673 0.2767 -0.5786
vn -0.8373 0.0381 0.5455
vn -0.4919 -0.0252 -0.8703
vn -0.7936 -0.2771 0.5417
vn -0.7328 -0.3538 -0.5812
vn -0.6350 -0.5588 0.5334
vn -0.5341 -0.6104 -0.5850
vn -0.3765 -0.7530 0.5397
vn -0.2532 -0.7724 -0.5825
vn -0.0509 -0.5213 0.8519
vn 0.0504 -0.4914 -0.8695
vn 0.2519 -0.7934 0.5541
vn 0.3783 -0.7314 -0.5674
vn 0.5334 -0.6350 0.5588
vn 0.6350 -0.5334 -0.5588
vn 0.7314 -0.3783 0.5674
vn 0.7989 -0.2536 -0.5453
vn 0.4920 -0.0126 0.8705
vn -0.4673 -0.0126 0.8840
vn -0.0253 -0.0127 0.9996
vn 0.2135 -0.7032 0.6781
vn -0.5415 -0.8059 0.2393
vn -0.3527 -0.6803 0.6425
vn 0.6526 -0.3389 0.6777
vn 0.3529 -0.6553 -0.6679
vn -0.8075 -0.3911 -0.4416
vn -0.8684 -0.2014 -0.4531
vn 0.8740 -0.4370 -0.2123
vn -0.5255 -0.8007 -0.2877
vn -0.3164 -0.6580 -0.6833
vn 0.6447 -0.6321 -0.4298
vn 0.5898 -0.5647 -0.5773
vn 0.3898 -0.5281 -0.7544
vn 0.4777 -0.7291 0.4902
vn -0.8083 -0.3410 -0.4799
vn -0.3037 -0.9112 0.2784
vn -0.6833 0.3164 0.6580
vn -0.7437 0.4664 0.4790
vn -0.7369 0.5995 0.3123
vn -0.7077 0.6319 -0.3159
vn -0.5594 0.8264 -0.0636
vn -0.5646 0.7779 0.2760
vn -0.5685 0.6064 0.5559
vn -0.4796 0.5679 -0.6689
vn -0.8531 0.4642 0.2384
vn -0.7111 0.6603 -0.2413
vn -0.7187 0.6935 0.0504
vn -0.7140 0.6263 0.3131
vn -0.7224 0.4562 0.5196
vn -0.4022 0.1383 -0.9050
vn -0.7128 0.7003 0.0375
vn 0.8059 0.5919 -0.0126
vn 0.5540 0.7806 0.2896
vn -0.7167 0.6287 0.3018
vn 0.5559 0.6064 0.5685
vn -0.8157 0.3765 0.4392
vn 0.5447 0.3547 0.7600
vn -0.7334 0.2150 0.6449
vn 0.7952 0.0252 0.6059
vn -0.7304 -0.0630 0.6801
vn 0.5417 -0.2771 0.7936
vn -0.7227 -0.3240 0.6105
vn 0.5467 -0.5594 0.6230
vn -0.7208 -0.5437 0.4299
vn 0.5510 -0.7514 0.3632
vn -0.7173 -0.6670 0.2014
vn 0.7062 -0.7062 0.0504
vn -0.7051 -0.7051 -0.0755
vn 0.7135 -0.6634 -0.2253
vn -0.7019 -0.6267 -0.3384
vn 0.7224 -0.5196 -0.4562
vn -0.7018 -0.4511 -0.5514
vn 0.7284 -0.3014 -0.6153
vn -0.6968 -0.2154 -0.6841
vn 0.8160 -0.0251 -0.5775
vn -0.6930 0.0630 -0.7182
vn 0.5786 0.2767 -0.7673
vn -0.6993 0.3247 -0.6369
vn 0.5813 0.5561 -0.5940
vn -0.7025 0.5394 -0.4642
vn 0.5699 0.7472 -0.3419
vn -0.7073 0.6694 -0.2273
vn -0.1764 0.0504 -0.9830
vn -0.5031 0.3144 -0.8050
vn -0.5036 0.5917 -0.6295
vn -0.4394 0.8035 -0.4017
vn -0.3266 0.9421 0.0754
vn -0.8517 0.2034 0.4830
vn -0.2663 -0.0127 0.9638
vn -0.7282 -0.3264 0.6026
vn -0.8539 -0.1758 0.4898
vn -0.5540 -0.7806 -0.2896
vn -0.5531 -0.8297 -0.0754
vn -0.9997 0.0000 -0.0253
vn -0.5559 -0.6064 -0.5685
vn -0.5447 -0.3547 -0.7600
vn -0.4421 0.0126 -0.8969
vn 0.8037 -0.5902 -0.0753
vn 0.7167 -0.6287 -0.3018
vn 0.7176 -0.4532 -0.5288
vn 0.7334 -0.2150 -0.6449
vn 0.8472 0.0126 -0.5311
vn 0.4581 -0.2036 -0.8653
vn -0.2142 -0.1134 -0.9702
vn 0.3918 0.3286 -0.8594
vn -0.8103 0.3615 -0.4612
vn -0.4247 0.6996 -0.5746
vn -0.2395 0.8445 -0.4790
vn 0.0000 0.9864 -0.1644
vn 0.6426 0.6174 -0.4536
vn -0.9117 0.3419 -0.2279
vn 0.9997 0.0000 0.0253
vn 0.7756 0.6230 -0.1017
vn -0.8157 -0.0376 -0.5773
vn -0.8442 0.2646 -0.4662
vn -0.8209 -0.3284 -0.4673
vn -0.0252 0.7069 -0.7069
vn 0.0126 0.5692 -0.8221
vn -0.2532 0.6583 -0.7089
vn 0.6841 -0.2154 -0.6968
vn 0.0254 0.4823 -0.8757
vn 0.8621 0.2662 -0.4311
vn 0.8373 -0.0381 -0.5455
vn 0.6350 0.5588 -0.5334
vn -0.2519 0.7934 -0.5541
vn 0.0504 0.6053 -0.7944
vn -0.6099 0.5972 -0.5210
vn -0.7314 0.3783 -0.5674
vn -0.6694 0.2273 -0.7073
vn -0.6799 0.2015 -0.7051
vn -0.8399 0.0627 -0.5391
vn -0.7162 0.1633 -0.6785
vn -0.6536 -0.0628 -0.7542
vn -0.6062 -0.1389 -0.7831
vn 0.2143 0.9328 -0.2899
vn 0.0378 0.9564 -0.2895
vn -0.2025 0.9493 -0.2405
vn 0.6928 -0.6802 -0.2393
vn 0.6578 -0.1012 -0.7464
vn 0.6339 -0.1395 -0.7607
vn 0.7381 0.1251 -0.6630
vn 0.8602 0.0633 -0.5060
vn 0.8305 0.1762 -0.5285
vn 0.5519 0.2258 -0.8028
vn 0.2280 0.5194 -0.8235
vn 0.3765 0.8157 -0.4392
vn 0.4633 0.6512 -0.6011
vn 0.5543 0.8315 -0.0378
vn 0.5397 0.7908 0.2887
vn 0.5428 0.6186 0.5681
vn 0.3933 0.4313 -0.8119
vn 0.5144 0.0878 -0.8531
vn 0.0253 0.0127 -0.9996
vn 0.9279 0.2759 0.2508
vn 0.3933 0.8119 0.4313
vn 0.6024 -0.2259 0.7656
vn 0.9990 0.0379 0.0253
vn 0.4330 0.3566 0.8278
vn 0.6943 0.0126 0.7196
vn 0.5435 -0.2654 0.7963
# 175 vertex normals

vt 0.0000 0.0000 0.0000
# 1 texture coords

o piernaIzqMarge
g piernaIzqMarge
usemtl Material__68
s 1
f 1/1/1 2/1/2 3/1/3 
f 3/1/3 4/1/4 1/1/1 
f 4/1/4 3/1/3 5/1/5 
f 5/1/5 6/1/6 4/1/4 
f 6/1/6 5/1/5 7/1/7 
f 7/1/7 8/1/8 6/1/6 
f 8/1/8 7/1/7 9/1/9 
f 9/1/9 10/1/10 8/1/8 
f 10/1/10 9/1/9 11/1/11 
f 11/1/11 12/1/12 10/1/10 
f 12/1/12 11/1/11 13/1/13 
f 13/1/13 14/1/14 12/1/12 
f 14/1/14 13/1/13 15/1/15 
f 15/1/15 16/1/16 14/1/14 
f 16/1/16 15/1/15 17/1/17 
f 17/1/17 18/1/18 16/1/16 
f 18/1/18 17/1/17 19/1/19 
f 19/1/19 20/1/20 18/1/18 
f 20/1/20 19/1/19 21/1/21 
f 21/1/21 22/1/22 20/1/20 
f 22/1/22 21/1/21 23/1/23 
f 23/1/23 24/1/24 22/1/22 
f 24/1/24 23/1/23 25/1/25 
f 25/1/25 26/1/26 24/1/24 
f 26/1/26 25/1/25 27/1/27 
f 27/1/27 28/1/28 26/1/26 
f 28/1/28 27/1/27 29/1/29 
f 29/1/29 30/1/30 28/1/28 
f 30/1/30 29/1/29 31/1/31 
f 31/1/31 32/1/32 30/1/30 
f 32/1/32 31/1/31 2/1/2 
f 2/1/2 1/1/1 32/1/32 
f 3/1/3 2/1/2 33/1/33 
f 5/1/5 3/1/3 33/1/33 
f 7/1/7 5/1/5 33/1/33 
f 9/1/9 7/1/7 33/1/33 
f 11/1/11 9/1/9 34/1/34 
f 13/1/13 11/1/11 34/1/34 
f 15/1/15 13/1/13 34/1/34 
f 17/1/17 15/1/15 34/1/34 
f 19/1/19 17/1/17 35/1/35 
f 21/1/21 19/1/19 35/1/35 
f 23/1/23 21/1/21 35/1/35 
f 25/1/25 23/1/23 35/1/35 
f 27/1/27 25/1/25 36/1/35 
f 29/1/29 27/1/27 36/1/35 
f 31/1/31 29/1/29 36/1/35 
f 2/1/2 31/1/31 36/1/35 
f 34/1/34 9/1/9 37/1/36 
f 37/1/36 38/1/37 34/1/34 
f 37/1/36 9/1/9 33/1/33 
f 39/1/38 40/1/39 25/1/25 
f 25/1/25 35/1/35 39/1/38 
f 36/1/35 25/1/25 40/1/39 
f 41/1/40 42/1/41 43/1/42 
f 43/1/42 44/1/43 41/1/40 
f 39/1/38 42/1/41 41/1/40 
f 41/1/40 40/1/39 39/1/38 
f 40/1/39 41/1/40 44/1/43 
f 44/1/43 33/1/33 40/1/39 
f 34/1/34 43/1/42 42/1/41 
f 42/1/41 39/1/38 34/1/34 
f 38/1/37 45/1/44 43/1/42 
f 43/1/42 34/1/34 38/1/37 
f 45/1/44 46/1/45 43/1/42 
f 33/1/33 44/1/43 47/1/46 
f 47/1/46 37/1/36 33/1/33 
f 44/1/43 48/1/47 47/1/46 
f 47/1/46 48/1/47 46/1/45 
f 46/1/45 45/1/44 47/1/46 
f 44/1/43 43/1/42 46/1/45 
f 46/1/45 48/1/47 44/1/43 
f 49/1/48 50/1/49 45/1/44 
f 45/1/44 38/1/37 49/1/48 
f 51/1/50 49/1/48 38/1/37 
f 38/1/37 37/1/36 51/1/50 
f 52/1/51 51/1/50 37/1/36 
f 37/1/36 47/1/46 52/1/51 
f 50/1/49 52/1/51 47/1/46 
f 47/1/46 45/1/44 50/1/49 
f 51/1/50 52/1/51 53/1/52 
f 53/1/52 54/1/53 51/1/50 
f 55/1/54 56/1/55 54/1/53 
f 51/1/50 54/1/53 56/1/55 
f 56/1/55 57/1/56 51/1/50 
f 57/1/56 58/1/57 51/1/50 
f 58/1/57 59/1/58 51/1/50 
f 59/1/58 60/1/59 51/1/50 
f 56/1/55 55/1/54 61/1/60 
f 61/1/60 62/1/61 56/1/55 
f 57/1/56 56/1/55 62/1/61 
f 62/1/61 63/1/62 57/1/56 
f 58/1/57 57/1/56 63/1/62 
f 63/1/62 64/1/63 58/1/57 
f 59/1/58 58/1/57 64/1/63 
f 64/1/63 65/1/64 59/1/58 
f 60/1/59 59/1/58 65/1/64 
f 65/1/64 66/1/65 60/1/59 
f 67/1/66 68/1/67 69/1/68 
f 69/1/68 70/1/69 67/1/66 
f 70/1/69 69/1/68 71/1/70 
f 71/1/70 72/1/71 70/1/69 
f 72/1/71 71/1/70 73/1/72 
f 73/1/72 74/1/73 72/1/71 
f 74/1/73 73/1/72 75/1/74 
f 75/1/74 76/1/75 74/1/73 
f 76/1/75 75/1/74 77/1/76 
f 77/1/76 78/1/77 76/1/75 
f 78/1/77 77/1/76 79/1/78 
f 79/1/78 80/1/79 78/1/77 
f 80/1/79 79/1/78 81/1/80 
f 81/1/80 82/1/81 80/1/79 
f 82/1/81 81/1/80 83/1/82 
f 83/1/82 84/1/83 82/1/81 
f 84/1/83 83/1/82 85/1/84 
f 85/1/84 86/1/85 84/1/83 
f 86/1/85 85/1/84 87/1/86 
f 87/1/86 88/1/87 86/1/85 
f 88/1/87 87/1/86 89/1/88 
f 89/1/88 90/1/89 88/1/87 
f 90/1/89 89/1/88 91/1/90 
f 91/1/90 92/1/91 90/1/89 
f 92/1/91 91/1/90 93/1/92 
f 93/1/92 94/1/93 92/1/91 
f 94/1/93 93/1/92 95/1/94 
f 95/1/94 96/1/95 94/1/93 
f 96/1/95 95/1/94 97/1/96 
f 97/1/96 98/1/97 96/1/95 
f 98/1/97 97/1/96 68/1/67 
f 68/1/67 67/1/66 98/1/97 
f 72/1/71 74/1/73 99/1/98 
f 99/1/98 66/1/65 72/1/71 
f 74/1/73 76/1/75 100/1/99 
f 100/1/99 99/1/98 74/1/73 
f 76/1/75 78/1/77 101/1/100 
f 101/1/100 100/1/99 76/1/75 
f 78/1/77 80/1/79 102/1/101 
f 102/1/101 101/1/100 78/1/77 
f 80/1/79 82/1/81 103/1/102 
f 103/1/102 102/1/101 80/1/79 
f 82/1/81 84/1/83 104/1/63 
f 104/1/63 103/1/102 82/1/81 
f 84/1/83 86/1/85 105/1/64 
f 105/1/64 104/1/63 84/1/83 
f 86/1/85 88/1/87 106/1/103 
f 106/1/103 105/1/64 86/1/85 
f 88/1/87 90/1/89 107/1/104 
f 107/1/104 106/1/103 88/1/87 
f 90/1/89 92/1/91 108/1/105 
f 108/1/105 107/1/104 90/1/89 
f 92/1/91 94/1/93 109/1/106 
f 109/1/106 108/1/105 92/1/91 
f 94/1/93 96/1/95 61/1/60 
f 61/1/60 109/1/106 94/1/93 
f 96/1/95 98/1/97 62/1/61 
f 62/1/61 61/1/60 96/1/95 
f 98/1/97 67/1/66 63/1/62 
f 63/1/62 62/1/61 98/1/97 
f 67/1/66 70/1/69 64/1/63 
f 64/1/63 63/1/62 67/1/66 
f 70/1/69 72/1/71 65/1/64 
f 65/1/64 64/1/63 70/1/69 
f 65/1/64 72/1/71 66/1/65 
f 110/1/107 111/1/108 112/1/109 
f 113/1/110 110/1/107 112/1/109 
f 114/1/111 113/1/110 112/1/109 
f 115/1/112 114/1/111 112/1/109 
f 116/1/113 111/1/108 110/1/107 
f 110/1/107 117/1/114 116/1/113 
f 117/1/114 110/1/107 113/1/110 
f 113/1/110 118/1/115 117/1/114 
f 118/1/115 113/1/110 114/1/111 
f 114/1/111 119/1/116 118/1/115 
f 119/1/116 114/1/111 115/1/112 
f 115/1/112 120/1/117 119/1/116 
f 121/1/118 122/1/119 111/1/108 
f 111/1/108 116/1/113 121/1/118 
f 123/1/120 120/1/117 115/1/112 
f 115/1/112 124/1/121 123/1/120 
f 124/1/121 125/1/122 123/1/120 
f 123/1/120 125/1/122 126/1/123 
f 126/1/123 127/1/124 128/1/125 
f 128/1/125 123/1/120 126/1/123 
f 122/1/119 129/1/126 112/1/109 
f 112/1/109 111/1/108 122/1/119 
f 124/1/121 115/1/112 112/1/109 
f 112/1/109 129/1/126 124/1/121 
f 85/1/84 83/1/82 116/1/113 
f 116/1/113 117/1/114 85/1/84 
f 87/1/86 85/1/84 117/1/114 
f 117/1/114 118/1/115 87/1/86 
f 89/1/88 87/1/86 118/1/115 
f 118/1/115 119/1/116 89/1/88 
f 91/1/90 89/1/88 119/1/116 
f 119/1/116 120/1/117 91/1/90 
f 93/1/92 91/1/90 130/1/127 
f 95/1/94 93/1/92 130/1/127 
f 97/1/96 95/1/94 130/1/127 
f 68/1/67 97/1/96 130/1/127 
f 69/1/68 68/1/67 131/1/127 
f 71/1/70 69/1/68 131/1/127 
f 73/1/72 71/1/70 131/1/127 
f 75/1/74 73/1/72 131/1/127 
f 77/1/76 75/1/74 132/1/127 
f 79/1/78 77/1/76 132/1/127 
f 81/1/80 79/1/78 132/1/127 
f 83/1/82 81/1/80 132/1/127 
f 132/1/127 121/1/118 116/1/113 
f 116/1/113 83/1/82 132/1/127 
f 121/1/118 75/1/74 131/1/127 
f 131/1/127 133/1/128 121/1/118 
f 133/1/128 68/1/67 130/1/127 
f 130/1/127 128/1/125 133/1/128 
f 130/1/127 91/1/90 120/1/117 
f 120/1/117 123/1/120 130/1/127 
f 128/1/125 130/1/127 123/1/120 
f 122/1/119 134/1/129 135/1/130 
f 135/1/130 129/1/126 122/1/119 
f 122/1/119 136/1/22 137/1/131 
f 137/1/131 134/1/129 122/1/119 
f 122/1/119 138/1/132 139/1/8 
f 139/1/8 140/1/133 122/1/119 
f 121/1/118 141/1/134 138/1/132 
f 138/1/132 122/1/119 121/1/118 
f 121/1/118 142/1/135 143/1/136 
f 143/1/136 141/1/134 121/1/118 
f 121/1/118 144/1/137 145/1/138 
f 145/1/138 142/1/135 121/1/118 
f 121/1/118 133/1/128 146/1/139 
f 146/1/139 144/1/137 121/1/118 
f 127/1/124 126/1/123 147/1/140 
f 147/1/140 148/1/141 127/1/124 
f 126/1/123 125/1/122 149/1/142 
f 149/1/142 147/1/140 126/1/123 
f 124/1/121 129/1/126 149/1/142 
f 149/1/142 125/1/122 124/1/121 
f 150/1/143 149/1/142 129/1/126 
f 129/1/126 135/1/130 150/1/143 
f 151/1/144 150/1/143 135/1/130 
f 135/1/130 134/1/129 152/1/145 
f 152/1/145 151/1/144 135/1/130 
f 134/1/129 137/1/131 153/1/146 
f 153/1/146 152/1/145 134/1/129 
f 154/1/147 153/1/146 137/1/131 
f 137/1/131 136/1/22 155/1/148 
f 155/1/148 154/1/147 137/1/131 
f 136/1/22 140/1/133 156/1/149 
f 156/1/149 155/1/148 136/1/22 
f 157/1/150 140/1/133 139/1/8 
f 158/1/151 157/1/150 139/1/8 
f 139/1/8 138/1/132 158/1/151 
f 159/1/152 158/1/151 138/1/132 
f 138/1/132 141/1/134 159/1/152 
f 143/1/136 159/1/152 141/1/134 
f 160/1/153 161/1/154 162/1/155 
f 162/1/155 143/1/136 160/1/153 
f 160/1/153 142/1/135 163/1/156 
f 163/1/156 161/1/154 160/1/153 
f 142/1/135 145/1/138 164/1/157 
f 164/1/157 163/1/156 142/1/135 
f 165/1/158 164/1/157 145/1/138 
f 144/1/137 166/1/159 165/1/158 
f 165/1/158 145/1/138 144/1/137 
f 167/1/4 166/1/159 144/1/137 
f 146/1/139 168/1/6 167/1/4 
f 167/1/4 144/1/137 146/1/139 
f 133/1/128 169/1/160 168/1/6 
f 168/1/6 146/1/139 133/1/128 
f 169/1/160 133/1/128 148/1/141 
f 127/1/124 148/1/141 133/1/128 
f 133/1/128 128/1/125 127/1/124 
f 158/1/151 102/1/101 170/1/161 
f 170/1/161 157/1/150 158/1/151 
f 102/1/101 158/1/151 159/1/152 
f 102/1/101 159/1/152 143/1/136 
f 170/1/161 140/1/133 157/1/150 
f 140/1/133 170/1/161 171/1/162 
f 171/1/162 156/1/149 140/1/133 
f 101/1/100 102/1/101 143/1/136 
f 143/1/136 162/1/155 101/1/100 
f 172/1/163 170/1/161 102/1/101 
f 102/1/101 103/1/102 172/1/163 
f 173/1/164 172/1/163 103/1/102 
f 103/1/102 104/1/63 173/1/164 
f 174/1/165 173/1/164 104/1/63 
f 104/1/63 105/1/64 174/1/165 
f 152/1/145 175/1/166 176/1/167 
f 176/1/167 151/1/144 152/1/145 
f 153/1/146 175/1/166 152/1/145 
f 154/1/147 175/1/166 153/1/146 
f 155/1/148 171/1/162 175/1/166 
f 175/1/166 154/1/147 155/1/148 
f 156/1/149 171/1/162 155/1/148 
f 166/1/159 99/1/98 100/1/99 
f 100/1/99 165/1/158 166/1/159 
f 164/1/157 165/1/158 100/1/99 
f 163/1/156 164/1/157 100/1/99 
f 163/1/156 100/1/99 101/1/100 
f 101/1/100 161/1/154 163/1/156 
f 162/1/155 161/1/154 101/1/100 
f 177/1/168 1/1/1 4/1/4 
f 177/1/168 4/1/4 6/1/6 
f 177/1/168 6/1/6 8/1/8 
f 177/1/168 8/1/8 10/1/10 
f 178/1/168 10/1/10 12/1/12 
f 178/1/168 12/1/12 14/1/14 
f 178/1/168 14/1/14 16/1/16 
f 178/1/168 16/1/16 18/1/18 
f 179/1/168 18/1/18 20/1/20 
f 179/1/168 20/1/20 22/1/22 
f 179/1/168 22/1/22 24/1/24 
f 179/1/168 24/1/24 26/1/26 
f 180/1/168 26/1/26 28/1/28 
f 180/1/168 28/1/28 30/1/30 
f 180/1/168 30/1/30 32/1/32 
f 180/1/168 32/1/32 1/1/1 
f 148/1/141 26/1/26 66/1/65 
f 66/1/65 169/1/160 148/1/141 
f 169/1/160 66/1/65 99/1/98 
f 99/1/98 168/1/6 169/1/160 
f 167/1/4 168/1/6 99/1/98 
f 166/1/159 167/1/4 99/1/98 
f 176/1/167 150/1/143 151/1/144 
f 176/1/167 149/1/142 150/1/143 
f 149/1/142 176/1/167 179/1/168 
f 179/1/168 147/1/140 149/1/142 
f 179/1/168 26/1/26 148/1/141 
f 148/1/141 147/1/140 179/1/168 
f 49/1/48 51/1/50 10/1/10 
f 10/1/10 178/1/168 49/1/48 
f 10/1/10 51/1/50 177/1/168 
f 51/1/50 1/1/1 177/1/168 
f 1/1/1 51/1/50 60/1/59 
f 60/1/59 180/1/168 1/1/1 
f 180/1/168 60/1/59 66/1/65 
f 66/1/65 26/1/26 180/1/168 
f 176/1/167 49/1/48 18/1/18 
f 18/1/18 179/1/168 176/1/167 
f 18/1/18 49/1/48 178/1/168 
f 140/1/133 136/1/22 122/1/119 
f 160/1/153 143/1/136 142/1/135 
f 121/1/118 132/1/127 75/1/74 
f 133/1/128 131/1/127 68/1/67 
f 181/1/169 182/1/170 50/1/49 
f 50/1/49 49/1/48 181/1/169 
f 176/1/167 183/1/171 181/1/169 
f 181/1/169 49/1/48 176/1/167 
f 176/1/167 184/1/172 183/1/171 
f 175/1/166 171/1/162 184/1/172 
f 184/1/172 176/1/167 175/1/166 
f 170/1/161 172/1/163 184/1/172 
f 184/1/172 171/1/162 170/1/161 
f 173/1/164 174/1/165 184/1/172 
f 184/1/172 172/1/163 173/1/164 
f 185/1/173 186/1/174 184/1/172 
f 184/1/172 174/1/165 185/1/173 
f 187/1/175 183/1/171 184/1/172 
f 184/1/172 186/1/174 187/1/175 
f 182/1/170 181/1/169 54/1/53 
f 54/1/53 53/1/52 182/1/170 
f 50/1/49 182/1/170 53/1/52 
f 53/1/52 52/1/51 50/1/49 
f 54/1/53 181/1/169 188/1/35 
f 188/1/35 55/1/54 54/1/53 
f 61/1/60 188/1/35 183/1/171 
f 183/1/171 109/1/106 61/1/60 
f 183/1/171 187/1/175 108/1/105 
f 108/1/105 109/1/106 183/1/171 
f 187/1/175 186/1/174 107/1/104 
f 107/1/104 108/1/105 187/1/175 
f 107/1/104 186/1/174 185/1/173 
f 185/1/173 106/1/103 107/1/104 
f 185/1/173 174/1/165 105/1/64 
f 105/1/64 106/1/103 185/1/173 
# 374 faces

