# 3ds Max Wavefront OBJ Exporter v0.99 - (c)2007 guruware
# File Created: 11.05.2020 08:20:01

mtllib piernaDer.mtl

#
# object piernaDerechaBart
#

v  0.3696 -1.1961 -0.3518
v  0.3971 -1.0585 -0.3512
v  0.4022 -1.0586 -0.5907
v  0.3749 -1.1961 -0.5913
v  0.2917 -1.3127 -0.3534
v  0.2970 -1.3128 -0.5929
v  0.1751 -1.3906 -0.3559
v  0.1804 -1.3907 -0.5955
v  0.0377 -1.4180 -0.3588
v  0.0428 -1.4181 -0.5984
v  -0.0999 -1.3906 -0.3618
v  -0.0947 -1.3907 -0.6013
v  -0.2164 -1.3127 -0.3643
v  -0.2113 -1.3128 -0.6039
v  -0.2944 -1.1961 -0.3660
v  -0.2892 -1.1961 -0.6056
v  -0.3217 -1.0585 -0.3665
v  -0.3167 -1.0586 -0.6062
v  -0.2944 -0.9209 -0.3660
v  -0.2892 -0.9210 -0.6056
v  -0.2164 -0.8043 -0.3643
v  -0.2113 -0.8044 -0.6040
v  -0.0998 -0.7264 -0.3618
v  -0.0947 -0.7264 -0.6014
v  0.0377 -0.6990 -0.3590
v  0.0428 -0.6991 -0.5985
v  0.1751 -0.7264 -0.3559
v  0.1804 -0.7264 -0.5956
v  0.2917 -0.8043 -0.3535
v  0.2970 -0.8044 -0.5931
v  0.3696 -0.9209 -0.3518
v  0.3749 -0.9210 -0.5913
v  0.3971 -1.4180 -0.3511
v  -0.3217 -1.4180 -0.3665
v  -0.3217 -0.6990 -0.3667
v  0.3971 -0.6990 -0.3512
v  0.3971 -1.6577 -0.3511
v  -0.3217 -1.6577 -0.3665
v  0.3971 -0.4594 -0.3512
v  -0.3217 -0.4594 -0.3667
v  -0.3321 -1.4179 0.1127
v  -0.3321 -0.4593 0.1125
v  0.3868 -0.4593 0.1279
v  0.3868 -1.4179 0.1282
v  -0.3371 -1.6575 0.3523
v  -0.3371 -1.4179 0.3523
v  0.3817 -1.6575 0.3677
v  0.3817 -1.4179 0.3677
v  -0.5520 -1.6575 0.5875
v  -0.5262 -1.6577 -0.6106
v  0.5520 -1.6577 -0.5875
v  0.5263 -1.6575 0.6106
v  0.5263 -1.1782 0.6105
v  0.5326 -1.1782 0.3109
v  0.5354 -0.5312 0.1790
v  0.5326 -0.4413 0.3108
v  0.5403 -0.5791 -0.0486
v  0.5452 -0.5313 -0.2761
v  0.5494 -0.3995 -0.4678
v  0.5520 -0.2258 -0.5877
v  0.1693 -0.1461 -0.1253
v  0.1679 -0.1598 -0.0566
v  0.5105 -0.1598 -0.0493
v  0.5119 -0.1461 -0.1181
v  0.1706 -0.1071 -0.1837
v  0.5132 -0.1071 -0.1763
v  0.1714 -0.0488 -0.2227
v  0.5140 -0.0488 -0.2153
v  0.1716 0.0199 -0.2363
v  0.5142 0.0199 -0.2290
v  0.1714 0.0887 -0.2227
v  0.5140 0.0887 -0.2154
v  0.1706 0.1470 -0.1838
v  0.5132 0.1470 -0.1763
v  0.1693 0.1860 -0.1255
v  0.5119 0.1860 -0.1181
v  0.1679 0.1997 -0.0567
v  0.5105 0.1997 -0.0494
v  0.1664 0.1861 0.0121
v  0.5090 0.1861 0.0194
v  0.1651 0.1471 0.0704
v  0.5077 0.1471 0.0777
v  0.1643 0.0888 0.1093
v  0.5069 0.0888 0.1168
v  0.1639 0.0200 0.1230
v  0.5065 0.0200 0.1304
v  0.1643 -0.0488 0.1094
v  0.5069 -0.0488 0.1168
v  0.1651 -0.1071 0.0704
v  0.5077 -0.1071 0.0778
v  0.1664 -0.1461 0.0121
v  0.5090 -0.1461 0.0195
v  -0.2288 0.0200 -0.0652
v  -0.2288 0.3795 -0.0652
v  -0.2316 0.3521 0.0723
v  -0.2342 0.2742 0.1890
v  -0.2358 0.1576 0.2669
v  -0.2365 0.0201 0.2942
v  0.1679 0.3795 -0.0567
v  0.1649 0.3521 0.0808
v  0.1623 0.2742 0.1974
v  0.1607 0.1576 0.2754
v  0.1601 0.0201 0.3027
v  -0.2223 0.3794 -0.3647
v  0.1742 0.3794 -0.3562
v  0.1607 -0.1178 0.2752
v  -0.2360 -0.1058 0.2691
v  -0.2298 -0.1142 0.2675
v  -0.1125 -0.1921 0.2197
v  0.1618 -0.1927 0.2255
v  0.0256 -0.2196 0.2041
v  -0.2223 -0.1059 -0.3645
v  0.1639 -0.1597 0.1231
v  0.1716 -0.1598 -0.2362
v  0.1716 0.1997 -0.2363
v  0.1742 -0.1928 -0.3561
v  -0.2944 0.0022 -0.3661
v  -0.3217 0.1397 -0.3668
v  -0.2943 0.2773 -0.3663
v  -0.2164 0.3939 -0.3645
v  -0.0998 0.4719 -0.3620
v  0.0377 0.4992 -0.3591
v  -0.1313 0.4509 -0.3627
v  0.1751 0.4719 -0.3562
v  0.2066 0.4509 -0.3555
v  0.3696 0.2773 -0.3519
v  0.3971 0.1397 -0.3514
v  0.3696 0.0022 -0.3519
v  0.2917 -0.1144 -0.3536
v  -0.0947 -0.1924 -0.6015
v  0.0428 -0.2198 -0.5985
v  -0.2113 -0.1145 -0.6041
v  -0.2892 0.0021 -0.6057
v  -0.2928 0.0199 -0.6058
v  -0.3172 0.1397 -0.5811
v  -0.3006 0.2248 -0.5630
v  -0.2909 0.2773 -0.5265
v  -0.2148 0.3939 -0.4448
v  -0.2097 0.3974 -0.4424
v  -0.1005 0.4719 -0.3317
v  0.0361 0.4993 -0.2890
v  0.1746 0.4719 -0.3257
v  0.2882 0.3974 -0.4317
v  0.2935 0.3939 -0.4340
v  0.2917 0.3939 -0.3537
v  0.3731 0.2773 -0.5123
v  0.3843 0.2248 -0.5482
v  0.4017 0.1397 -0.5658
v  0.3784 0.0199 -0.5914
v  0.3749 0.0021 -0.5915
v  0.2970 -0.1145 -0.5932
v  0.1804 -0.1924 -0.5956
v  -0.4453 0.5160 -0.2749
v  0.5149 0.5160 -0.2542
v  -0.4464 0.3974 -0.4473
v  0.5186 0.3974 -0.4268
v  -0.4480 0.5592 -0.0700
v  0.5105 0.5592 -0.0494
v  -0.4541 0.5161 0.1349
v  0.5061 0.5161 0.1555
v  -0.4627 0.3975 0.3074
v  0.5023 0.3975 0.3280
v  -0.4579 0.0199 -0.6093
v  -0.4511 0.2248 -0.5662
v  0.5211 0.2248 -0.5452
v  0.5219 0.0199 -0.5884
v  0.4022 -1.4181 -0.5906
v  -0.3167 -1.4181 -0.6061
v  -0.3167 -0.6991 -0.6063
v  0.4022 -0.6991 -0.5908
v  0.5219 -0.2258 -0.5884
v  -0.5329 -1.1782 0.5877
v  -0.5264 -1.1782 0.2882
v  -0.4940 -0.3838 0.2889
v  -0.4695 0.0200 -0.0703
v  -0.4811 0.0201 0.4689
v  -0.4723 0.2250 0.4259
v  -0.4886 -0.1848 0.4255
v  -0.4965 -0.4413 0.2889
v  0.5028 -0.3838 0.3102
v  0.5028 -0.4413 0.3102
v  0.4998 -0.1848 0.4468
v  0.4988 0.0201 0.4899
v  0.4998 0.2250 0.4467
# 184 vertices

vn -0.7963 0.2654 0.5435
vn -0.8368 -0.0507 0.5452
vn -0.4917 0.0378 -0.8699
vn -0.7295 0.3648 -0.5786
vn -0.6351 0.5462 0.5462
vn -0.5338 0.6228 -0.5720
vn -0.3775 0.7423 0.5536
vn -0.2526 0.7831 -0.5683
vn -0.0503 0.5912 0.8050
vn 0.0506 0.5064 -0.8608
vn 0.2526 0.7831 0.5683
vn 0.3775 0.7423 -0.5536
vn 0.5338 0.6228 0.5720
vn 0.6351 0.5462 -0.5462
vn 0.7295 0.3648 0.5786
vn 0.7963 0.2654 -0.5435
vn 0.8152 0.0502 0.5769
vn 0.5308 -0.0379 -0.8467
vn 0.7699 -0.2650 0.5806
vn 0.7565 -0.3657 -0.5422
vn 0.6062 -0.5431 0.5810
vn 0.5555 -0.6187 -0.5555
vn 0.3530 -0.7439 0.5674
vn 0.2780 -0.7834 -0.5559
vn 0.0127 -0.5070 0.8619
vn -0.0127 -0.5070 -0.8619
vn -0.2780 -0.7834 0.5559
vn -0.3530 -0.7439 -0.5674
vn -0.5555 -0.6187 0.5555
vn -0.6062 -0.5431 -0.5810
vn -0.7565 -0.3657 0.5422
vn -0.7699 -0.2650 -0.5806
vn -0.5311 0.0000 0.8473
vn 0.4270 0.0000 0.9042
vn -0.0253 0.0000 0.9997
vn -0.2393 -0.6928 0.6802
vn 0.5273 -0.8035 0.2762
vn -0.6806 -0.3277 0.6553
vn 0.3164 -0.6708 0.6708
vn 0.8835 -0.2146 -0.4165
vn 0.8248 -0.4061 -0.3934
vn -0.3164 -0.6708 -0.6708
vn -0.8661 -0.4393 -0.2385
vn 0.5398 -0.8035 -0.2511
vn 0.3529 -0.6679 -0.6553
vn -0.6286 -0.6412 -0.4401
vn -0.5647 -0.5773 -0.5898
vn -0.5523 -0.7908 0.2636
vn -0.3547 -0.5447 -0.7600
vn 0.8232 -0.3546 -0.4433
vn 0.2511 -0.8035 0.5398
vn 0.6553 0.6679 0.3529
vn 0.8987 0.3038 0.3164
vn 0.9997 0.0000 0.0253
vn 0.3387 0.0000 -0.9409
vn -0.5683 0.7831 0.2526
vn -0.8050 0.5912 -0.0503
vn 0.0000 0.9980 0.0632
vn -0.0126 0.8969 0.4421
vn -0.5720 0.6228 0.5338
vn -0.0126 0.6549 0.7556
vn -0.5786 0.3648 0.7295
vn -0.0253 0.3161 0.9484
vn -0.8157 0.0376 0.5773
vn -0.0253 -0.0631 0.9977
vn -0.5806 -0.2650 0.7699
vn -0.0253 -0.4420 0.8967
vn -0.5810 -0.5431 0.6062
vn -0.0126 -0.7556 0.6549
vn -0.5674 -0.7439 0.3530
vn -0.0126 -0.9486 0.3162
vn -0.7131 -0.7006 0.0250
vn 0.0000 -0.9980 -0.0632
vn -0.7052 -0.6674 -0.2393
vn 0.0126 -0.8969 -0.4421
vn -0.7031 -0.5273 -0.4771
vn 0.0126 -0.6549 -0.7556
vn -0.7021 -0.3134 -0.6394
vn 0.0253 -0.3161 -0.9484
vn -0.7949 -0.0379 -0.6056
vn 0.0253 0.0631 -0.9977
vn -0.5435 0.2654 -0.7963
vn 0.0253 0.4420 -0.8967
vn -0.5462 0.5462 -0.6351
vn 0.0126 0.7556 -0.6549
vn -0.5536 0.7423 -0.3775
vn 0.0126 0.9486 -0.3162
vn 0.5543 -0.8315 -0.0378
vn 0.5683 -0.7831 -0.2526
vn 0.5720 -0.6228 -0.5338
vn 0.5786 -0.3648 -0.7295
vn 0.4771 0.0000 -0.8789
vn -0.7974 -0.5949 -0.1013
vn -0.7049 -0.6293 -0.3273
vn -0.7025 -0.4642 -0.5394
vn -0.6949 -0.2274 -0.6822
vn -0.8222 0.0000 -0.5692
vn 0.2642 -0.1258 -0.9562
vn -0.4165 -0.2146 -0.8835
vn -0.3525 0.3147 -0.8813
vn 0.8318 0.3529 -0.4285
vn 0.4519 0.6904 -0.5649
vn 0.2658 0.8354 -0.4810
vn -0.6210 0.6083 -0.4943
vn 0.0000 0.9843 -0.1767
vn 0.9210 0.3406 -0.1892
vn -0.9997 0.0000 -0.0253
vn -0.7706 0.6190 -0.1516
vn 0.8650 0.2544 -0.4325
vn 0.8368 -0.0507 -0.5452
vn 0.8309 -0.3399 -0.4406
vn 0.0630 0.6930 -0.7182
vn 0.0126 0.5547 -0.8320
vn 0.2789 0.6466 -0.7100
vn 0.0253 0.4672 -0.8838
vn -0.6431 -0.2270 -0.7314
vn -0.8152 -0.0502 -0.5769
vn -0.8469 0.2528 -0.4677
vn -0.6062 0.5431 -0.5810
vn 0.2780 0.7834 -0.5559
vn -0.0252 0.5917 -0.8057
vn 0.6342 0.5834 -0.5073
vn 0.7565 0.3657 -0.5422
vn 0.7032 0.2135 -0.6781
vn 0.7068 0.1893 -0.6816
vn 0.8608 0.0506 -0.5064
vn 0.7477 0.1521 -0.6463
vn 0.6795 -0.0755 -0.7298
vn 0.6328 -0.1519 -0.7593
vn -0.2007 0.9281 -0.3136
vn -0.0251 0.9533 -0.3010
vn 0.2025 0.9493 -0.2405
vn -0.6051 -0.1513 -0.7816
vn -0.6222 -0.1143 -0.7745
vn -0.6818 -0.6818 -0.2651
vn -0.7088 0.1139 -0.6961
vn -0.8405 0.0502 -0.5394
vn -0.8070 0.1639 -0.5674
vn -0.5209 0.2160 -0.8258
vn -0.1888 0.5034 -0.8432
vn -0.3652 0.8059 -0.4659
vn 0.0126 0.8918 -0.4522
vn -0.4298 0.6447 -0.6321
vn 0.0126 0.6814 -0.7318
vn -0.5536 0.8304 -0.0629
vn 0.0000 0.9971 0.0757
vn -0.5541 0.7934 0.2519
vn -0.0126 0.8918 0.4522
vn -0.4636 0.6389 0.6139
vn -0.0126 0.7071 0.7071
vn -0.4810 0.0759 -0.8734
vn -0.3510 0.4137 -0.8400
vn 0.0253 0.3538 -0.9350
vn 0.0253 0.0379 -0.9990
vn 0.0253 0.0000 -0.9997
vn -0.4270 0.4144 0.8037
vn -0.8118 0.4371 0.3872
vn -0.8605 -0.1265 0.4935
vn -0.9990 0.0379 -0.0253
vn -0.4771 0.0126 0.8788
vn -0.7224 0.3042 0.6210
vn -0.5812 -0.3538 0.7328
vn -0.0251 -0.3010 0.9533
vn -0.0252 -0.3274 0.9445
vn -0.0252 0.3907 0.9202
# 165 vertex normals

vt 0.0000 0.0000 0.0000
# 1 texture coords

o piernaDerechaBart
g piernaDerechaBart
usemtl Material__68
s 1
f 1/1/1 2/1/2 3/1/3 
f 3/1/3 4/1/4 1/1/1 
f 5/1/5 1/1/1 4/1/4 
f 4/1/4 6/1/6 5/1/5 
f 7/1/7 5/1/5 6/1/6 
f 6/1/6 8/1/8 7/1/7 
f 9/1/9 7/1/7 8/1/8 
f 8/1/8 10/1/10 9/1/9 
f 11/1/11 9/1/9 10/1/10 
f 10/1/10 12/1/12 11/1/11 
f 13/1/13 11/1/11 12/1/12 
f 12/1/12 14/1/14 13/1/13 
f 15/1/15 13/1/13 14/1/14 
f 14/1/14 16/1/16 15/1/15 
f 17/1/17 15/1/15 16/1/16 
f 16/1/16 18/1/18 17/1/17 
f 19/1/19 17/1/17 18/1/18 
f 18/1/18 20/1/20 19/1/19 
f 21/1/21 19/1/19 20/1/20 
f 20/1/20 22/1/22 21/1/21 
f 23/1/23 21/1/21 22/1/22 
f 22/1/22 24/1/24 23/1/23 
f 25/1/25 23/1/23 24/1/24 
f 24/1/24 26/1/26 25/1/25 
f 27/1/27 25/1/25 26/1/26 
f 26/1/26 28/1/28 27/1/27 
f 29/1/29 27/1/27 28/1/28 
f 28/1/28 30/1/30 29/1/29 
f 31/1/31 29/1/29 30/1/30 
f 30/1/30 32/1/32 31/1/31 
f 2/1/2 31/1/31 32/1/32 
f 32/1/32 3/1/3 2/1/2 
f 33/1/33 2/1/2 1/1/1 
f 33/1/33 1/1/1 5/1/5 
f 33/1/33 5/1/5 7/1/7 
f 33/1/33 7/1/7 9/1/9 
f 34/1/34 9/1/9 11/1/11 
f 34/1/34 11/1/11 13/1/13 
f 34/1/34 13/1/13 15/1/15 
f 34/1/34 15/1/15 17/1/17 
f 35/1/35 17/1/17 19/1/19 
f 35/1/35 19/1/19 21/1/21 
f 35/1/35 21/1/21 23/1/23 
f 35/1/35 23/1/23 25/1/25 
f 36/1/35 25/1/25 27/1/27 
f 36/1/35 27/1/27 29/1/29 
f 36/1/35 29/1/29 31/1/31 
f 36/1/35 31/1/31 2/1/2 
f 37/1/36 9/1/9 34/1/34 
f 34/1/34 38/1/37 37/1/36 
f 33/1/33 9/1/9 37/1/36 
f 25/1/25 39/1/38 40/1/39 
f 40/1/39 35/1/35 25/1/25 
f 39/1/38 25/1/25 36/1/35 
f 41/1/40 42/1/41 43/1/42 
f 43/1/42 44/1/43 41/1/40 
f 43/1/42 42/1/41 40/1/39 
f 40/1/39 39/1/38 43/1/42 
f 44/1/43 43/1/42 39/1/38 
f 39/1/38 33/1/33 44/1/43 
f 42/1/41 41/1/40 34/1/34 
f 34/1/34 40/1/39 42/1/41 
f 41/1/40 45/1/44 38/1/37 
f 38/1/37 34/1/34 41/1/40 
f 41/1/40 46/1/45 45/1/44 
f 47/1/46 44/1/43 33/1/33 
f 33/1/33 37/1/36 47/1/46 
f 47/1/46 48/1/47 44/1/43 
f 46/1/45 48/1/47 47/1/46 
f 47/1/46 45/1/44 46/1/45 
f 46/1/45 41/1/40 44/1/43 
f 44/1/43 48/1/47 46/1/45 
f 45/1/44 49/1/48 50/1/49 
f 50/1/49 38/1/37 45/1/44 
f 38/1/37 50/1/49 51/1/50 
f 51/1/50 37/1/36 38/1/37 
f 37/1/36 51/1/50 52/1/51 
f 52/1/51 47/1/46 37/1/36 
f 47/1/46 52/1/51 49/1/48 
f 49/1/48 45/1/44 47/1/46 
f 53/1/52 52/1/51 51/1/50 
f 51/1/50 54/1/53 53/1/52 
f 54/1/53 55/1/54 56/1/34 
f 55/1/54 54/1/53 51/1/50 
f 51/1/50 57/1/54 55/1/54 
f 51/1/50 58/1/54 57/1/54 
f 51/1/50 59/1/54 58/1/54 
f 51/1/50 60/1/55 59/1/54 
f 61/1/56 62/1/57 63/1/58 
f 63/1/58 64/1/59 61/1/56 
f 65/1/60 61/1/56 64/1/59 
f 64/1/59 66/1/61 65/1/60 
f 67/1/62 65/1/60 66/1/61 
f 66/1/61 68/1/63 67/1/62 
f 69/1/64 67/1/62 68/1/63 
f 68/1/63 70/1/65 69/1/64 
f 71/1/66 69/1/64 70/1/65 
f 70/1/65 72/1/67 71/1/66 
f 73/1/68 71/1/66 72/1/67 
f 72/1/67 74/1/69 73/1/68 
f 75/1/70 73/1/68 74/1/69 
f 74/1/69 76/1/71 75/1/70 
f 77/1/72 75/1/70 76/1/71 
f 76/1/71 78/1/73 77/1/72 
f 79/1/74 77/1/72 78/1/73 
f 78/1/73 80/1/75 79/1/74 
f 81/1/76 79/1/74 80/1/75 
f 80/1/75 82/1/77 81/1/76 
f 83/1/78 81/1/76 82/1/77 
f 82/1/77 84/1/79 83/1/78 
f 85/1/80 83/1/78 84/1/79 
f 84/1/79 86/1/81 85/1/80 
f 87/1/82 85/1/80 86/1/81 
f 86/1/81 88/1/83 87/1/82 
f 89/1/84 87/1/82 88/1/83 
f 88/1/83 90/1/85 89/1/84 
f 91/1/86 89/1/84 90/1/85 
f 90/1/85 92/1/87 91/1/86 
f 62/1/57 91/1/86 92/1/87 
f 92/1/87 63/1/58 62/1/57 
f 93/1/54 94/1/88 95/1/89 
f 93/1/54 95/1/89 96/1/90 
f 93/1/54 96/1/90 97/1/91 
f 93/1/54 97/1/91 98/1/92 
f 95/1/89 94/1/88 99/1/93 
f 99/1/93 100/1/94 95/1/89 
f 96/1/90 95/1/89 100/1/94 
f 100/1/94 101/1/95 96/1/90 
f 97/1/91 96/1/90 101/1/95 
f 101/1/95 102/1/96 97/1/91 
f 98/1/92 97/1/91 102/1/96 
f 102/1/96 103/1/97 98/1/92 
f 94/1/88 104/1/98 105/1/99 
f 105/1/99 99/1/93 94/1/88 
f 98/1/92 103/1/97 106/1/100 
f 106/1/100 107/1/101 98/1/92 
f 106/1/100 108/1/102 107/1/101 
f 109/1/103 108/1/102 106/1/100 
f 110/1/104 111/1/105 109/1/103 
f 109/1/103 106/1/100 110/1/104 
f 93/1/54 112/1/106 104/1/98 
f 104/1/98 94/1/88 93/1/54 
f 93/1/54 98/1/92 107/1/101 
f 107/1/101 112/1/106 93/1/54 
f 99/1/93 77/1/72 79/1/74 
f 79/1/74 100/1/94 99/1/93 
f 100/1/94 79/1/74 81/1/76 
f 81/1/76 101/1/95 100/1/94 
f 101/1/95 81/1/76 83/1/78 
f 83/1/78 102/1/96 101/1/95 
f 102/1/96 83/1/78 85/1/80 
f 85/1/80 103/1/97 102/1/96 
f 113/1/107 85/1/80 87/1/82 
f 113/1/107 87/1/82 89/1/84 
f 113/1/107 89/1/84 91/1/86 
f 113/1/107 91/1/86 62/1/57 
f 114/1/107 62/1/57 61/1/56 
f 114/1/107 61/1/56 65/1/60 
f 114/1/107 65/1/60 67/1/62 
f 114/1/107 67/1/62 69/1/64 
f 115/1/107 69/1/64 71/1/66 
f 115/1/107 71/1/66 73/1/68 
f 115/1/107 73/1/68 75/1/70 
f 115/1/107 75/1/70 77/1/72 
f 99/1/93 105/1/99 115/1/107 
f 115/1/107 77/1/72 99/1/93 
f 114/1/107 69/1/64 105/1/99 
f 105/1/99 116/1/108 114/1/107 
f 113/1/107 62/1/57 116/1/108 
f 116/1/108 110/1/104 113/1/107 
f 103/1/97 85/1/80 113/1/107 
f 113/1/107 106/1/100 103/1/97 
f 106/1/100 113/1/107 110/1/104 
f 117/1/109 118/1/110 104/1/98 
f 104/1/98 112/1/106 117/1/109 
f 119/1/111 120/1/22 104/1/98 
f 104/1/98 118/1/110 119/1/111 
f 121/1/8 122/1/112 104/1/98 
f 104/1/98 123/1/113 121/1/8 
f 122/1/112 124/1/114 105/1/99 
f 105/1/99 104/1/98 122/1/112 
f 125/1/115 126/1/116 105/1/99 
f 105/1/99 124/1/114 125/1/115 
f 127/1/117 128/1/118 105/1/99 
f 105/1/99 126/1/116 127/1/117 
f 129/1/119 116/1/108 105/1/99 
f 105/1/99 128/1/118 129/1/119 
f 130/1/120 109/1/103 111/1/105 
f 111/1/105 131/1/121 130/1/120 
f 132/1/122 108/1/102 109/1/103 
f 109/1/103 130/1/120 132/1/122 
f 132/1/122 112/1/106 107/1/101 
f 107/1/101 108/1/102 132/1/122 
f 112/1/106 132/1/122 133/1/123 
f 133/1/123 117/1/109 112/1/106 
f 117/1/109 133/1/123 134/1/124 
f 135/1/125 118/1/110 117/1/109 
f 117/1/109 134/1/124 135/1/125 
f 136/1/126 119/1/111 118/1/110 
f 118/1/110 135/1/125 136/1/126 
f 119/1/111 136/1/126 137/1/127 
f 138/1/128 120/1/22 119/1/111 
f 119/1/111 137/1/127 138/1/128 
f 139/1/129 123/1/113 120/1/22 
f 120/1/22 138/1/128 139/1/129 
f 121/1/8 123/1/113 140/1/130 
f 121/1/8 140/1/130 141/1/131 
f 141/1/131 122/1/112 121/1/8 
f 122/1/112 141/1/131 142/1/132 
f 142/1/132 124/1/114 122/1/112 
f 124/1/114 142/1/132 125/1/115 
f 143/1/133 144/1/134 145/1/135 
f 145/1/135 125/1/115 143/1/133 
f 146/1/136 126/1/116 145/1/135 
f 145/1/135 144/1/134 146/1/136 
f 147/1/137 127/1/117 126/1/116 
f 126/1/116 146/1/136 147/1/137 
f 127/1/117 147/1/137 148/1/138 
f 148/1/138 149/1/139 128/1/118 
f 128/1/118 127/1/117 148/1/138 
f 128/1/118 149/1/139 150/1/4 
f 150/1/4 151/1/6 129/1/119 
f 129/1/119 128/1/118 150/1/4 
f 151/1/6 152/1/140 116/1/108 
f 116/1/108 129/1/119 151/1/6 
f 131/1/121 116/1/108 152/1/140 
f 116/1/108 131/1/121 111/1/105 
f 111/1/105 110/1/104 116/1/108 
f 153/1/141 154/1/142 141/1/131 
f 141/1/131 140/1/130 153/1/141 
f 142/1/132 141/1/131 154/1/142 
f 125/1/115 142/1/132 154/1/142 
f 140/1/130 123/1/113 153/1/141 
f 155/1/143 153/1/141 123/1/113 
f 123/1/113 139/1/129 155/1/143 
f 125/1/115 154/1/142 156/1/144 
f 156/1/144 143/1/133 125/1/115 
f 154/1/142 153/1/141 157/1/145 
f 157/1/145 158/1/146 154/1/142 
f 158/1/146 157/1/145 159/1/147 
f 159/1/147 160/1/148 158/1/146 
f 160/1/148 159/1/147 161/1/149 
f 161/1/149 162/1/150 160/1/148 
f 163/1/151 164/1/152 135/1/125 
f 135/1/125 134/1/124 163/1/151 
f 135/1/125 164/1/152 136/1/126 
f 136/1/126 164/1/152 137/1/127 
f 164/1/152 155/1/143 138/1/128 
f 138/1/128 137/1/127 164/1/152 
f 138/1/128 155/1/143 139/1/129 
f 165/1/153 166/1/154 149/1/139 
f 149/1/139 148/1/138 165/1/153 
f 165/1/153 148/1/138 147/1/137 
f 165/1/153 147/1/137 146/1/136 
f 156/1/144 165/1/153 146/1/136 
f 146/1/136 144/1/134 156/1/144 
f 156/1/144 144/1/134 143/1/133 
f 4/1/4 3/1/3 167/1/155 
f 6/1/6 4/1/4 167/1/155 
f 8/1/8 6/1/6 167/1/155 
f 10/1/10 8/1/8 167/1/155 
f 12/1/12 10/1/10 168/1/155 
f 14/1/14 12/1/12 168/1/155 
f 16/1/16 14/1/14 168/1/155 
f 18/1/18 16/1/16 168/1/155 
f 20/1/20 18/1/18 169/1/155 
f 22/1/22 20/1/20 169/1/155 
f 24/1/24 22/1/22 169/1/155 
f 26/1/26 24/1/24 169/1/155 
f 28/1/28 26/1/26 170/1/155 
f 30/1/30 28/1/28 170/1/155 
f 32/1/32 30/1/30 170/1/155 
f 3/1/3 32/1/32 170/1/155 
f 171/1/155 26/1/26 131/1/121 
f 131/1/121 152/1/140 171/1/155 
f 166/1/154 171/1/155 152/1/140 
f 152/1/140 151/1/6 166/1/154 
f 166/1/154 151/1/6 150/1/4 
f 166/1/154 150/1/4 149/1/139 
f 134/1/124 133/1/123 163/1/151 
f 133/1/123 132/1/122 163/1/151 
f 169/1/155 163/1/151 132/1/122 
f 132/1/122 130/1/120 169/1/155 
f 131/1/121 26/1/26 169/1/155 
f 169/1/155 130/1/120 131/1/121 
f 10/1/10 51/1/50 50/1/49 
f 50/1/49 168/1/155 10/1/10 
f 167/1/155 51/1/50 10/1/10 
f 167/1/155 3/1/3 51/1/50 
f 60/1/55 51/1/50 3/1/3 
f 3/1/3 170/1/155 60/1/55 
f 171/1/155 60/1/55 170/1/155 
f 170/1/155 26/1/26 171/1/155 
f 18/1/18 50/1/49 163/1/151 
f 163/1/151 169/1/155 18/1/18 
f 168/1/155 50/1/49 18/1/18 
f 104/1/98 120/1/22 123/1/113 
f 126/1/116 125/1/115 145/1/135 
f 69/1/64 115/1/107 105/1/99 
f 62/1/57 114/1/107 116/1/108 
f 49/1/48 172/1/156 173/1/157 
f 173/1/157 50/1/49 49/1/48 
f 173/1/157 174/1/158 163/1/151 
f 163/1/151 50/1/49 173/1/157 
f 174/1/158 175/1/159 163/1/151 
f 175/1/159 155/1/143 164/1/152 
f 164/1/152 163/1/151 175/1/159 
f 175/1/159 157/1/145 153/1/141 
f 153/1/141 155/1/143 175/1/159 
f 175/1/159 161/1/149 159/1/147 
f 159/1/147 157/1/145 175/1/159 
f 175/1/159 176/1/160 177/1/161 
f 177/1/161 161/1/149 175/1/159 
f 175/1/159 174/1/158 178/1/162 
f 178/1/162 176/1/160 175/1/159 
f 53/1/52 54/1/53 173/1/157 
f 173/1/157 172/1/156 53/1/52 
f 52/1/51 53/1/52 172/1/156 
f 172/1/156 49/1/48 52/1/51 
f 56/1/34 179/1/35 173/1/157 
f 173/1/157 54/1/53 56/1/34 
f 180/1/163 174/1/158 179/1/35 
f 179/1/35 181/1/35 180/1/163 
f 180/1/163 182/1/164 178/1/162 
f 178/1/162 174/1/158 180/1/163 
f 182/1/164 183/1/35 176/1/160 
f 176/1/160 178/1/162 182/1/164 
f 184/1/165 177/1/161 176/1/160 
f 176/1/160 183/1/35 184/1/165 
f 184/1/165 162/1/150 161/1/149 
f 161/1/149 177/1/161 184/1/165 
# 331 faces

