# 3ds Max Wavefront OBJ Exporter v0.99 - (c)2007 guruware
# File Created: 09.05.2020 04:19:52

mtllib reja.mtl

#
# object Cubo_142_2
#

v  -1415.2059 -4.3047 -3637.4519
v  -1415.2059 195.6953 -3637.4519
v  -1415.1963 195.6953 -3622.4617
v  -1415.1963 -4.3047 -3622.4617
v  -1409.6611 -4.3047 -3646.8835
v  -1409.6611 195.6953 -3646.8835
v  -1413.1853 -4.3047 -3650.4304
v  -1413.1853 195.6953 -3650.4304
v  -1418.7537 -4.3047 -3640.9749
v  -1418.7537 195.6953 -3640.9749
v  -1418.7633 -4.3047 -3625.9651
v  -1418.7633 195.6953 -3625.9651
v  -1415.2059 215.6953 -3637.4519
v  -1418.7537 215.6953 -3640.9749
# 14 vertices

vn 0.9650 0.0000 0.2623
vn 1.0000 0.0000 -0.0006
vn 0.9922 0.0000 -0.1250
vn 0.9833 0.1507 -0.1016
vn 0.7094 0.0000 -0.7048
vn 0.6873 0.2414 -0.6851
vn -0.9647 -0.0000 -0.2633
vn -0.8617 -0.0000 -0.5075
vn -0.8617 -0.0000 -0.5074
vn -0.9223 -0.0000 0.3865
vn -0.9194 0.1304 0.3710
vn -0.7007 -0.0000 0.7134
vn -0.6807 0.2426 0.6912
vn -0.6199 0.4708 0.6277
vn -0.9814 0.1862 0.0473
vn 0.6246 0.4685 -0.6248
vn 0.9816 0.1850 -0.0468
vn 0.0000 -1.0000 0.0000
# 18 vertex normals

vt 0.5000 0.0000 0.0000
vt 0.5000 1.0000 0.0000
vt 0.0000 1.0000 0.0000
vt 0.0000 0.0000 0.0000
vt 1.0000 0.0000 0.0000
vt 1.0000 1.0000 0.0000
# 6 texture coords

o Cubo_142_2
g Cubo_142_2
usemtl Madera
s off
f 1/1/1 2/2/1 3/3/2 
f 3/3/2 4/4/2 1/1/1 
f 5/5/3 6/6/4 2/2/1 
f 2/2/1 1/1/1 5/5/3 
f 7/5/5 8/6/6 6/3/4 
f 6/3/4 5/4/3 7/5/5 
f 9/1/7 10/2/7 8/3/8 
f 8/3/8 7/4/9 9/1/7 
f 11/5/10 12/6/11 10/2/7 
f 10/2/7 9/1/7 11/5/10 
f 4/5/12 3/6/13 12/3/11 
f 12/3/11 11/4/10 4/5/12 
f 13/1/14 14/2/15 12/3/11 
f 12/3/11 3/4/13 13/1/14 
f 6/5/4 8/6/6 14/2/16 
f 14/2/16 13/1/17 6/5/4 
f 9/1/18 1/2/18 4/3/18 
f 4/3/18 11/4/18 9/1/18 
f 7/5/18 5/6/18 1/2/18 
f 1/2/18 9/1/18 7/5/18 
f 2/1/1 13/1/17 3/4/2 
f 12/3/11 14/2/15 10/2/7 
f 10/2/7 14/2/15 8/6/8 
f 6/5/4 13/1/17 2/1/1 
# 24 faces

